{"glyphs":{"0":{"ha":850,"x_min":53,"x_max":811,"o":"m 431 45 q 493 53 465 43 q 544 81 521 62 q 585 126 567 100 q 616 184 602 152 q 637 252 628 216 q 652 327 646 288 q 660 406 658 366 q 662 484 662 446 q 659 563 662 524 q 650 639 656 602 q 635 709 644 675 q 612 773 625 743 q 581 826 598 802 q 542 868 564 850 q 492 895 519 886 q 434 905 465 905 q 375 895 401 905 q 326 867 349 884 q 286 826 304 850 q 256 772 269 802 q 233 707 243 742 q 218 636 224 673 q 208 560 212 600 q 205 481 205 521 q 208 403 205 442 q 215 326 210 363 q 229 254 220 289 q 250 187 237 218 q 279 130 262 156 q 318 85 296 104 q 368 56 340 66 q 431 45 396 45 m 449 -19 q 389 -15 420 -20 q 323 1 357 -9 q 257 34 290 14 q 194 83 224 54 q 138 149 164 111 q 94 233 113 186 q 64 337 75 279 q 53 464 53 395 q 62 590 53 532 q 90 697 72 648 q 130 786 107 746 q 182 856 153 826 q 240 909 209 887 q 302 945 271 932 q 366 968 335 960 q 427 975 397 975 q 490 968 457 975 q 555 949 522 962 q 619 915 587 936 q 680 865 651 894 q 732 799 708 837 q 774 713 757 761 q 802 608 792 666 q 811 481 811 551 q 802 355 811 414 q 776 250 792 297 q 737 163 760 202 q 688 96 715 125 q 631 45 661 66 q 570 9 601 23 q 509 -10 540 -3 q 449 -19 477 -18 z "},"1":{"ha":727,"x_min":220,"x_max":693,"o":"m 529 951 l 529 88 l 693 43 l 693 0 l 220 0 l 220 41 l 385 85 l 385 840 l 220 840 l 220 884 l 468 951 l 529 951 z "},"2":{"ha":831,"x_min":56,"x_max":792,"o":"m 792 264 l 723 0 l 56 0 l 56 100 q 113 136 84 118 q 170 175 141 155 q 219 211 194 193 q 269 248 244 229 q 337 307 304 277 q 400 368 370 336 q 469 447 438 406 q 524 530 500 488 q 561 618 547 574 q 578 707 575 662 q 575 751 579 730 q 563 789 571 772 q 544 823 555 807 q 519 850 533 838 q 490 872 506 863 q 457 888 473 882 q 423 897 441 894 q 389 899 406 901 q 353 896 373 899 q 311 886 332 892 q 270 869 290 879 q 232 846 250 859 q 204 818 216 834 q 190 783 193 802 q 193 743 187 765 q 220 697 199 722 q 229 672 229 686 q 224 646 229 658 q 210 620 218 632 q 191 600 201 608 q 170 589 182 591 q 147 588 159 586 q 125 595 136 590 q 103 609 114 601 q 84 628 92 617 q 71 651 76 639 q 62 676 65 663 q 62 701 60 689 q 71 744 66 722 q 81 787 75 766 q 104 835 90 812 q 138 878 119 857 q 187 915 159 898 q 254 945 216 932 q 320 962 283 955 q 401 972 357 968 q 469 970 434 975 q 540 955 505 966 q 586 936 563 947 q 629 911 609 925 q 676 872 655 894 q 712 823 697 850 q 734 765 727 796 q 738 697 741 734 q 724 616 734 655 q 693 540 713 578 q 647 464 673 499 q 594 397 621 429 q 536 341 566 368 q 473 292 506 315 q 403 243 439 267 q 330 197 366 220 q 268 159 298 178 q 206 119 237 140 l 666 119 l 707 274 l 792 264 z "},"3":{"ha":836,"x_min":56,"x_max":796,"o":"m 524 526 q 582 516 553 524 q 635 498 610 509 q 682 472 661 487 q 723 441 704 457 q 755 404 741 423 q 778 363 769 384 q 791 319 787 342 q 795 274 796 297 q 783 205 792 237 q 757 146 773 174 q 710 85 738 111 q 650 39 682 58 q 589 10 621 22 q 524 -9 557 -1 q 458 -21 491 -18 q 395 -24 426 -24 q 340 -20 369 -24 q 282 -9 312 -16 q 223 9 252 -1 q 168 35 194 20 q 122 68 142 50 q 85 106 102 85 q 63 149 71 126 q 56 198 56 172 q 64 229 56 213 q 81 258 72 245 q 106 280 92 271 q 134 290 119 289 q 162 287 148 292 q 189 273 176 282 q 207 249 199 263 q 213 217 214 235 q 210 199 213 208 q 203 181 206 190 q 198 163 199 172 q 201 144 197 153 q 214 119 205 130 q 233 98 222 107 q 258 80 244 88 q 288 65 273 72 q 351 47 317 53 q 414 41 384 41 q 450 43 431 41 q 488 53 469 46 q 526 70 507 60 q 563 95 545 80 q 593 127 579 109 q 618 170 608 146 q 632 221 628 193 q 633 283 636 250 q 618 371 631 332 q 576 437 605 410 q 500 477 548 463 q 380 492 453 492 l 326 492 l 326 545 l 380 545 q 469 558 431 545 q 532 593 507 571 q 559 623 548 606 q 578 659 571 640 q 589 698 586 678 q 593 738 593 718 q 589 778 594 760 q 576 812 585 796 q 557 842 568 829 q 532 865 545 856 q 503 884 518 876 q 471 898 487 892 q 440 906 456 903 q 411 909 425 909 q 358 903 385 909 q 307 887 331 898 q 262 857 282 875 q 235 811 243 838 q 236 789 232 800 q 245 768 240 779 q 258 742 254 754 q 260 719 262 730 q 252 696 259 708 q 233 673 245 685 q 210 656 222 662 q 184 652 198 651 q 148 665 163 655 q 123 688 133 674 q 110 719 114 703 q 106 750 106 735 q 114 801 106 777 q 138 846 122 825 q 174 885 153 867 q 220 917 195 903 q 271 943 244 932 q 326 960 298 954 q 381 970 354 967 q 433 971 408 974 q 520 961 481 968 q 590 942 559 954 q 644 915 621 930 q 684 882 667 899 q 711 842 700 863 q 729 798 723 821 q 738 750 735 774 q 741 700 741 726 q 735 668 741 684 q 720 638 730 652 q 696 610 709 624 q 666 586 682 597 q 633 565 651 575 q 596 547 614 555 q 559 534 578 540 q 524 526 541 529 z "},"4":{"ha":852,"x_min":35,"x_max":812,"o":"m 623 951 l 623 339 l 812 339 l 812 260 l 623 260 l 623 77 l 762 39 l 762 0 l 361 0 l 361 42 l 491 76 l 491 260 l 35 260 l 35 327 l 491 951 l 623 951 m 491 823 l 129 342 l 491 342 l 491 823 z "},"5":{"ha":845,"x_min":77,"x_max":806,"o":"m 138 945 l 652 947 l 666 997 l 719 997 l 694 831 l 221 831 l 221 560 q 271 595 245 581 q 323 621 297 610 q 407 642 365 637 q 488 646 449 647 q 576 633 533 644 q 654 601 618 621 q 720 551 690 581 q 770 486 750 522 q 797 417 788 454 q 806 340 806 380 q 795 253 804 293 q 772 180 787 213 q 713 92 749 129 q 636 33 678 56 q 581 8 609 18 q 524 -8 552 -1 q 467 -18 495 -15 q 415 -22 439 -22 q 336 -16 378 -23 q 255 3 294 -9 q 183 35 217 16 q 125 80 149 54 q 93 124 106 100 q 79 175 80 148 q 84 208 77 191 q 103 239 91 225 q 132 264 115 254 q 164 277 148 274 q 192 273 179 279 q 214 256 205 267 q 233 233 225 245 q 247 209 241 221 q 249 192 251 201 q 243 174 247 183 q 237 157 240 165 q 233 140 233 148 q 245 104 235 119 q 270 77 255 88 q 298 60 282 66 q 330 48 313 53 q 361 41 346 43 q 389 41 377 39 q 439 45 412 41 q 494 60 467 49 q 549 90 522 71 q 598 141 576 109 q 633 216 618 171 q 650 321 647 260 q 648 361 651 340 q 637 401 644 381 q 621 441 631 422 q 597 477 610 460 q 563 514 582 498 q 522 543 544 530 q 474 561 499 555 q 420 567 449 567 q 346 554 384 566 q 274 522 308 543 q 227 484 248 506 q 193 435 206 463 l 138 435 l 138 945 z "},"6":{"ha":856,"x_min":58,"x_max":815,"o":"m 621 829 q 619 846 623 838 q 609 860 616 853 q 593 872 602 867 q 572 882 583 878 q 549 889 562 886 q 526 894 537 892 q 503 897 514 895 q 481 898 491 898 q 403 889 438 899 q 342 860 368 879 q 296 814 315 841 q 263 755 277 787 q 241 691 250 726 q 228 621 233 656 q 220 551 222 586 q 218 487 218 517 q 279 540 248 517 q 345 578 311 563 q 410 601 377 593 q 475 608 442 609 q 542 602 510 608 q 602 587 574 597 q 669 556 639 575 q 724 514 700 537 q 762 469 745 492 q 790 418 779 445 q 808 364 802 392 q 815 308 814 336 q 806 236 815 271 q 777 168 796 201 q 739 116 761 141 q 692 69 718 91 q 633 30 665 47 q 570 1 602 12 q 504 -15 537 -9 q 439 -19 471 -20 q 327 -1 377 -15 q 239 37 277 14 q 177 85 203 58 q 130 144 151 111 q 96 216 110 178 q 73 295 81 254 q 62 379 65 336 q 60 465 58 422 q 65 549 60 506 q 81 636 71 593 q 109 720 91 680 q 151 798 126 761 q 212 870 176 837 q 293 926 247 903 q 382 959 334 947 q 491 971 431 971 q 535 969 511 972 q 583 960 559 966 q 631 945 608 954 q 677 925 655 936 q 717 899 699 913 q 749 868 735 884 q 770 833 762 852 q 780 793 779 814 q 773 767 780 780 q 755 745 766 754 q 732 728 746 734 q 707 723 719 722 q 671 734 688 724 q 643 761 655 745 q 625 794 631 776 q 621 829 618 812 m 446 43 q 480 47 463 43 q 515 56 498 50 q 550 72 533 62 q 582 95 567 81 q 612 126 598 109 q 635 166 625 144 q 653 215 646 189 q 662 273 661 241 q 661 334 665 305 q 647 387 656 362 q 624 432 637 411 q 594 469 610 453 q 560 498 578 486 q 524 519 543 511 q 487 530 505 526 q 453 532 469 533 q 418 527 437 530 q 380 517 400 524 q 342 503 361 511 q 305 480 323 494 q 274 448 289 467 q 248 406 259 430 q 232 350 237 381 q 228 279 227 319 q 235 210 228 240 q 252 155 241 179 q 277 114 263 132 q 307 84 290 96 q 340 64 323 72 q 376 52 358 56 q 412 45 395 47 q 446 43 430 43 z "},"7":{"ha":856,"x_min":71,"x_max":815,"o":"m 815 947 l 815 861 q 774 817 793 840 q 736 773 754 795 q 667 681 699 727 q 633 630 650 655 q 602 578 617 605 q 574 526 587 552 q 548 473 560 500 q 524 415 536 445 q 500 355 511 385 q 481 297 490 327 q 464 237 472 267 q 450 178 456 208 q 438 118 444 148 q 430 59 434 88 q 425 0 426 30 l 243 0 q 254 58 248 28 q 269 114 260 87 q 284 171 275 142 q 304 227 293 199 q 328 288 315 258 q 357 349 342 319 q 387 410 370 380 q 420 468 403 439 q 454 522 437 495 q 488 574 471 548 q 526 625 507 600 q 566 675 545 651 q 631 753 597 715 q 665 791 647 772 q 700 829 682 810 l 161 829 l 141 745 l 71 745 l 126 947 l 815 947 z "},"8":{"ha":848,"x_min":58,"x_max":808,"o":"m 564 536 q 652 498 609 519 q 728 445 694 476 q 784 374 762 415 q 807 281 806 334 q 801 221 808 251 q 779 163 793 191 q 743 111 765 136 q 694 64 722 85 q 637 25 669 42 q 572 -3 606 8 q 500 -20 537 -15 q 426 -24 464 -26 q 273 -1 339 -22 q 160 56 206 19 q 88 139 114 91 q 60 243 62 187 q 62 283 58 263 q 75 323 66 304 q 98 361 84 343 q 127 397 111 380 q 163 429 144 414 q 202 456 182 444 q 245 477 222 468 q 290 491 267 486 q 236 513 259 502 q 195 537 213 525 q 165 562 178 549 q 144 587 153 575 q 130 614 136 601 q 121 642 125 628 q 115 672 117 656 q 110 704 113 688 q 111 743 107 722 q 123 785 114 764 q 148 829 133 807 q 184 872 163 852 q 233 911 206 892 q 294 942 260 929 q 368 962 328 955 q 454 970 408 970 q 504 966 477 970 q 556 956 530 963 q 608 937 582 948 q 656 913 633 926 q 700 882 680 899 q 736 844 720 864 q 761 800 751 823 q 773 751 770 777 q 770 710 774 730 q 758 672 766 690 q 736 637 749 654 q 707 606 723 621 q 673 580 690 591 q 637 559 655 568 q 600 543 618 549 q 564 536 582 537 m 486 557 q 503 558 492 556 q 527 565 514 560 q 554 578 540 570 q 582 600 568 587 q 608 625 595 610 q 629 658 620 640 q 644 696 639 675 q 650 738 650 716 q 636 810 650 779 q 597 864 623 842 q 535 898 571 886 q 454 913 499 910 q 413 911 434 914 q 372 901 392 907 q 334 885 353 895 q 298 863 315 875 q 269 836 282 850 q 246 806 255 822 q 233 773 237 791 q 229 738 228 755 q 238 702 231 719 q 258 670 245 685 q 286 642 270 655 q 320 618 301 629 q 358 600 338 609 q 400 583 378 590 q 444 569 422 575 q 486 557 465 563 m 355 463 q 330 460 345 465 q 300 446 315 456 q 269 422 285 437 q 239 391 254 408 q 212 355 224 374 q 191 316 199 336 q 178 277 183 296 q 176 240 174 258 q 187 189 179 212 q 207 146 195 165 q 234 111 218 126 q 267 83 250 95 q 305 61 285 71 q 346 46 326 52 q 387 37 366 41 q 429 34 408 34 q 534 50 487 33 q 613 95 581 66 q 666 159 647 123 q 688 233 685 195 q 681 282 689 259 q 657 324 673 305 q 621 360 642 343 q 574 391 600 377 q 520 415 548 404 q 464 435 492 426 q 408 450 435 444 q 355 463 380 457 z "},"9":{"ha":831,"x_min":50,"x_max":792,"o":"m 400 415 q 500 433 458 418 q 571 479 543 449 q 614 552 600 507 q 631 656 628 597 q 620 761 633 715 q 578 838 606 807 q 509 887 551 869 q 412 906 467 905 q 361 902 385 907 q 317 886 338 897 q 280 859 297 875 q 250 826 263 844 q 226 789 236 808 q 209 749 216 769 q 199 709 202 728 q 195 671 195 689 q 197 634 195 655 q 205 591 199 613 q 219 548 210 570 q 240 506 228 526 q 267 469 251 487 q 302 439 282 452 q 347 420 323 427 q 400 415 372 414 m 419 967 q 473 964 446 967 q 528 956 500 962 q 581 939 555 949 q 632 911 608 928 q 686 865 661 892 q 731 802 712 838 q 757 747 746 777 q 776 684 768 718 q 788 597 784 644 q 792 498 792 551 q 784 383 791 435 q 766 288 777 331 q 741 207 755 243 q 707 142 726 171 q 671 94 690 115 q 630 55 651 72 q 587 26 609 38 q 541 4 564 14 q 461 -16 502 -9 q 384 -22 420 -22 q 357 -20 373 -22 q 321 -15 340 -19 q 282 -5 302 -11 q 241 5 262 0 q 202 22 221 14 q 166 41 183 31 q 136 63 149 52 q 117 88 123 75 q 102 118 109 102 q 94 151 95 134 q 98 182 92 167 q 119 205 103 197 q 146 215 132 213 q 176 214 161 217 q 204 204 191 212 q 227 183 217 197 q 239 158 236 170 q 243 136 243 146 q 242 115 243 125 q 243 98 241 106 q 247 87 243 92 q 258 78 251 83 q 275 68 266 73 q 295 60 285 64 q 317 54 305 57 q 340 47 328 50 q 361 43 351 45 q 381 41 372 42 q 452 43 419 35 q 513 71 486 52 q 562 117 540 90 q 600 179 583 145 q 627 253 616 213 q 644 334 639 293 q 648 412 648 373 q 643 484 648 450 q 596 425 624 452 q 536 378 568 397 q 456 347 498 357 q 374 339 415 336 q 309 347 343 340 q 243 368 275 354 q 193 391 217 377 q 146 423 168 404 q 106 466 125 442 q 75 519 87 490 q 56 578 62 547 q 50 647 50 609 q 55 701 50 674 q 71 754 60 728 q 95 804 80 780 q 129 850 110 829 q 191 903 156 879 q 270 941 227 926 q 340 960 302 954 q 419 967 377 967 z "},"":{"ha":1389,"x_min":1,"x_max":974,"o":"m 488 -1 q 390 8 438 -1 q 298 36 342 18 q 216 81 255 54 q 144 141 176 107 q 85 213 111 174 q 39 296 58 252 q 11 387 20 339 q 1 484 1 434 q 12 582 1 534 q 40 673 22 629 q 85 756 58 718 q 144 829 111 795 q 216 888 178 861 q 298 932 255 914 q 390 961 342 951 q 488 971 438 971 q 586 961 538 971 q 677 932 633 951 q 760 888 720 914 q 831 829 799 861 q 890 756 864 795 q 936 673 917 718 q 964 582 955 629 q 974 484 974 534 q 964 387 974 434 q 935 296 954 339 q 890 213 917 252 q 831 141 864 174 q 759 81 798 107 q 677 36 720 54 q 586 8 633 18 q 488 -1 538 -1 m 488 119 q 561 127 525 119 q 629 148 597 134 q 692 182 662 161 q 746 227 722 202 q 790 280 770 251 q 824 342 810 309 q 846 411 838 376 q 853 484 853 446 l 487 481 l 488 849 q 414 842 450 849 q 346 821 378 834 q 284 787 313 807 q 229 742 255 768 q 185 688 205 718 q 151 627 165 659 q 130 558 137 594 q 122 484 122 522 l 487 487 l 488 119 z "}," ":{"ha":434,"x_min":0,"x_max":0,"o":""},"A":{"ha":1040,"x_min":-49,"x_max":991,"o":"m 439 823 l 289 416 l 598 416 l 439 823 m 538 947 l 883 71 l 991 42 l 991 0 l 605 0 l 605 45 l 728 77 l 620 354 l 267 354 l 171 81 l 319 42 l 319 0 l -49 0 l -49 41 l 68 72 l 410 947 l 538 947 z "},"B":{"ha":1016,"x_min":38,"x_max":968,"o":"m 38 947 l 642 947 q 709 939 674 947 q 774 918 743 932 q 823 895 800 909 q 864 863 845 880 q 906 801 892 836 q 920 731 920 766 q 912 669 921 700 q 888 614 903 639 q 853 577 875 591 q 807 553 831 563 q 764 537 787 544 q 723 524 742 530 q 778 510 750 518 q 831 491 806 502 q 889 456 863 476 q 933 408 916 435 q 953 370 945 391 q 964 328 960 350 q 968 283 967 307 q 964 237 968 260 q 956 198 962 217 q 943 161 951 179 q 924 127 935 142 q 901 99 913 111 q 876 79 890 88 q 846 61 861 69 q 812 46 830 53 q 777 33 795 39 q 720 17 749 23 q 668 7 692 11 q 629 1 644 3 q 608 0 613 0 l 42 0 l 42 42 l 164 75 l 164 875 l 38 907 l 38 947 m 571 544 q 599 546 583 544 q 631 553 614 548 q 665 563 648 557 q 696 575 681 568 q 732 602 716 585 q 759 642 749 620 q 773 688 769 663 q 773 738 777 713 q 761 779 768 758 q 741 816 754 799 q 707 846 727 833 q 658 869 688 860 q 552 892 606 886 q 442 894 498 898 q 372 883 399 891 q 332 863 346 875 q 313 835 317 850 q 308 803 308 819 l 308 544 l 571 544 m 529 486 l 308 486 l 308 184 q 311 143 308 163 q 323 109 315 123 q 347 85 332 95 q 385 72 362 76 q 449 65 416 68 q 513 61 481 62 q 576 64 545 61 q 637 73 608 66 q 702 96 674 83 q 750 129 730 110 q 780 165 768 145 q 802 208 792 184 q 814 260 811 232 q 812 317 817 289 q 800 372 810 346 q 774 419 789 399 q 751 443 765 433 q 722 460 738 453 q 689 471 707 467 q 655 479 671 476 q 622 483 640 481 q 585 485 604 484 q 551 486 567 486 q 529 486 536 486 z "},"C":{"ha":1023,"x_min":56,"x_max":975,"o":"m 541 -24 q 475 -19 509 -24 q 407 -3 441 -14 q 340 22 373 7 q 277 57 307 38 q 187 131 228 90 q 117 224 146 172 q 72 332 88 274 q 57 453 56 389 q 68 569 57 513 q 100 675 80 625 q 168 793 127 739 q 260 886 209 846 q 382 951 316 928 q 521 974 448 974 q 562 972 540 974 q 605 966 583 970 q 649 956 627 962 q 692 941 671 949 q 726 926 709 935 q 757 909 743 918 q 781 890 770 901 q 799 869 792 880 l 834 935 l 876 935 l 943 602 l 891 602 q 877 632 884 616 q 862 666 869 648 q 846 702 854 684 q 826 739 837 720 q 772 804 806 772 q 693 868 738 837 q 665 882 680 876 q 632 892 650 888 q 595 899 614 897 q 557 901 576 901 q 519 899 538 901 q 484 895 500 898 q 452 888 467 892 q 425 880 437 884 q 356 839 388 867 q 300 776 324 811 q 259 696 275 739 q 237 610 243 652 q 229 500 231 557 q 235 388 228 444 q 247 321 239 354 q 267 256 255 288 q 297 196 279 225 q 336 141 315 167 q 402 90 363 110 q 484 58 441 69 q 571 47 526 47 q 656 54 616 46 q 698 65 677 57 q 739 84 719 73 q 777 109 758 95 q 812 138 795 123 q 867 196 842 165 q 906 256 891 227 l 975 224 q 899 121 945 165 q 799 46 853 77 q 736 15 769 28 q 671 -7 704 1 q 606 -20 639 -15 q 541 -24 574 -24 z "},"D":{"ha":1092,"x_min":38,"x_max":1040,"o":"m 518 947 q 630 939 572 947 q 741 913 688 930 q 826 873 785 897 q 901 817 867 849 q 943 765 924 795 q 979 703 963 735 q 1005 642 994 673 q 1024 581 1016 610 q 1036 523 1032 552 q 1040 464 1039 494 q 1036 405 1040 434 q 1024 347 1032 376 q 1002 282 1015 315 q 972 218 989 250 q 934 161 955 189 q 886 114 913 134 q 831 78 860 95 q 773 47 803 61 q 669 12 723 24 q 563 0 616 0 l 42 0 l 42 41 l 159 72 l 159 872 l 38 905 l 38 947 l 518 947 m 305 779 l 305 186 q 309 138 305 159 q 320 104 313 118 q 352 71 332 80 q 395 60 372 61 q 448 57 422 58 q 500 56 475 56 q 572 64 534 57 q 652 88 609 71 q 726 132 694 106 q 783 189 758 157 q 825 258 807 221 q 856 332 844 294 q 873 409 868 369 q 876 488 878 449 q 866 578 875 533 q 842 666 857 624 q 819 720 834 693 q 783 769 803 746 q 739 810 762 792 q 692 841 716 829 q 623 868 659 857 q 551 884 587 879 q 475 890 513 890 q 401 886 438 890 q 366 878 382 883 q 338 863 350 872 q 313 831 321 852 q 305 779 305 810 z "},"E":{"ha":1019,"x_min":41,"x_max":971,"o":"m 834 948 l 925 696 l 883 684 q 838 735 863 711 q 787 781 814 760 q 730 819 760 802 q 669 850 700 837 q 592 877 632 867 q 511 890 552 887 q 447 891 479 892 q 384 884 415 890 q 351 871 366 880 q 327 848 336 861 q 312 820 317 836 q 307 788 307 804 l 307 540 l 534 540 l 576 715 l 628 715 l 628 300 l 581 300 l 533 475 l 307 475 l 307 174 q 313 140 307 157 q 330 110 320 123 q 355 85 340 95 q 387 72 370 75 q 451 64 419 66 q 515 62 483 61 q 597 75 556 65 q 677 102 637 84 q 751 144 713 118 q 825 203 788 170 q 876 256 850 228 q 925 317 901 285 l 971 300 l 846 1 l 46 1 l 46 43 l 164 75 l 164 872 l 41 906 l 41 948 l 834 948 z "},"F":{"ha":971,"x_min":41,"x_max":925,"o":"m 834 948 l 925 696 l 883 684 q 838 735 863 711 q 787 781 814 760 q 730 819 760 802 q 669 850 700 837 q 592 877 632 867 q 511 890 552 887 q 447 891 479 892 q 384 884 415 890 q 351 871 366 880 q 327 848 336 861 q 312 820 317 836 q 307 788 307 804 l 307 540 l 534 540 l 576 715 l 628 715 l 628 300 l 581 300 l 533 475 l 307 475 l 307 77 l 439 39 l 439 1 l 46 1 l 46 43 l 164 75 l 164 872 l 41 906 l 41 948 l 834 948 z "},"G":{"ha":1130,"x_min":60,"x_max":1077,"o":"m 944 652 l 887 637 q 842 707 868 673 q 787 770 817 741 q 715 833 753 806 q 637 876 677 860 q 573 894 606 888 q 508 897 540 899 q 446 886 476 895 q 391 860 416 876 q 339 817 362 842 q 298 762 316 792 q 264 692 278 728 q 240 618 250 655 q 226 535 231 578 q 222 449 221 492 q 231 363 224 406 q 252 282 239 321 q 279 224 263 254 q 316 170 296 195 q 374 111 342 137 q 444 69 407 84 q 520 52 479 54 q 604 56 562 49 q 677 77 642 62 q 747 113 713 92 q 781 141 766 125 q 805 178 795 157 q 823 222 815 198 q 834 273 830 245 l 834 372 l 693 410 l 693 449 l 1077 449 l 1077 411 l 959 380 l 959 0 l 891 0 l 846 91 q 819 74 833 83 q 791 57 804 65 q 743 30 766 43 q 693 5 719 16 q 605 -16 650 -9 q 515 -19 560 -22 q 403 -1 458 -16 q 297 37 347 15 q 232 78 262 53 q 178 134 202 103 q 133 200 153 165 q 96 270 113 235 q 75 330 83 298 q 64 393 68 361 q 60 467 60 430 q 65 540 61 505 q 85 635 71 589 q 121 723 99 682 q 182 810 146 770 q 262 882 217 850 q 341 927 298 907 q 427 958 384 947 q 513 969 471 967 q 597 964 556 971 q 646 951 623 959 q 693 935 670 944 q 741 913 716 925 q 791 886 765 901 l 819 945 l 856 945 l 944 652 z "},"H":{"ha":1115,"x_min":46,"x_max":1062,"o":"m 431 945 l 431 910 l 302 876 l 302 540 l 795 540 l 795 872 l 675 905 l 675 945 l 1061 945 l 1061 902 l 933 868 l 933 75 l 1062 41 l 1062 0 l 674 0 l 674 42 l 796 75 l 796 483 l 302 483 l 302 77 l 431 43 l 431 0 l 49 0 l 49 41 l 163 72 l 163 869 l 46 901 l 46 945 l 431 945 z "},"I":{"ha":475,"x_min":38,"x_max":416,"o":"m 416 948 l 416 909 l 296 876 l 296 73 l 414 41 l 414 0 l 42 0 l 42 43 l 155 73 l 155 878 l 38 909 l 38 948 l 416 948 z "},"J":{"ha":822,"x_min":-31,"x_max":784,"o":"m 784 945 l 783 910 l 662 879 l 662 275 q 650 185 662 229 q 610 103 637 141 q 559 51 590 75 q 487 11 528 27 q 422 -7 456 0 q 354 -18 388 -15 q 286 -18 320 -20 q 220 -9 252 -16 q 175 3 198 -4 q 130 19 152 9 q 88 42 109 30 q 50 69 68 54 q 14 107 28 85 q -8 152 0 129 q -23 201 -18 176 q -30 251 -28 227 q -28 284 -31 267 q -17 317 -24 301 q 1 347 -9 332 q 23 370 11 361 q 46 382 33 377 q 73 387 60 387 q 100 383 87 387 q 119 370 113 380 q 137 347 130 359 q 145 319 144 334 q 142 288 146 304 q 126 255 138 271 q 112 236 119 245 q 98 216 104 227 q 87 196 91 206 q 87 175 84 186 q 111 125 92 148 q 155 87 130 103 q 209 62 180 72 q 262 50 237 53 q 305 48 283 49 q 349 50 327 47 q 390 58 370 52 q 426 75 410 64 q 448 96 438 83 q 467 125 458 110 q 483 159 476 141 q 495 194 490 176 q 505 227 500 212 q 513 256 510 243 q 517 277 515 269 q 518 288 518 286 l 518 875 l 399 906 l 399 945 l 784 945 z "},"K":{"ha":1084,"x_min":37,"x_max":1032,"o":"m 450 945 l 450 914 l 308 876 l 308 473 l 728 864 l 583 903 l 583 948 l 972 948 l 972 905 l 853 872 l 581 625 l 914 69 l 1032 38 l 1032 0 l 618 0 l 618 46 l 750 81 l 472 537 l 307 385 l 307 76 l 439 41 l 450 0 l 37 0 l 37 39 l 160 72 l 160 876 l 38 909 l 38 945 l 450 945 z "},"L":{"ha":882,"x_min":39,"x_max":868,"o":"m 426 945 l 425 914 l 302 880 l 302 153 q 308 108 302 125 q 323 81 313 91 q 345 68 332 72 q 372 60 357 64 q 429 53 399 53 q 491 60 460 53 q 555 79 522 66 q 618 109 587 91 q 680 148 650 126 q 736 195 709 170 q 787 251 764 221 q 829 312 811 281 l 868 297 l 757 0 l 39 0 l 39 46 l 156 77 l 156 879 l 41 909 l 41 945 l 426 945 z "},"M":{"ha":1293,"x_min":33,"x_max":1232,"o":"m 1229 948 l 1229 910 l 1111 879 l 1111 73 l 1232 41 l 1232 0 l 853 0 l 853 41 l 971 72 l 971 854 l 623 0 l 563 0 l 240 867 l 240 79 l 381 41 l 381 0 l 33 0 l 33 41 l 165 76 l 165 871 l 33 906 l 33 945 l 362 945 l 629 239 l 920 948 l 1229 948 z "},"N":{"ha":1046,"x_min":33,"x_max":997,"o":"m 335 948 l 796 197 l 796 869 l 659 906 l 659 945 l 997 945 l 997 903 l 875 869 l 875 -3 l 750 -3 l 233 838 l 233 79 l 372 41 l 372 0 l 33 0 l 33 41 l 156 73 l 156 869 l 33 903 l 33 948 l 335 948 z "},"O":{"ha":1096,"x_min":53,"x_max":1044,"o":"m 544 41 q 623 50 586 41 q 690 76 659 58 q 749 118 722 94 q 796 174 776 142 q 834 239 818 203 q 861 314 850 275 q 878 395 872 353 q 883 480 883 437 q 878 564 883 522 q 862 643 872 605 q 836 715 852 681 q 799 779 819 750 q 753 831 779 807 q 697 871 727 854 q 633 895 667 887 q 559 903 598 903 q 420 871 483 902 q 315 787 358 841 q 246 660 270 734 q 222 498 222 586 q 227 411 222 454 q 242 328 232 368 q 267 251 252 288 q 301 183 281 214 q 345 125 320 151 q 401 81 370 99 q 467 52 431 62 q 544 41 503 42 m 560 -28 q 460 -18 509 -28 q 366 8 411 -8 q 279 54 320 27 q 203 114 239 81 q 142 188 170 148 q 94 273 114 228 q 64 366 75 317 q 53 467 53 415 q 62 568 53 518 q 90 662 72 617 q 134 749 107 708 q 193 823 160 789 q 264 886 225 859 q 347 933 304 913 q 441 963 392 952 q 544 974 491 974 q 647 964 597 974 q 742 935 697 954 q 827 890 787 917 q 901 830 868 863 q 961 757 935 796 q 1006 673 987 718 q 1035 581 1025 629 q 1044 479 1044 532 q 1035 378 1044 427 q 1008 283 1025 328 q 963 197 989 237 q 905 121 937 156 q 833 58 872 85 q 751 11 795 30 q 660 -18 708 -8 q 560 -28 612 -28 z "},"P":{"ha":891,"x_min":37,"x_max":849,"o":"m 525 944 q 580 941 552 944 q 633 932 608 939 q 686 916 661 926 q 735 892 712 906 q 766 871 751 884 q 795 844 781 859 q 820 808 808 827 q 838 768 831 788 q 847 727 845 749 q 849 684 849 705 q 846 640 849 662 q 838 598 842 618 q 829 569 834 583 q 815 543 823 555 q 797 518 807 529 q 774 499 787 507 q 731 471 753 486 q 686 446 709 457 q 623 423 655 431 q 557 415 590 415 l 301 415 l 301 83 l 445 43 l 445 0 l 42 0 l 42 41 l 159 72 l 159 869 l 37 902 l 37 944 l 525 944 m 514 467 q 570 474 541 467 q 623 498 598 481 q 665 538 647 514 q 693 598 684 563 q 704 648 700 621 q 706 702 708 675 q 697 753 704 728 q 677 799 690 779 q 645 832 663 817 q 605 859 627 848 q 561 878 583 871 q 518 888 538 886 q 481 892 499 890 q 444 894 463 894 q 406 892 425 894 q 369 886 388 891 q 348 878 359 883 q 326 867 336 873 q 309 852 316 861 q 302 831 302 844 l 302 467 l 514 467 z "},"Q":{"ha":1118,"x_min":58,"x_max":1065,"o":"m 1046 608 q 1055 558 1050 585 q 1062 503 1059 532 q 1064 444 1065 473 q 1058 388 1063 415 q 1036 307 1050 349 q 1001 227 1021 264 q 966 174 985 198 q 926 133 948 149 q 956 100 944 117 q 974 67 967 84 q 983 34 981 50 q 985 1 986 18 q 981 -31 985 -15 q 971 -62 977 -47 q 958 -92 966 -77 q 943 -121 951 -107 q 896 -172 925 -151 q 833 -208 867 -193 q 764 -231 799 -222 q 700 -244 728 -240 q 641 -253 671 -250 q 580 -258 610 -256 q 519 -258 549 -259 q 458 -252 488 -256 q 391 -240 425 -247 q 323 -224 357 -233 q 259 -201 290 -214 q 201 -167 228 -187 q 174 -142 186 -157 q 156 -110 163 -127 q 148 -74 149 -92 q 155 -39 146 -56 q 174 -20 160 -27 q 203 -12 187 -14 q 237 -14 220 -9 q 266 -24 254 -18 q 284 -43 278 -31 q 294 -71 290 -56 q 298 -101 297 -85 q 304 -133 300 -117 q 316 -145 305 -138 q 342 -159 327 -152 q 374 -171 357 -165 q 404 -179 391 -176 q 462 -189 433 -184 q 520 -195 491 -193 q 578 -197 549 -198 q 635 -191 606 -197 q 692 -176 663 -184 q 747 -155 720 -167 q 797 -125 773 -142 q 838 -87 821 -109 q 848 -69 844 -79 q 856 -49 853 -60 q 860 -26 859 -38 q 861 -4 861 -15 q 860 18 861 7 q 856 37 859 28 q 848 51 853 45 q 838 60 844 57 q 789 31 818 45 q 726 6 760 16 q 656 -10 692 -4 q 589 -16 621 -16 q 509 -12 549 -16 q 429 1 468 -8 q 354 25 391 9 q 285 62 317 41 q 216 119 250 88 q 156 187 183 151 q 109 262 129 222 q 77 345 88 302 q 62 431 66 387 q 61 521 58 476 q 78 621 65 572 q 115 712 91 670 q 171 789 140 753 q 240 857 202 826 q 331 919 282 892 q 431 959 380 945 q 498 971 464 967 q 566 975 532 975 q 635 971 601 975 q 700 959 669 967 q 779 932 736 949 q 863 887 821 916 q 928 833 897 864 q 986 761 960 802 q 1022 690 1006 728 q 1046 608 1038 652 m 543 213 q 585 221 566 217 q 621 228 604 225 q 656 231 639 231 q 692 231 673 232 q 755 221 720 229 q 836 195 789 213 q 863 260 852 225 q 882 332 875 294 q 893 408 890 369 q 897 488 897 448 q 882 623 897 557 q 838 741 867 688 q 791 812 818 780 q 729 865 764 844 q 654 899 694 887 q 566 909 613 910 q 495 899 529 907 q 431 875 461 890 q 375 839 401 860 q 327 792 349 818 q 283 727 302 762 q 250 652 263 692 q 231 570 237 613 q 224 480 224 526 q 227 408 224 444 q 238 338 231 372 q 256 273 245 304 q 282 213 267 241 q 322 153 300 180 q 373 104 345 126 q 435 68 401 83 q 507 47 468 54 q 482 71 492 60 q 467 94 472 83 q 460 115 461 104 q 460 136 458 126 q 473 165 463 152 q 495 189 483 179 q 520 205 507 199 q 543 213 533 212 m 785 119 q 753 132 768 127 q 724 141 738 137 q 697 147 711 145 q 669 151 684 149 q 640 151 655 151 q 610 149 625 151 q 581 142 595 146 q 552 132 566 138 q 532 115 538 125 q 526 96 526 106 q 532 77 526 85 q 547 65 537 68 q 585 54 564 57 q 626 52 605 52 q 668 57 647 53 q 708 69 689 61 q 728 77 719 73 q 747 87 738 81 q 765 100 755 92 q 785 119 774 107 z "},"R":{"ha":1099,"x_min":38,"x_max":1047,"o":"m 614 948 q 623 948 616 948 q 641 947 631 948 q 665 944 651 945 q 693 940 678 943 q 724 935 708 937 q 753 927 739 932 q 781 918 768 922 q 804 906 795 913 q 841 880 823 895 q 873 846 859 864 q 897 808 887 829 q 911 766 907 788 q 916 710 916 739 q 910 652 916 681 q 894 597 905 624 q 865 549 883 571 q 825 514 848 529 q 775 489 802 499 q 721 473 749 479 q 666 461 693 467 l 944 69 l 1047 41 l 1047 0 l 817 0 l 505 446 l 313 446 l 313 76 l 444 41 l 444 0 l 42 0 l 42 39 l 175 75 l 175 860 l 38 897 l 38 948 l 614 948 m 560 506 q 614 512 586 506 q 669 530 643 518 q 717 559 696 541 q 750 600 738 576 q 763 629 757 613 q 773 660 769 644 q 779 692 777 675 q 780 726 781 709 q 774 760 779 743 q 760 791 769 776 q 737 821 751 807 q 704 848 723 836 q 631 880 670 869 q 552 892 593 890 q 471 893 511 895 q 391 884 430 891 q 360 877 374 883 q 336 863 346 871 q 320 844 326 854 q 315 821 315 833 l 315 506 l 560 506 z "},"S":{"ha":884,"x_min":39,"x_max":875,"o":"m 807 704 l 769 685 l 662 804 q 610 842 635 825 q 562 873 586 860 q 503 898 533 888 q 435 909 472 907 q 373 905 404 910 q 315 888 342 899 q 264 859 286 876 q 231 817 243 841 q 217 761 217 785 q 225 717 217 736 q 248 683 233 697 q 277 658 262 669 q 346 621 309 635 q 420 597 382 606 q 509 577 464 586 q 597 557 553 568 q 673 535 636 547 q 741 507 709 524 q 798 469 772 491 q 842 418 823 448 q 867 357 860 391 q 875 292 875 324 q 867 229 875 259 q 850 175 860 198 q 809 111 833 140 q 757 61 785 83 q 689 20 724 37 q 620 -5 654 4 q 559 -18 589 -15 q 500 -22 529 -22 q 442 -17 472 -20 q 381 -9 412 -14 q 331 4 357 -5 q 279 26 305 14 q 241 46 260 35 q 205 66 222 57 l 186 1 l 127 1 l 39 321 l 90 330 q 130 264 109 296 q 175 202 152 232 q 227 146 199 172 q 289 98 255 119 q 357 64 323 76 q 426 47 392 52 q 492 45 460 43 q 553 52 524 46 q 616 72 587 57 q 666 106 644 87 q 705 150 689 126 q 727 198 720 174 q 736 260 736 232 q 728 311 736 289 q 703 351 719 334 q 666 380 686 369 q 592 410 629 397 q 517 431 555 422 q 439 448 477 441 q 362 465 400 456 q 281 490 321 475 q 208 522 241 505 q 147 563 174 541 q 109 608 121 585 q 86 667 92 636 q 80 728 80 699 q 95 806 81 769 q 132 871 109 842 q 193 924 159 903 q 264 956 227 945 q 354 972 308 970 q 446 971 400 974 q 503 962 476 968 q 555 947 530 956 q 606 928 581 939 q 658 905 631 917 l 673 951 l 723 951 l 807 704 z "},"T":{"ha":951,"x_min":-52,"x_max":906,"o":"m 830 949 l 906 705 l 857 690 q 824 743 842 716 q 784 792 806 769 q 736 834 762 815 q 682 867 711 853 q 625 886 655 879 q 562 895 595 894 q 533 893 545 895 q 513 885 521 891 q 500 869 505 879 q 496 842 496 859 l 496 84 l 647 45 l 647 1 l 218 1 l 218 43 l 358 81 l 358 840 q 354 865 358 854 q 343 882 350 876 q 328 892 336 888 q 309 895 319 895 q 251 890 279 895 q 195 876 222 886 q 123 838 157 861 q 62 787 90 815 q 26 739 42 764 q 0 686 9 713 l -52 703 l 28 949 l 830 949 z "},"U":{"ha":1093,"x_min":31,"x_max":1042,"o":"m 439 954 l 439 911 l 302 873 l 302 250 q 310 200 302 225 q 331 152 317 175 q 363 111 345 129 q 403 84 381 94 q 485 60 442 68 q 571 50 528 52 q 657 58 614 50 q 738 84 700 66 q 783 117 764 95 q 814 165 802 140 q 833 222 827 194 q 840 277 840 251 l 840 875 l 705 910 l 705 949 l 1042 949 l 1042 906 l 918 873 l 918 221 q 906 154 918 184 q 873 99 894 123 q 840 64 859 80 q 803 31 822 47 q 770 13 788 20 q 734 1 753 5 q 697 -7 716 -4 q 659 -12 678 -9 q 604 -18 632 -16 q 547 -19 575 -20 q 496 -17 521 -19 q 446 -12 471 -15 q 374 1 410 -8 q 307 28 338 11 q 271 52 288 39 q 239 79 254 65 q 212 107 224 92 q 190 138 199 122 q 171 186 178 161 q 164 240 164 212 l 164 875 l 31 910 l 31 954 l 439 954 z "},"V":{"ha":1054,"x_min":-37,"x_max":1004,"o":"m 370 954 l 370 906 l 236 869 l 507 155 l 787 871 l 637 910 l 637 949 l 1004 949 l 1004 913 l 879 880 l 519 1 l 431 1 l 76 880 l -37 910 l -37 954 l 370 954 z "},"W":{"ha":1431,"x_min":-34,"x_max":1363,"o":"m 1363 949 l 1363 918 l 1256 888 l 936 1 l 852 1 l 650 608 l 446 1 l 368 1 l 61 882 l -34 907 l -34 951 l 339 951 l 339 913 l 224 883 l 449 201 l 610 720 l 549 878 l 449 905 l 449 949 l 834 949 l 834 907 l 718 876 l 940 197 l 1156 867 l 1016 905 l 1016 949 l 1363 949 z "},"X":{"ha":1097,"x_min":-34,"x_max":1046,"o":"m 453 910 l 315 873 l 544 574 l 765 872 l 635 907 l 635 954 l 1009 954 l 1009 907 l 869 871 l 576 525 l 905 85 l 1046 47 l 1046 1 l 594 1 l 594 43 l 742 84 l 476 439 l 195 88 l 349 47 l 349 1 l -34 1 l -34 46 l 102 83 l 431 494 l 140 876 l 23 907 l 23 954 l 452 954 l 453 910 z "},"Y":{"ha":922,"x_min":-41,"x_max":920,"o":"m 346 954 l 346 911 l 216 876 l 461 484 l 708 875 l 583 909 l 583 954 l 920 954 l 920 906 l 793 872 l 488 393 l 488 87 l 635 47 l 635 1 l 202 1 l 202 42 l 349 81 l 349 396 l 54 882 l -41 907 l -41 954 l 346 954 z "},"Z":{"ha":958,"x_min":-15,"x_max":913,"o":"m 906 949 l 214 77 q 267 71 241 73 q 319 65 293 68 q 369 61 345 62 q 418 60 393 60 q 465 60 441 60 q 510 64 488 61 q 597 79 556 68 q 644 93 621 84 q 689 113 667 102 q 731 138 711 125 q 769 170 751 152 q 823 231 799 195 q 846 267 834 247 q 867 308 857 286 l 913 292 l 808 1 l -15 1 l 674 876 q 632 883 652 880 q 593 887 612 886 q 555 891 574 890 q 518 892 536 892 q 475 892 496 892 q 434 890 454 891 q 397 884 415 887 q 361 876 378 880 q 278 844 316 864 q 241 821 259 834 q 205 795 222 808 q 153 745 179 772 q 102 684 127 716 l 56 703 l 160 949 l 906 949 z "},"a":{"ha":827,"x_min":46,"x_max":788,"o":"m 518 392 l 518 521 q 504 566 518 545 q 467 600 490 586 q 416 622 445 614 q 359 629 388 629 q 334 627 349 629 q 304 622 319 625 q 275 614 289 618 q 248 604 260 610 q 220 582 231 594 q 213 555 210 570 q 212 519 214 537 q 203 486 210 502 q 182 461 195 471 q 145 453 168 452 q 136 454 141 453 q 125 456 132 454 q 113 461 119 458 q 100 468 106 464 q 90 478 95 472 q 83 492 85 484 q 80 510 80 500 q 83 532 80 519 q 97 568 87 551 q 122 600 107 585 q 162 633 140 618 q 208 654 184 647 q 283 672 244 665 q 362 681 323 680 q 441 680 401 684 q 517 663 480 675 q 566 642 541 655 q 609 609 590 628 q 640 564 628 590 q 652 506 652 538 l 652 79 l 788 42 l 788 0 l 598 0 l 518 87 q 458 47 486 64 q 407 20 431 31 q 363 4 384 9 q 321 -4 342 -1 q 277 -7 300 -7 q 229 -5 255 -8 q 174 4 203 -4 q 119 27 145 12 q 76 62 95 42 q 52 109 57 83 q 49 152 46 129 q 58 197 52 175 q 70 223 64 210 q 83 247 76 236 q 99 267 91 258 q 117 281 107 275 q 212 332 161 311 q 315 366 262 353 q 415 385 363 378 q 518 392 467 391 m 517 343 q 479 340 499 342 q 438 336 458 339 q 396 330 418 334 q 354 321 374 327 q 315 309 334 316 q 279 293 297 302 q 247 273 262 283 q 220 247 232 262 q 203 220 210 235 q 193 192 195 206 q 190 163 190 178 q 194 134 190 148 q 206 107 198 119 q 226 85 214 95 q 253 69 237 76 q 288 61 269 62 q 355 62 323 57 q 422 84 388 68 q 467 111 444 95 q 517 148 491 127 l 517 343 z "},"b":{"ha":841,"x_min":-3,"x_max":802,"o":"m 250 509 l 250 130 q 257 121 250 127 q 278 106 264 115 q 310 88 292 98 q 349 71 328 79 q 387 58 368 64 q 425 51 406 53 q 463 50 445 49 q 498 60 481 52 q 528 74 513 66 q 556 90 543 81 q 582 110 570 99 q 605 134 594 121 q 635 190 623 157 q 656 270 648 222 q 659 353 662 309 q 646 438 656 396 q 612 522 635 483 q 557 589 590 562 q 519 613 540 605 q 475 624 498 621 q 431 624 453 627 q 389 614 410 621 q 346 596 366 608 q 308 572 326 585 q 283 553 294 563 q 265 535 273 544 q 254 519 258 526 q 250 509 250 513 m 252 1000 l 252 589 q 281 620 264 606 q 317 644 297 633 q 357 663 336 655 q 401 677 378 671 q 454 684 427 682 q 509 685 481 686 q 561 679 536 684 q 609 666 586 674 q 682 620 648 650 q 739 551 715 590 q 780 469 765 513 q 799 381 795 425 q 801 327 802 355 q 796 270 800 298 q 784 214 792 241 q 764 161 776 187 q 744 130 755 145 q 719 100 732 114 q 691 73 705 85 q 662 47 677 60 q 607 14 637 26 q 543 -1 576 1 q 475 -7 510 -7 q 408 -5 441 -8 q 359 5 382 -4 q 313 27 336 14 q 277 49 296 37 q 237 72 258 61 l 195 0 l 119 0 l 119 911 l -3 911 l -3 949 l 186 1000 l 252 1000 z "},"c":{"ha":722,"x_min":52,"x_max":688,"o":"m 688 145 q 673 119 682 132 q 653 94 665 106 q 627 70 642 81 q 598 47 613 58 q 562 25 581 35 q 525 7 544 15 q 488 -4 506 0 q 453 -9 469 -8 q 385 -11 420 -12 q 315 -3 350 -9 q 262 9 288 0 q 216 31 237 18 q 164 69 189 47 q 119 117 140 91 q 85 172 99 142 q 64 231 71 201 q 54 292 57 260 q 52 357 52 324 q 56 406 53 381 q 65 454 60 431 q 81 503 72 480 q 103 548 91 526 q 159 614 126 589 q 231 656 193 640 q 314 681 271 673 q 400 688 357 689 q 467 680 433 686 q 532 659 500 674 q 586 631 560 647 q 632 594 612 614 q 659 555 650 578 q 667 510 667 533 q 662 476 667 492 q 646 448 656 460 q 618 430 633 434 q 589 429 604 426 q 563 439 575 431 q 544 454 551 446 q 532 480 536 468 q 530 504 529 492 q 532 526 530 515 q 536 544 534 536 q 532 563 537 552 q 519 584 528 574 q 501 603 511 594 q 483 617 491 612 q 451 629 468 625 q 418 634 434 633 q 386 633 401 635 q 357 629 370 632 q 308 612 330 627 q 270 576 286 597 q 240 525 252 553 q 221 465 228 496 q 210 394 213 430 q 206 327 206 358 q 212 259 208 290 q 227 202 217 228 q 260 130 239 160 q 309 80 282 100 q 369 52 336 61 q 435 41 401 42 q 474 43 456 39 q 509 53 492 46 q 541 68 525 60 q 570 88 556 77 q 595 110 583 99 q 617 132 608 121 q 635 152 627 142 q 648 170 643 161 l 688 145 z "},"d":{"ha":859,"x_min":52,"x_max":818,"o":"m 723 997 l 722 66 l 818 41 l 818 0 l 586 0 l 586 88 q 567 74 579 85 q 538 50 555 62 q 505 24 524 37 q 468 5 487 11 q 398 -9 433 -5 q 331 -11 363 -14 q 266 1 297 -8 q 205 24 235 9 q 157 59 179 38 q 118 106 136 80 q 87 159 100 132 q 65 216 75 187 q 58 246 61 229 q 54 283 56 263 q 52 327 52 304 q 54 373 52 350 q 62 422 57 397 q 75 469 66 446 q 95 515 83 492 q 122 557 107 537 q 168 606 144 585 q 218 642 191 627 q 295 671 254 662 q 389 681 336 681 q 449 674 420 681 q 506 655 477 667 q 547 635 526 647 q 590 612 568 624 l 590 895 l 465 895 l 465 944 l 662 997 l 723 997 m 586 155 l 586 541 q 528 581 556 566 q 472 605 499 597 q 384 613 426 618 q 300 589 342 608 q 254 549 274 576 q 221 484 235 522 q 203 413 210 452 q 197 336 197 374 q 200 272 197 304 q 212 210 203 240 q 227 167 218 187 q 247 130 236 146 q 277 94 259 110 q 317 66 296 77 q 364 51 339 56 q 415 49 389 46 q 501 79 457 54 q 586 155 545 104 z "},"e":{"ha":716,"x_min":50,"x_max":682,"o":"m 198 401 q 195 365 195 385 q 195 321 194 345 q 197 287 195 305 q 203 251 199 269 q 215 210 208 229 q 232 174 222 190 q 256 141 243 157 q 282 110 269 125 q 315 83 297 95 q 354 64 332 72 q 402 51 376 54 q 460 50 429 47 q 488 56 473 52 q 518 68 503 61 q 547 84 533 75 q 574 103 560 94 q 612 141 595 121 q 632 178 628 161 l 677 156 q 661 119 673 137 q 632 84 650 100 q 579 43 609 61 q 514 12 549 24 q 440 -6 479 0 q 363 -9 401 -12 q 294 2 330 -8 q 228 30 259 12 q 174 66 199 45 q 127 114 148 88 q 100 153 113 132 q 80 198 88 174 q 64 248 71 222 q 54 297 58 273 q 52 367 50 332 q 61 434 54 401 q 85 504 69 471 q 122 566 100 537 q 159 607 138 589 q 205 639 180 625 q 256 663 229 654 q 311 678 283 673 q 368 684 339 684 q 425 682 397 685 q 483 671 454 680 q 536 650 511 663 q 578 623 559 639 q 614 586 598 606 q 645 541 632 564 q 666 492 658 518 q 678 448 674 471 q 681 401 682 425 l 198 401 m 205 458 l 532 458 q 529 498 533 477 q 517 540 525 519 q 496 577 509 560 q 467 604 483 594 q 422 625 445 617 q 376 632 400 632 q 328 625 353 632 q 281 602 304 617 q 250 573 264 590 q 224 537 235 556 q 208 498 213 518 q 205 458 202 477 z "},"f":{"ha":543,"x_min":24,"x_max":574,"o":"m 24 41 l 142 76 l 142 628 l 24 628 l 24 675 l 141 675 l 141 791 q 149 838 141 814 q 170 882 156 861 q 197 920 180 902 q 235 954 214 937 q 267 975 250 964 q 302 993 285 985 q 334 1005 317 1000 q 368 1013 351 1010 q 399 1019 382 1017 q 433 1020 415 1020 q 462 1019 448 1020 q 490 1013 476 1017 q 517 1006 503 1010 q 541 994 530 1001 q 561 978 553 987 q 571 958 568 968 q 573 937 574 947 q 568 918 572 926 q 562 908 566 911 q 553 901 557 905 q 543 895 548 898 q 533 890 537 892 q 516 883 525 884 q 500 882 507 882 q 486 885 492 883 q 476 890 480 887 q 446 916 458 905 q 427 935 433 928 q 411 951 419 945 q 394 958 403 956 q 376 960 385 960 q 358 959 368 960 q 331 948 345 956 q 307 928 317 940 q 286 896 293 913 q 278 861 278 879 l 278 675 l 418 675 l 418 628 l 278 628 l 278 76 l 396 45 l 396 0 l 24 0 l 24 41 z "},"g":{"ha":776,"x_min":19,"x_max":739,"o":"m 193 245 q 177 262 187 254 q 155 279 167 270 q 134 298 144 288 q 119 320 125 308 q 101 372 109 345 q 91 426 94 399 q 92 479 88 453 q 106 530 95 506 q 134 578 117 555 q 174 621 152 602 q 228 659 199 643 q 288 681 256 675 q 339 687 312 686 q 393 686 366 688 q 445 679 419 684 q 494 669 471 674 l 559 766 l 715 724 l 715 674 l 564 674 l 538 652 q 558 639 548 648 q 578 617 568 629 q 598 591 589 605 q 616 566 608 578 q 631 530 624 549 q 643 489 639 510 q 647 446 647 468 q 644 406 647 425 q 623 344 637 372 q 589 293 609 316 q 544 254 568 271 q 494 225 519 237 q 431 208 464 212 q 363 205 397 203 q 297 212 330 206 q 235 225 264 217 q 195 203 209 216 q 175 176 180 190 q 172 153 171 164 q 177 134 172 142 q 190 118 182 125 q 206 109 198 111 q 297 92 251 98 q 388 83 343 87 q 493 71 441 77 q 598 53 545 65 q 642 39 620 47 q 682 16 663 30 q 715 -16 701 3 q 734 -61 728 -35 q 736 -118 739 -88 q 724 -176 734 -148 q 701 -222 715 -201 q 667 -258 686 -243 q 611 -292 642 -278 q 548 -316 581 -307 q 461 -333 506 -328 q 374 -339 416 -338 q 277 -332 326 -339 q 180 -309 228 -324 q 125 -289 152 -301 q 73 -262 98 -277 q 47 -235 58 -251 q 28 -199 35 -218 q 20 -159 22 -179 q 24 -121 19 -138 q 49 -79 33 -98 q 87 -47 65 -61 q 122 -27 103 -37 q 160 -9 141 -18 q 140 2 151 -1 q 121 9 130 5 q 104 16 113 12 q 91 28 96 20 q 77 53 84 39 q 64 80 69 66 q 59 108 60 94 q 64 134 58 122 q 84 170 72 153 q 111 202 96 187 q 146 228 126 217 q 193 245 167 239 m 378 252 q 414 262 397 258 q 442 271 430 266 q 465 282 454 275 q 481 298 475 289 q 495 319 490 307 q 505 349 500 332 q 513 388 510 366 q 519 439 517 410 q 522 492 524 468 q 514 536 519 517 q 499 572 509 556 q 477 601 490 589 q 452 622 465 613 q 423 636 438 631 q 393 644 408 642 q 363 647 378 647 q 310 632 335 647 q 264 591 285 617 q 233 531 245 566 q 218 457 221 496 q 219 416 217 437 q 226 376 221 396 q 238 339 231 357 q 256 305 245 321 q 279 278 266 290 q 307 259 292 266 q 340 250 323 252 q 378 252 358 248 m 218 -27 q 199 -31 210 -27 q 178 -42 189 -35 q 157 -58 168 -49 q 138 -77 146 -66 q 122 -100 129 -88 q 111 -123 115 -111 q 105 -146 106 -134 q 107 -168 104 -159 q 138 -227 118 -203 q 172 -253 152 -241 q 217 -273 191 -264 q 254 -281 235 -277 q 297 -288 274 -285 q 357 -292 326 -290 q 419 -290 388 -293 q 476 -284 448 -289 q 530 -271 505 -279 q 574 -253 553 -263 q 613 -229 595 -243 q 630 -213 623 -222 q 642 -192 637 -203 q 649 -168 647 -180 q 648 -142 651 -155 q 638 -115 647 -129 q 617 -92 629 -102 q 587 -78 609 -85 q 526 -64 564 -71 q 477 -56 505 -60 q 416 -49 449 -53 q 368 -42 393 -46 q 316 -34 342 -38 q 263 -28 289 -31 q 218 -27 237 -26 z "},"h":{"ha":930,"x_min":31,"x_max":887,"o":"m 283 997 l 283 574 q 307 592 296 582 q 330 612 319 602 q 355 629 342 621 q 381 643 368 637 q 434 661 407 652 q 488 677 461 670 q 559 688 524 685 q 629 684 594 690 q 652 676 640 681 q 676 665 663 671 q 701 649 689 658 q 724 631 712 640 q 744 610 735 621 q 760 589 753 600 q 770 568 766 579 q 774 548 774 557 l 774 75 l 887 43 l 887 0 l 519 0 l 519 39 l 640 72 l 640 526 q 631 563 640 547 q 606 591 621 579 q 573 609 591 602 q 538 617 555 616 q 492 614 518 618 q 438 601 465 610 q 395 585 416 594 q 355 566 374 575 q 328 549 340 557 q 305 531 315 540 q 290 515 296 522 q 285 500 285 507 l 285 73 l 393 43 l 393 0 l 31 0 l 31 41 l 153 73 l 153 906 l 33 906 l 33 945 l 225 997 l 283 997 z "},"i":{"ha":415,"x_min":31,"x_max":396,"o":"m 281 673 l 281 71 l 396 41 l 396 0 l 31 0 l 31 39 l 149 72 l 149 591 l 33 591 l 33 647 l 281 673 m 218 742 q 185 749 201 742 q 159 766 170 755 q 141 793 148 777 q 134 826 134 808 q 141 859 134 844 q 159 884 148 873 q 186 903 171 897 q 218 910 201 910 q 251 903 236 910 q 278 884 266 897 q 296 859 289 873 q 302 826 302 844 q 296 793 302 808 q 278 766 289 777 q 251 749 266 755 q 218 742 236 742 z "},"j":{"ha":271,"x_min":-151,"x_max":297,"o":"m 279 684 l 281 -94 q 273 -155 281 -125 q 258 -194 267 -175 q 237 -231 248 -213 q 210 -262 225 -247 q 179 -290 195 -278 q 140 -314 160 -304 q 98 -331 119 -324 q 64 -340 83 -336 q 27 -345 46 -343 q -10 -345 8 -346 q -46 -342 -28 -345 q -87 -333 -68 -339 q -117 -317 -106 -327 q -137 -298 -127 -309 q -149 -273 -146 -286 q -148 -252 -151 -263 q -137 -228 -145 -240 q -126 -218 -133 -222 q -111 -210 -119 -213 q -94 -208 -103 -208 q -73 -210 -84 -208 q -50 -223 -62 -214 q -24 -247 -38 -232 q 4 -271 -9 -263 q 30 -282 18 -279 q 59 -281 45 -285 q 87 -273 73 -278 q 107 -257 98 -267 q 123 -235 117 -247 q 133 -214 129 -225 q 140 -193 137 -203 q 144 -172 142 -182 q 145 -153 145 -161 l 146 600 l 18 600 l 18 643 l 225 677 l 279 684 m 213 741 q 180 747 195 741 q 153 765 164 754 q 136 791 142 776 q 129 825 129 807 q 136 857 129 841 q 153 883 142 872 q 180 902 164 895 q 213 909 195 909 q 245 902 231 909 q 273 883 260 895 q 290 857 283 872 q 297 825 297 841 q 290 791 297 807 q 273 765 283 776 q 245 747 260 753 q 213 741 231 741 z "},"k":{"ha":909,"x_min":26,"x_max":867,"o":"m 282 997 l 282 355 l 555 606 l 452 633 l 452 674 l 825 674 l 825 639 l 651 591 l 490 452 l 747 77 l 867 45 l 867 0 l 492 0 l 492 47 l 593 73 l 393 366 l 283 269 l 283 73 l 399 42 l 399 0 l 26 0 l 26 42 l 149 75 l 149 901 l 28 901 l 28 943 l 228 997 l 282 997 z "},"l":{"ha":416,"x_min":27,"x_max":397,"o":"m 282 997 l 283 73 l 397 45 l 397 0 l 28 0 l 28 42 l 146 73 l 146 897 l 27 897 l 27 941 l 232 997 l 282 997 z "},"m":{"ha":1318,"x_min":23,"x_max":1283,"o":"m 278 673 l 278 581 q 355 637 313 613 q 410 663 381 652 q 469 680 439 673 q 535 686 502 685 q 602 682 568 688 q 644 669 625 678 q 680 644 663 659 q 704 616 692 632 q 728 581 716 601 q 761 604 745 593 q 793 625 777 616 q 848 652 821 640 q 903 671 875 663 q 972 684 937 681 q 1042 682 1006 686 q 1092 664 1067 680 q 1137 627 1116 648 q 1167 578 1156 605 q 1179 526 1179 552 l 1179 68 l 1283 39 l 1283 0 l 932 0 l 932 41 l 1043 71 l 1043 507 q 1038 532 1043 517 q 1024 560 1034 547 q 1004 588 1016 575 q 978 606 991 601 q 939 614 960 614 q 897 610 918 614 q 850 596 873 605 q 807 576 827 587 q 774 559 789 568 q 749 543 760 551 q 732 530 738 536 q 726 524 726 525 l 726 72 l 837 42 l 837 0 l 484 0 l 484 41 l 595 71 l 595 500 q 595 511 595 505 q 592 525 594 517 q 587 541 590 533 q 581 559 585 549 q 563 585 574 572 q 536 604 552 597 q 500 613 519 612 q 458 612 480 614 q 411 599 435 608 q 365 581 387 590 q 332 564 347 572 q 304 547 316 555 q 286 535 293 540 q 279 529 279 530 l 279 69 l 391 39 l 391 0 l 38 0 l 38 41 l 144 69 l 144 562 l 23 562 l 23 616 l 236 673 l 278 673 z "},"n":{"ha":910,"x_min":27,"x_max":899,"o":"m 281 673 l 281 567 q 315 597 297 583 q 354 623 334 610 q 395 645 374 635 q 439 663 416 655 q 479 675 458 670 q 521 684 500 681 q 581 686 551 688 q 637 677 610 685 q 666 668 651 674 q 694 654 681 662 q 722 636 708 646 q 746 616 735 627 q 773 576 762 598 q 784 530 784 555 l 784 72 l 899 41 l 899 0 l 530 0 l 530 39 l 646 71 l 646 503 q 639 538 646 521 q 618 571 632 556 q 591 596 606 585 q 557 613 575 608 q 518 617 540 618 q 475 609 496 616 q 429 593 452 604 q 385 572 407 583 q 345 549 363 562 q 312 528 326 537 q 290 512 298 518 q 282 505 282 506 l 282 72 l 399 41 l 399 0 l 33 0 l 33 39 l 148 71 l 148 578 l 27 578 l 27 618 l 232 673 l 281 673 z "},"o":{"ha":765,"x_min":49,"x_max":730,"o":"m 388 39 q 424 43 406 39 q 460 56 442 47 q 494 77 477 64 q 524 107 510 90 q 549 148 537 125 q 568 199 560 171 q 581 262 576 228 q 585 338 585 297 q 565 477 582 420 q 521 568 548 533 q 460 619 495 604 q 391 635 426 635 q 355 631 373 635 q 319 621 336 628 q 287 603 302 614 q 258 575 271 591 q 231 536 243 559 q 212 486 220 514 q 198 422 203 457 q 193 345 193 388 q 195 267 191 302 q 208 201 199 231 q 227 148 216 171 q 252 107 239 125 q 283 77 267 90 q 317 56 300 64 q 352 43 334 47 q 388 39 370 39 m 388 -9 q 319 -5 353 -9 q 255 11 286 0 q 198 40 225 23 q 148 79 171 57 q 106 128 125 100 q 75 190 88 156 q 56 261 62 222 q 49 343 49 300 q 56 425 49 387 q 77 495 64 463 q 108 553 90 526 q 149 602 126 581 q 199 640 172 624 q 256 666 227 655 q 319 682 286 677 q 388 688 353 688 q 456 682 423 688 q 521 665 490 677 q 578 637 551 654 q 628 600 605 621 q 670 551 651 578 q 701 491 689 524 q 722 421 715 458 q 730 340 728 384 q 723 260 730 298 q 703 190 716 222 q 671 130 690 157 q 629 79 652 102 q 579 40 606 57 q 521 12 552 23 q 456 -5 490 0 q 388 -9 423 -9 z "},"p":{"ha":846,"x_min":24,"x_max":807,"o":"m 283 671 l 283 583 q 317 617 298 601 q 358 646 336 633 q 401 667 378 658 q 448 681 423 675 q 500 686 473 685 q 556 681 528 686 q 609 667 582 677 q 662 640 636 656 q 696 614 680 629 q 726 583 712 600 q 755 541 742 563 q 777 494 768 518 q 792 447 785 471 q 802 399 799 423 q 807 337 807 368 q 802 278 807 307 q 787 221 796 247 q 769 172 779 195 q 747 132 760 151 q 723 99 735 114 q 686 63 705 79 q 647 37 666 47 q 602 14 624 23 q 562 0 581 5 q 520 -9 541 -7 q 477 -11 499 -12 q 434 -5 456 -9 q 391 4 412 -1 q 334 26 362 14 q 282 53 307 38 l 282 -237 l 412 -273 l 412 -313 l 31 -313 l 31 -273 l 148 -241 l 148 576 l 24 576 l 24 617 l 229 671 l 283 671 m 281 510 l 281 316 l 281 123 q 286 116 281 121 q 303 104 292 111 q 330 89 315 96 q 362 75 345 81 q 400 62 380 68 q 442 56 420 57 q 486 57 464 54 q 529 69 509 60 q 591 113 566 84 q 633 182 617 142 q 656 264 650 220 q 659 351 662 308 q 644 463 655 418 q 613 538 632 509 q 568 586 594 568 q 507 614 541 604 q 472 619 491 620 q 434 614 453 618 q 396 600 415 609 q 361 582 377 591 q 328 562 343 572 q 303 541 313 551 q 287 522 293 530 q 281 510 281 514 z "},"r":{"ha":647,"x_min":27,"x_max":617,"o":"m 148 578 l 27 578 l 27 618 l 228 673 l 283 673 l 283 571 q 305 589 294 581 q 326 608 316 598 q 354 631 339 620 q 384 651 369 643 q 422 668 403 661 q 461 681 441 675 q 500 686 480 685 q 540 685 519 688 q 578 674 563 681 q 602 658 593 667 q 615 630 613 646 q 616 600 617 614 q 605 568 614 581 q 582 549 595 556 q 558 541 571 544 q 533 540 545 538 q 509 545 521 541 q 490 553 498 548 q 463 569 475 563 q 442 579 452 575 q 418 584 430 583 q 391 582 406 585 q 361 570 376 578 q 332 552 346 562 q 307 530 319 541 q 283 509 294 518 l 283 73 l 408 41 l 408 0 l 31 0 l 31 41 l 148 72 l 148 578 z "},"s":{"ha":707,"x_min":56,"x_max":674,"o":"m 621 461 l 578 461 q 568 484 574 472 q 555 506 562 495 q 541 527 548 517 q 525 545 533 537 q 481 581 505 566 q 433 608 458 597 q 374 624 404 618 q 315 628 345 629 q 256 617 281 627 q 216 593 231 608 q 195 553 199 575 q 201 509 191 532 q 227 476 209 490 q 267 453 244 463 q 317 437 290 444 q 373 426 345 431 q 431 414 403 420 q 484 399 460 408 q 507 392 492 396 q 541 381 522 388 q 579 364 559 374 q 618 339 600 354 q 655 294 640 321 q 673 231 670 267 q 665 157 674 189 q 637 102 655 125 q 595 59 620 77 q 540 24 570 41 q 488 4 517 11 q 430 -5 458 -3 q 363 -7 396 -8 q 304 -1 331 -5 q 267 7 285 0 q 232 22 250 14 q 197 39 214 30 q 163 56 180 49 l 145 0 l 100 0 l 56 247 l 103 247 q 120 202 110 222 q 144 164 130 182 q 189 117 164 137 q 241 83 214 96 q 308 57 274 66 q 373 47 342 47 q 420 50 395 46 q 471 61 446 53 q 496 73 484 66 q 519 87 509 79 q 536 105 529 95 q 547 127 544 115 q 553 170 553 149 q 543 209 553 190 q 507 242 532 227 q 439 269 483 258 q 395 279 418 274 q 347 291 372 285 q 299 304 323 297 q 252 317 275 311 q 207 334 228 326 q 167 352 186 342 q 132 374 148 362 q 106 401 117 387 q 81 446 88 422 q 75 496 73 471 q 84 541 76 518 q 107 585 92 564 q 149 629 125 610 q 201 659 172 647 q 267 680 232 673 q 338 686 301 686 q 391 681 363 686 q 445 667 419 675 q 488 648 468 659 q 526 625 509 637 l 540 671 l 578 671 l 621 461 z "},"t":{"ha":566,"x_min":31,"x_max":540,"o":"m 277 930 l 277 674 l 476 674 l 476 627 l 277 627 l 277 161 q 282 125 277 144 q 297 91 288 107 q 316 68 305 77 q 339 54 327 58 q 376 47 357 47 q 412 52 395 47 q 440 62 426 56 q 468 79 454 69 q 487 95 477 87 q 506 111 496 103 l 540 83 q 528 66 534 73 q 515 53 521 58 q 492 33 505 41 q 464 19 479 26 q 431 5 448 11 q 395 -3 414 0 q 354 -8 374 -7 q 313 -8 334 -9 q 279 -3 296 -7 q 247 4 263 0 q 227 11 237 7 q 209 20 217 15 q 191 33 199 26 q 175 46 182 39 q 152 81 160 62 q 141 134 141 107 l 141 627 l 31 627 l 31 671 q 75 677 54 671 q 113 693 96 684 q 144 718 130 704 q 168 750 157 732 q 191 797 182 772 q 206 849 201 822 q 212 890 210 869 q 214 930 214 911 l 277 930 z "},"u":{"ha":948,"x_min":27,"x_max":903,"o":"m 283 674 l 283 180 q 286 152 283 167 q 292 123 288 137 q 308 91 297 106 q 334 69 319 76 q 378 58 355 61 q 425 57 401 56 q 472 66 449 60 q 517 83 495 73 q 559 104 538 92 q 601 129 581 115 q 630 150 616 138 q 656 174 644 161 l 656 581 l 538 581 l 538 618 l 745 674 l 791 674 l 791 72 l 903 42 l 903 0 l 655 0 l 655 113 q 632 94 644 103 q 606 76 620 85 q 580 56 594 65 q 552 38 566 46 q 516 20 534 28 q 479 5 498 11 q 439 -3 460 0 q 399 -8 419 -5 q 353 -9 376 -9 q 308 -5 330 -8 q 270 3 289 -1 q 235 16 251 8 q 212 31 222 22 q 193 50 201 39 q 176 73 183 60 q 164 99 170 85 q 154 131 157 114 q 151 164 151 148 l 151 585 l 27 585 l 27 620 l 232 674 l 283 674 z "},"v":{"ha":774,"x_min":-33,"x_max":738,"o":"m 304 675 l 304 633 l 202 606 l 381 122 l 555 605 l 446 635 l 446 673 l 738 673 l 738 633 l 640 608 l 382 0 l 302 0 l 56 610 l -33 635 l -33 675 l 304 675 z "},"w":{"ha":1165,"x_min":-26,"x_max":1111,"o":"m 307 673 l 307 633 l 202 605 l 372 133 l 517 475 l 469 608 l 378 632 l 378 673 l 686 673 l 686 633 l 595 609 l 760 137 l 936 597 l 803 632 l 803 673 l 1111 673 l 1111 632 l 1015 606 l 773 0 l 685 0 l 547 393 l 374 0 l 285 0 l 73 608 l -26 635 l -26 673 l 307 673 z "},"x":{"ha":834,"x_min":-23,"x_max":795,"o":"m 359 633 l 255 605 l 400 426 l 570 605 l 480 629 l 480 674 l 772 674 l 772 635 l 636 600 l 434 381 l 678 73 l 795 42 l 795 0 l 414 0 l 414 41 l 533 72 l 355 296 l 157 79 l 285 43 l 285 0 l -23 0 l -23 39 l 61 62 l 315 343 l 102 609 l 14 633 l 14 674 l 359 674 l 359 633 z "},"y":{"ha":787,"x_min":-30,"x_max":750,"o":"m 298 674 l 298 633 l 201 606 l 393 129 l 571 601 l 452 633 l 452 675 l 750 675 l 750 632 l 654 606 l 374 -58 l 293 -214 q 263 -255 282 -236 q 221 -288 244 -274 q 173 -311 198 -302 q 122 -321 148 -320 q 84 -322 104 -323 q 45 -317 64 -321 q 11 -302 26 -312 q -12 -275 -4 -292 q -22 -241 -22 -258 q -17 -210 -23 -224 q 0 -185 -11 -195 q 26 -171 11 -175 q 69 -176 49 -165 q 114 -216 90 -187 q 132 -231 122 -225 q 151 -239 141 -236 q 170 -242 160 -241 q 187 -241 179 -243 q 203 -236 195 -239 q 218 -229 212 -233 q 229 -221 224 -225 q 235 -213 233 -217 l 326 -46 l 61 606 l -30 631 l -30 674 l 298 674 z "},"z":{"ha":693,"x_min":-23,"x_max":661,"o":"m 659 671 l 176 61 q 236 47 206 53 q 296 42 266 42 q 368 47 332 41 q 438 66 404 53 q 500 98 471 79 q 555 142 530 117 q 591 186 575 163 q 620 236 606 209 l 661 222 l 581 0 l -23 0 l 456 618 q 399 630 427 627 q 345 633 372 633 q 282 627 313 633 q 224 609 251 620 q 171 580 195 597 q 125 540 146 563 q 96 501 110 522 q 75 456 83 480 l 30 469 l 109 671 l 659 671 z "},"q":{"ha":814,"x_min":43,"x_max":818,"o":"m 612 661 l 690 661 l 689 -237 l 818 -273 l 818 -313 l 437 -313 l 437 -273 l 568 -237 l 568 53 q 516 26 544 38 q 458 4 488 14 q 415 -5 437 -1 q 372 -11 393 -9 q 329 -9 350 -12 q 288 0 308 -7 q 247 14 269 5 q 203 37 225 23 q 164 63 183 47 q 127 99 145 79 q 102 132 114 114 q 80 172 91 151 q 62 221 71 195 q 49 278 54 247 q 43 337 43 307 q 47 399 43 368 q 57 447 50 423 q 73 494 64 471 q 96 541 83 518 q 123 583 109 563 q 153 614 137 600 q 187 640 170 629 q 240 667 213 656 q 293 681 267 677 q 349 686 321 686 q 401 681 376 685 q 448 667 426 675 q 491 646 471 658 q 532 617 513 633 q 566 583 551 601 l 612 661 m 570 510 q 564 522 570 514 q 547 541 557 530 q 521 562 536 551 q 490 582 506 572 q 453 600 472 591 q 415 614 434 609 q 377 619 396 618 q 342 614 358 620 q 281 586 308 604 q 236 538 255 568 q 207 463 218 509 q 190 351 195 418 q 193 264 187 308 q 216 182 199 220 q 258 113 232 142 q 320 69 283 84 q 363 57 340 60 q 407 56 385 54 q 449 62 429 57 q 487 75 469 68 q 521 89 506 81 q 547 104 536 96 q 564 116 557 111 q 570 123 570 121 l 570 316 l 570 510 z "},"!":{"ha":311,"x_min":100,"x_max":297,"o":"m 225 231 l 174 231 q 172 269 172 250 q 171 308 172 289 q 168 359 170 334 q 164 410 167 384 q 159 464 163 437 q 152 518 156 491 q 143 566 148 543 q 133 613 138 590 q 121 669 127 640 q 110 724 114 697 q 103 781 106 753 q 102 837 100 808 q 105 879 102 857 q 114 921 109 901 q 131 946 118 935 q 160 964 144 958 q 195 972 176 970 q 232 968 214 974 q 260 952 247 963 q 279 924 273 941 q 290 882 286 903 q 296 838 294 860 q 295 789 297 814 q 290 739 293 764 q 279 675 285 707 q 267 613 273 643 q 258 566 263 590 q 251 519 254 543 q 241 462 245 491 q 233 404 237 433 q 229 356 231 380 q 227 307 227 332 q 225 269 225 288 q 225 231 225 250 m 203 -9 q 168 -3 184 -9 q 140 15 152 3 q 120 44 127 27 q 113 79 113 61 q 120 114 113 98 q 140 142 127 130 q 168 161 152 155 q 203 168 184 168 q 237 161 221 168 q 266 142 254 155 q 286 114 278 130 q 293 79 293 98 q 286 44 293 61 q 266 15 278 27 q 237 -3 254 3 q 203 -9 221 -9 z "},"#":{"ha":807,"x_min":85,"x_max":769,"o":"m 674 947 l 633 663 l 769 663 l 769 581 l 621 581 l 594 387 l 734 387 l 734 312 l 582 312 l 538 0 l 458 0 l 499 312 l 313 312 l 269 0 l 186 0 l 231 312 l 85 312 l 85 389 l 248 389 l 278 576 l 121 576 l 121 663 l 286 663 l 328 949 l 411 949 l 366 663 l 551 663 l 594 947 l 674 947 m 538 576 l 354 576 l 328 389 l 511 389 l 538 576 z "},"$":{"ha":861,"x_min":42,"x_max":821,"o":"m 460 1099 l 460 933 q 498 928 479 932 q 537 921 518 925 q 581 907 559 914 q 625 890 604 899 q 662 871 644 882 q 697 850 680 861 q 728 824 713 840 q 753 791 743 808 q 770 745 765 769 q 768 699 774 722 q 751 669 764 684 q 724 644 739 654 q 705 636 715 639 q 684 633 694 633 q 663 637 673 633 q 642 650 652 642 q 623 674 629 659 q 613 707 616 689 q 608 745 609 726 q 606 781 608 765 q 595 812 605 798 q 571 837 586 826 q 545 853 559 846 q 515 865 530 860 q 486 871 500 869 q 460 872 472 872 l 460 555 q 479 551 469 553 q 500 548 490 549 q 521 545 510 547 q 543 541 532 543 q 616 524 579 534 q 686 499 652 514 q 747 464 719 486 q 793 414 774 442 q 811 376 804 396 q 819 334 818 355 q 815 274 821 305 q 798 214 810 243 q 773 172 787 193 q 742 136 760 152 q 712 111 728 123 q 677 88 696 99 q 642 70 661 79 q 605 54 624 61 q 569 42 587 47 q 534 34 551 37 q 494 28 513 30 q 460 30 476 27 l 460 -144 l 404 -144 l 404 26 q 362 31 384 28 q 319 37 340 34 q 271 46 294 41 q 225 58 247 52 q 181 74 202 65 q 141 94 160 83 q 101 124 121 106 q 68 164 81 142 q 48 212 54 187 q 46 264 42 237 q 59 297 50 281 q 81 327 68 313 q 116 349 96 340 q 157 353 136 357 q 185 342 171 350 q 210 321 199 334 q 227 293 221 309 q 229 256 232 277 q 225 224 228 241 q 221 189 222 206 q 225 157 221 172 q 240 130 229 141 q 278 105 258 114 q 321 91 298 96 q 361 85 340 87 q 400 81 381 83 l 400 423 q 327 438 361 431 q 264 453 293 445 q 212 469 236 460 q 168 491 189 479 q 127 522 146 505 q 92 562 109 538 q 73 600 80 579 q 65 644 66 621 q 66 691 62 667 q 77 736 69 715 q 93 775 83 757 q 115 808 103 793 q 156 849 134 831 q 202 882 178 867 q 262 907 229 897 q 332 924 294 918 q 367 928 349 926 q 404 932 385 930 l 404 1099 l 460 1099 m 406 875 q 359 869 382 873 q 316 859 336 865 q 275 842 294 852 q 239 817 255 831 q 211 777 220 800 q 203 727 202 753 q 211 682 203 704 q 232 642 218 661 q 269 609 248 623 q 313 586 289 595 q 358 572 335 578 q 404 564 381 567 l 406 875 m 464 412 l 464 83 q 515 89 488 84 q 567 102 541 94 q 616 125 593 111 q 655 160 639 140 q 668 180 662 170 q 679 204 674 191 q 686 231 684 217 q 688 258 688 244 q 677 310 688 285 q 642 353 667 335 q 598 377 621 368 q 551 393 575 387 q 508 404 530 400 q 464 412 486 408 z "},"%":{"ha":1274,"x_min":27,"x_max":1214,"o":"m 266 422 q 317 438 293 422 q 358 487 340 454 q 385 568 376 519 q 393 682 395 617 q 382 793 392 747 q 354 869 372 840 q 315 911 338 898 q 266 925 292 925 q 216 911 240 925 q 174 869 193 898 q 143 791 155 840 q 132 673 132 743 q 141 554 130 602 q 171 477 152 506 q 215 435 190 448 q 266 422 240 422 m 264 376 q 209 382 235 376 q 161 402 183 389 q 121 433 140 415 q 87 472 102 450 q 61 519 72 494 q 42 572 50 545 q 31 627 34 600 q 27 684 27 655 q 31 740 27 712 q 43 793 35 768 q 64 841 52 818 q 91 883 76 864 q 125 918 106 902 q 165 946 144 935 q 212 964 187 958 q 262 971 236 970 q 313 966 289 971 q 359 949 338 960 q 398 921 380 937 q 431 884 416 905 q 458 842 446 865 q 477 792 469 818 q 490 739 486 766 q 494 682 494 711 q 490 625 494 654 q 480 570 487 597 q 463 519 473 544 q 438 473 452 495 q 406 434 423 452 q 366 404 388 416 q 319 383 345 391 q 264 376 293 376 m 986 31 q 1036 47 1012 31 q 1077 95 1059 62 q 1105 176 1095 127 q 1114 290 1115 225 q 1101 401 1112 355 q 1074 477 1090 448 q 1034 519 1057 506 q 986 533 1012 533 q 936 520 960 533 q 892 477 911 507 q 863 399 875 448 q 850 281 852 351 q 861 162 850 210 q 891 85 872 114 q 934 43 909 56 q 986 31 959 31 m 983 -15 q 929 -8 955 -15 q 881 11 903 -1 q 840 41 859 23 q 807 80 821 58 q 781 128 792 103 q 762 180 769 153 q 750 236 754 208 q 746 293 746 264 q 763 401 746 350 q 811 491 780 452 q 844 527 826 511 q 884 554 863 543 q 930 572 906 566 q 982 579 955 578 q 1033 574 1009 581 q 1078 557 1057 568 q 1118 529 1100 545 q 1152 494 1137 513 q 1178 450 1166 473 q 1198 400 1190 426 q 1210 347 1206 374 q 1214 290 1214 319 q 1210 234 1214 262 q 1199 179 1206 206 q 1182 127 1192 152 q 1157 81 1172 103 q 1125 42 1143 60 q 1085 12 1107 24 q 1038 -7 1063 0 q 983 -15 1013 -15 m 978 947 l 338 0 l 260 0 l 902 947 l 978 947 z "},"&":{"ha":1145,"x_min":60,"x_max":1090,"o":"m 1059 636 l 1059 593 l 926 556 q 922 517 925 537 q 916 476 920 496 q 904 424 910 450 q 890 372 898 397 q 872 321 882 347 q 852 273 863 296 q 814 203 834 236 q 833 175 823 189 q 852 149 842 161 q 883 115 867 130 q 917 87 899 99 q 950 70 932 77 q 989 57 968 62 q 1036 50 1010 53 q 1090 49 1061 47 l 1090 0 l 928 0 q 868 3 897 -1 q 814 22 840 8 q 768 56 789 34 q 727 107 746 77 q 667 51 703 75 q 589 12 631 27 q 502 -11 547 -3 q 416 -22 457 -19 q 345 -18 381 -23 q 273 0 308 -12 q 224 20 247 8 q 179 47 201 33 q 129 94 152 68 q 90 151 106 119 q 67 210 75 178 q 60 277 60 241 q 64 325 60 301 q 77 370 69 349 q 100 413 87 392 q 130 452 113 434 q 178 496 151 476 q 237 534 205 517 q 277 554 256 545 q 320 571 298 563 q 306 585 313 576 q 290 605 298 594 q 274 629 282 616 q 259 655 266 642 q 238 711 245 682 q 231 762 231 739 q 236 803 231 783 q 252 842 241 823 q 277 879 262 861 q 311 911 292 897 q 351 937 330 925 q 395 955 372 948 q 441 965 418 962 q 486 967 464 968 q 512 965 498 967 q 542 959 526 963 q 574 948 557 955 q 605 930 590 941 q 635 908 621 921 q 659 878 648 895 q 677 840 670 861 q 686 791 685 818 q 677 722 690 754 q 640 661 665 689 q 581 608 617 632 q 499 568 545 583 q 535 540 517 555 q 570 509 553 525 q 605 473 587 491 q 640 435 623 454 q 673 397 656 416 q 704 359 689 378 q 741 316 723 338 q 776 274 758 294 q 792 306 784 288 q 808 345 800 324 q 819 376 814 359 q 829 410 825 393 q 838 450 834 430 q 842 490 841 469 q 842 528 844 509 q 837 564 841 547 l 730 593 l 730 636 l 1059 636 m 370 521 q 315 507 343 522 q 264 465 288 492 q 240 430 251 449 q 221 389 229 411 q 205 312 208 351 q 213 232 203 273 q 224 192 217 212 q 243 155 232 172 q 292 92 263 118 q 361 54 320 66 q 410 39 385 43 q 461 37 435 35 q 552 55 510 38 q 633 100 594 72 q 669 131 652 115 q 696 163 685 146 q 663 214 681 189 q 627 264 646 239 q 588 313 608 289 q 547 361 568 338 q 501 408 525 385 q 454 453 477 431 q 412 489 433 472 q 370 521 391 506 m 448 608 q 492 627 472 616 q 526 655 511 639 q 554 688 543 670 q 572 727 566 707 q 583 771 581 747 q 583 818 586 795 q 568 861 579 840 q 537 895 557 882 q 505 911 522 906 q 469 917 487 917 q 435 911 452 917 q 404 894 418 905 q 373 859 385 879 q 357 814 361 838 q 356 765 353 791 q 370 715 359 739 q 385 684 376 699 q 404 658 395 670 q 427 632 415 644 q 448 608 438 620 z "},"(":{"ha":399,"x_min":103,"x_max":380,"o":"m 380 968 q 342 946 361 963 q 307 906 323 929 q 280 858 292 884 q 266 807 269 831 q 255 711 259 760 q 248 616 251 663 q 241 422 241 519 q 243 320 241 372 q 248 217 245 269 q 266 37 255 127 q 271 11 267 24 q 279 -18 274 -3 q 290 -47 283 -33 q 304 -76 296 -62 q 319 -102 311 -90 q 337 -123 328 -114 q 356 -138 346 -132 q 376 -145 366 -144 l 380 -187 q 344 -187 362 -190 q 307 -178 326 -184 q 271 -161 289 -171 q 237 -137 254 -151 q 208 -109 221 -125 q 182 -77 194 -94 q 163 -42 171 -60 q 151 -7 155 -24 q 131 96 140 42 q 117 203 122 149 q 106 313 110 258 q 103 420 103 368 q 106 515 103 468 q 113 608 109 563 q 127 723 118 667 q 151 830 137 779 q 180 899 160 867 q 229 956 201 932 q 294 997 258 981 q 376 1017 331 1013 l 380 968 z "},"*":{"ha":564,"x_min":69,"x_max":538,"o":"m 250 503 q 250 516 248 507 q 253 536 251 525 q 258 561 255 548 q 266 586 262 574 q 274 610 270 598 q 281 632 278 623 q 286 648 283 642 q 289 656 288 655 q 273 663 281 658 q 260 674 266 667 q 237 635 248 652 q 214 605 225 618 q 178 562 195 578 q 141 541 160 547 q 123 539 132 538 q 106 543 114 540 q 92 552 99 547 q 80 566 85 557 q 73 581 76 572 q 69 600 69 590 q 73 619 69 609 q 83 639 76 629 q 105 659 91 651 q 140 671 119 666 q 187 682 160 677 q 250 694 214 688 q 247 711 247 703 q 248 727 247 719 q 241 728 247 728 q 226 729 235 728 q 205 731 217 730 q 180 734 194 732 q 149 739 165 735 q 117 747 132 742 q 92 759 103 751 q 77 777 81 766 q 73 803 73 788 q 79 831 73 818 q 95 854 84 844 q 125 865 106 864 q 150 861 137 865 q 179 845 163 857 q 214 810 194 833 q 262 750 235 787 q 275 760 267 755 q 290 768 282 765 q 281 797 289 779 q 264 836 273 815 q 253 867 258 850 q 246 898 248 883 q 246 926 244 913 q 258 951 248 940 q 275 964 263 958 q 302 971 288 970 q 332 966 317 971 q 357 945 346 960 q 364 923 362 936 q 364 896 366 910 q 358 867 362 882 q 350 838 354 852 q 339 810 345 823 q 330 788 334 798 q 323 772 326 779 q 321 766 320 766 q 335 760 328 765 q 347 750 342 755 q 372 786 361 770 q 395 814 384 802 q 425 846 412 836 q 447 860 438 856 q 460 864 456 864 q 465 865 464 864 q 480 868 472 868 q 496 866 488 868 q 511 859 505 864 q 524 848 518 854 q 534 833 530 842 q 538 814 537 825 q 536 793 538 804 q 528 770 534 783 q 514 757 524 764 q 484 745 505 750 q 461 739 475 742 q 431 734 448 736 q 399 730 416 732 q 359 728 381 728 q 362 711 362 719 q 359 696 362 704 q 385 687 368 690 q 426 680 403 684 q 458 673 442 677 q 490 665 475 670 q 516 652 505 661 q 533 633 528 644 q 537 615 536 624 q 538 597 538 606 q 534 578 537 587 q 525 563 530 570 q 511 549 519 555 q 494 542 503 544 q 474 541 486 540 q 450 547 463 541 q 437 555 445 549 q 416 575 429 562 q 387 612 404 589 q 347 673 370 636 q 335 663 342 667 q 321 656 328 659 q 330 624 324 642 q 343 587 336 606 q 351 558 347 572 q 356 531 354 544 q 358 506 358 518 q 354 484 358 494 q 346 471 351 477 q 334 460 340 465 q 319 453 327 456 q 302 450 311 450 q 286 452 294 449 q 271 460 278 454 q 258 477 264 467 q 250 503 252 487 z "},"\\":{"ha":776,"x_min":100,"x_max":739,"o":"m 100 1002 l 227 1002 l 739 -206 l 624 -206 l 100 1002 z "},":":{"ha":319,"x_min":126,"x_max":304,"o":"m 214 507 q 180 515 197 507 q 152 533 164 522 q 133 562 140 545 q 126 597 126 578 q 133 631 126 614 q 152 659 140 647 q 180 678 164 671 q 214 685 197 685 q 249 678 233 685 q 277 659 264 671 q 296 631 289 647 q 304 597 304 614 q 296 562 304 578 q 277 533 289 545 q 249 515 264 522 q 214 507 233 507 m 214 -8 q 180 -2 197 -8 q 152 16 164 4 q 133 45 140 28 q 126 79 126 61 q 133 114 126 98 q 152 142 140 130 q 180 161 164 155 q 214 168 197 168 q 249 161 233 168 q 277 142 264 155 q 296 114 289 130 q 304 79 304 98 q 296 45 304 61 q 277 16 289 28 q 249 -2 264 4 q 214 -8 233 -8 z "},",":{"ha":324,"x_min":126,"x_max":309,"o":"m 214 -8 q 180 -2 197 -8 q 152 16 164 4 q 133 45 140 28 q 126 79 126 61 q 133 114 126 98 q 152 142 140 130 q 180 161 164 155 q 214 168 197 168 q 249 161 233 168 q 277 142 264 155 q 288 129 283 136 q 294 114 292 122 q 299 97 297 106 q 304 79 301 88 q 309 48 308 64 q 307 16 309 33 q 296 -21 304 -1 q 279 -57 289 -41 q 252 -94 267 -77 q 221 -123 236 -111 q 189 -144 205 -136 q 159 -155 172 -152 l 144 -132 q 168 -115 156 -125 q 190 -95 179 -106 q 210 -75 201 -85 q 225 -53 218 -64 q 239 -26 233 -39 q 245 -3 244 -14 q 242 0 245 0 q 234 -2 239 0 q 224 -6 229 -4 q 214 -8 218 -8 z "},"\"":{"ha":467,"x_min":77,"x_max":445,"o":"m 149 636 l 126 636 l 77 911 q 82 935 77 924 q 95 954 87 945 q 114 966 103 962 q 137 971 125 971 q 160 966 149 971 q 179 954 171 962 q 192 935 187 945 q 197 911 197 924 l 149 636 m 397 636 l 374 636 l 326 911 q 330 935 326 924 q 343 954 335 945 q 362 966 351 962 q 385 971 373 971 q 408 966 397 971 q 427 954 419 962 q 440 935 435 945 q 445 911 445 924 l 397 636 z "},"=":{"ha":803,"x_min":71,"x_max":765,"o":"m 71 555 l 765 555 l 765 450 l 71 450 l 71 555 m 71 283 l 765 283 l 765 179 l 71 179 l 71 283 z "},">":{"ha":814,"x_min":68,"x_max":776,"o":"m 71 731 l 776 408 l 776 319 l 68 -3 l 68 98 l 642 363 l 71 631 l 71 731 z "},"<":{"ha":814,"x_min":68,"x_max":776,"o":"m 773 731 l 773 631 l 201 363 l 776 98 l 776 -3 l 68 319 l 68 408 l 773 731 z "},".":{"ha":319,"x_min":126,"x_max":304,"o":"m 214 -8 q 180 -2 197 -8 q 152 16 164 4 q 133 45 140 28 q 126 79 126 61 q 133 114 126 98 q 152 142 140 130 q 180 161 164 155 q 214 168 197 168 q 249 161 233 168 q 277 142 264 155 q 296 114 289 130 q 304 79 304 98 q 296 45 304 61 q 277 16 289 28 q 249 -2 264 4 q 214 -8 233 -8 z "},"|":{"ha":490,"x_min":368,"x_max":467,"o":"m 368 998 l 467 998 l 467 0 l 368 0 l 368 998 z "},"+":{"ha":806,"x_min":69,"x_max":768,"o":"m 768 422 l 768 313 l 473 313 l 473 14 l 368 14 l 368 313 l 69 313 l 69 422 l 368 422 l 368 718 l 473 718 l 473 422 l 768 422 z "},"?":{"ha":749,"x_min":34,"x_max":713,"o":"m 327 -7 q 292 -1 308 -7 q 263 18 275 5 q 244 46 251 30 q 237 81 237 62 q 244 115 237 99 q 263 144 251 132 q 292 163 275 156 q 327 170 308 170 q 361 163 345 170 q 389 144 377 156 q 409 115 401 132 q 416 81 416 99 q 409 46 416 62 q 389 18 401 30 q 361 -1 377 5 q 327 -7 345 -7 m 286 229 q 288 261 288 245 q 288 292 288 277 q 289 323 288 308 q 294 355 290 339 q 308 404 300 381 q 331 448 316 427 q 370 488 346 469 q 431 522 395 506 q 463 541 448 529 q 491 566 477 552 q 515 597 505 581 q 536 633 526 614 q 549 671 544 651 q 556 712 555 692 q 555 753 557 732 q 547 792 553 773 q 526 835 537 817 q 501 867 514 853 q 473 889 488 880 q 441 903 457 898 q 408 911 425 909 q 373 915 391 914 q 338 916 355 916 q 304 914 320 916 q 278 910 292 914 q 250 899 264 906 q 223 883 236 892 q 198 864 210 873 q 179 842 187 853 q 166 819 171 830 q 162 796 161 807 q 170 776 163 785 q 187 741 182 760 q 191 704 193 722 q 182 671 190 686 q 160 650 175 656 q 139 640 151 643 q 116 637 127 637 q 94 641 104 637 q 72 651 83 644 q 55 669 62 658 q 43 693 47 680 q 36 724 38 707 q 37 764 34 742 q 47 806 39 787 q 66 842 54 825 q 92 873 77 859 q 123 898 106 887 q 158 920 140 910 q 196 937 176 929 q 235 949 216 944 q 273 959 254 955 q 367 969 317 968 q 464 962 416 970 q 513 950 488 958 q 560 932 538 943 q 600 911 581 922 q 635 886 618 899 q 680 831 662 864 q 705 761 697 798 q 711 686 713 724 q 693 616 708 648 q 669 577 684 595 q 637 544 655 559 q 608 521 624 532 q 575 502 591 510 q 533 481 555 491 q 490 461 511 471 q 452 446 471 453 q 415 431 433 438 q 394 417 403 426 q 378 397 385 408 q 368 372 372 385 q 361 343 363 358 q 357 313 358 328 q 356 283 357 298 q 355 254 355 269 q 354 229 355 240 l 286 229 z "},";":{"ha":324,"x_min":126,"x_max":309,"o":"m 214 507 q 180 515 197 507 q 152 533 164 522 q 133 562 140 545 q 126 597 126 578 q 133 631 126 614 q 152 659 140 647 q 180 678 164 671 q 214 685 197 685 q 249 678 233 685 q 277 659 264 671 q 296 631 289 647 q 304 597 304 614 q 296 562 304 578 q 277 533 289 545 q 249 515 264 522 q 214 507 233 507 m 214 -8 q 180 -2 197 -8 q 152 16 164 4 q 133 45 140 28 q 126 79 126 61 q 133 114 126 98 q 152 142 140 130 q 180 161 164 155 q 214 168 197 168 q 249 161 233 168 q 277 142 264 155 q 288 129 283 136 q 294 114 292 122 q 299 97 297 106 q 304 79 301 88 q 309 48 308 64 q 307 16 309 33 q 296 -21 304 -1 q 279 -57 289 -41 q 252 -94 267 -77 q 221 -123 236 -111 q 189 -144 205 -136 q 159 -155 172 -152 l 144 -132 q 168 -115 156 -125 q 190 -95 179 -106 q 210 -75 201 -85 q 225 -53 218 -64 q 239 -26 233 -39 q 245 -3 244 -14 q 242 0 245 0 q 234 -2 239 0 q 224 -6 229 -4 q 214 -8 218 -8 z "},"/":{"ha":776,"x_min":100,"x_max":739,"o":"m 739 1002 l 216 -206 l 100 -206 l 613 1002 l 739 1002 z "},"[":{"ha":374,"x_min":125,"x_max":357,"o":"m 357 998 l 357 932 l 248 903 l 248 -100 l 357 -130 l 357 -191 l 125 -191 l 125 998 l 357 998 z "},"]":{"ha":294,"x_min":47,"x_max":281,"o":"m 47 998 l 281 998 l 281 -191 l 47 -191 l 47 -130 l 156 -100 l 156 903 l 49 932 l 47 998 z "},")":{"ha":319,"x_min":27,"x_max":304,"o":"m 27 968 l 31 1017 q 113 997 76 1013 q 179 956 149 981 q 227 899 208 932 q 256 830 247 867 q 279 723 270 779 q 294 608 289 667 q 302 515 300 563 q 304 420 304 468 q 300 313 304 368 q 292 203 297 258 q 276 96 285 149 q 256 -7 267 42 q 244 -42 252 -24 q 225 -77 236 -60 q 200 -109 214 -94 q 170 -137 186 -125 q 136 -161 153 -151 q 100 -178 118 -171 q 64 -187 83 -184 q 27 -187 45 -190 l 31 -145 q 52 -138 42 -144 q 70 -123 61 -132 q 87 -102 79 -114 q 103 -76 96 -90 q 117 -47 111 -62 q 128 -18 123 -33 q 136 11 133 -3 q 142 37 140 24 q 159 217 152 127 q 163 320 161 269 q 165 422 165 372 q 159 616 165 519 q 152 711 156 663 q 142 807 148 760 q 127 858 138 831 q 100 906 117 884 q 65 946 84 929 q 27 968 46 963 z "},"'":{"ha":256,"x_min":61,"x_max":244,"o":"m 141 803 q 124 804 132 803 q 111 807 117 804 q 99 814 104 810 q 87 823 94 818 q 68 852 75 836 q 61 886 61 868 q 68 921 61 905 q 87 949 75 937 q 115 968 99 962 q 149 975 132 975 q 184 968 168 975 q 213 949 201 962 q 222 936 218 943 q 229 921 227 929 q 234 904 232 913 q 239 886 236 895 q 243 854 243 871 q 241 823 244 838 q 238 806 240 814 q 233 792 236 799 q 227 779 231 785 q 217 764 222 772 q 190 726 205 743 q 159 697 175 709 q 144 686 151 690 q 133 680 138 682 q 122 675 127 677 q 110 673 117 674 l 94 696 q 104 702 100 699 q 112 709 109 705 q 119 716 115 712 q 129 726 123 720 q 147 746 138 735 q 163 768 156 757 q 176 794 171 781 q 183 818 182 807 q 178 820 183 822 q 165 814 172 818 q 152 806 159 810 q 141 803 145 803 z "},"-":{"ha":505,"x_min":71,"x_max":481,"o":"m 71 323 l 71 408 l 481 408 l 481 323 l 71 323 z "},"@":{"ha":1099,"x_min":71,"x_max":1047,"o":"m 426 225 q 482 223 456 214 q 534 258 509 232 q 584 330 559 285 q 637 437 609 376 q 677 546 665 499 q 690 627 690 593 q 679 682 690 661 q 647 715 667 704 q 623 723 636 722 q 595 722 610 724 q 565 711 581 719 q 533 692 549 704 q 500 663 517 680 q 469 623 484 646 q 441 571 454 600 q 416 509 427 543 q 382 392 395 441 q 369 309 369 343 q 382 255 369 275 q 426 225 396 235 m 361 187 q 328 208 345 194 q 298 241 312 222 q 275 286 285 262 q 262 338 266 311 q 258 399 256 368 q 266 458 259 430 q 281 511 271 487 q 301 553 290 536 q 322 586 312 568 q 343 622 332 604 q 367 658 354 640 q 395 692 380 675 q 430 722 411 708 q 473 745 449 735 q 528 759 498 754 q 594 762 557 764 q 645 754 625 761 q 678 736 665 747 q 701 712 692 726 q 719 684 709 699 l 837 684 l 705 319 q 696 269 696 289 q 704 239 696 250 q 728 223 713 227 q 755 221 742 220 q 811 241 785 227 q 859 275 837 255 q 898 320 880 296 q 929 370 916 345 q 954 423 944 397 q 970 473 963 449 q 980 515 977 496 q 982 547 983 534 q 971 630 982 591 q 941 702 960 669 q 897 764 922 735 q 844 815 872 792 q 783 856 814 838 q 720 886 751 873 q 659 905 689 898 q 604 913 629 911 q 507 906 553 914 q 417 881 460 898 q 336 839 374 864 q 267 784 298 814 q 210 717 235 753 q 167 642 184 681 q 141 560 149 602 q 134 476 133 518 q 149 369 136 419 q 183 277 161 319 q 233 201 205 236 q 294 141 262 167 q 364 95 328 114 q 437 63 400 76 q 509 45 473 50 q 578 41 545 39 q 690 55 635 42 q 796 94 746 68 q 892 160 848 119 q 970 259 936 201 l 1032 256 q 1003 198 1021 227 q 961 144 985 170 q 909 95 937 118 q 849 52 880 72 q 783 18 817 33 q 714 -7 749 3 q 644 -20 680 -16 q 575 -20 609 -23 q 487 -9 532 -18 q 399 16 442 0 q 315 53 355 31 q 239 104 274 75 q 174 170 203 133 q 121 254 144 208 q 86 355 99 300 q 72 475 73 410 q 79 566 71 519 q 106 656 88 612 q 151 741 125 700 q 213 818 178 783 q 290 882 248 853 q 381 932 332 911 q 485 962 430 952 q 600 968 540 971 q 679 959 639 967 q 758 937 719 951 q 835 901 798 922 q 905 853 872 880 q 964 794 937 827 q 1010 722 991 761 q 1038 637 1028 682 q 1044 540 1047 591 q 1027 447 1043 494 q 986 358 1012 400 q 925 279 960 315 q 846 217 890 243 q 810 198 827 206 q 774 186 792 190 q 737 178 757 180 q 696 175 718 175 q 663 178 680 174 q 632 191 646 182 q 608 216 617 201 q 595 255 598 232 q 563 225 579 239 q 531 201 547 212 q 500 185 515 191 q 471 178 484 179 q 412 176 439 175 q 361 187 384 178 z "},"^":{"ha":804,"x_min":71,"x_max":766,"o":"m 655 382 l 418 811 l 186 380 l 71 380 l 363 947 l 473 947 l 766 382 l 655 382 z "},"_":{"ha":726,"x_min":0,"x_max":692,"o":"m 0 -132 l 692 -132 l 692 -214 l 0 -214 l 0 -132 z "},"`":{"ha":282,"x_min":125,"x_max":270,"o":"m 270 715 l 247 709 l 129 962 q 127 986 125 974 q 134 1008 129 998 q 149 1025 140 1017 q 171 1035 159 1032 q 195 1037 183 1039 q 216 1029 206 1035 q 234 1015 227 1024 q 244 993 241 1005 l 270 715 z "},"{":{"ha":350,"x_min":45,"x_max":334,"o":"m 123 410 q 167 396 146 407 q 203 369 187 385 q 228 330 218 353 q 239 279 237 307 q 239 234 239 255 q 240 194 240 213 q 240 136 240 164 q 240 79 240 107 q 241 21 240 50 q 243 -43 241 -8 q 249 -95 244 -73 q 264 -134 254 -117 q 292 -165 275 -151 q 334 -191 309 -179 q 281 -184 307 -189 q 233 -171 255 -180 q 193 -145 210 -161 q 164 -102 175 -129 q 159 -85 161 -94 q 155 -66 156 -76 q 152 -47 153 -57 q 151 -24 151 -37 q 150 25 151 1 q 149 72 149 49 q 150 115 149 94 q 151 159 151 137 q 151 227 151 191 q 149 304 151 262 q 138 342 148 323 q 113 376 129 361 q 82 396 99 388 q 45 406 65 404 q 100 426 79 414 q 134 461 122 438 q 150 524 146 486 q 151 621 153 562 q 153 687 153 652 q 153 758 153 722 q 155 819 153 789 q 160 876 156 849 q 172 923 164 902 q 193 958 179 944 q 218 976 203 967 q 251 990 233 985 q 290 998 269 996 q 334 998 311 1001 q 311 986 321 991 q 292 974 300 981 q 274 957 282 966 q 259 936 266 948 q 250 916 254 929 q 245 886 247 903 q 242 847 243 869 q 241 800 241 825 q 240 736 240 770 q 240 667 240 701 q 238 584 240 624 q 232 514 236 544 q 218 470 228 488 q 193 439 208 452 q 161 420 179 427 q 123 410 144 414 z "},"}":{"ha":358,"x_min":54,"x_max":342,"o":"m 264 410 q 226 420 244 414 q 194 439 208 427 q 170 470 180 452 q 156 514 160 488 q 149 584 151 544 q 146 667 146 624 q 146 736 146 701 q 146 800 146 770 q 145 847 146 825 q 142 886 144 869 q 136 916 140 903 q 127 936 133 929 q 113 957 121 948 q 96 974 106 966 q 76 986 87 981 q 54 998 65 991 q 97 998 76 1001 q 136 990 118 996 q 170 976 155 985 q 194 958 184 967 q 216 923 208 944 q 228 876 224 902 q 232 819 231 849 q 233 758 233 789 q 233 687 233 722 q 236 621 233 652 q 237 524 233 562 q 254 461 241 486 q 287 426 264 438 q 342 406 309 414 q 304 396 321 404 q 275 376 288 388 q 250 342 259 361 q 237 304 240 323 q 237 227 236 262 q 237 159 237 191 q 237 115 237 137 q 237 72 237 94 q 237 25 237 49 q 236 -24 237 1 q 235 -47 236 -37 q 232 -66 235 -57 q 229 -85 231 -76 q 222 -102 227 -94 q 194 -145 212 -129 q 155 -171 176 -161 q 106 -184 132 -180 q 54 -191 80 -189 q 94 -165 77 -179 q 122 -134 111 -151 q 138 -95 133 -117 q 145 -43 144 -73 q 146 21 145 -8 q 146 79 146 50 q 147 136 146 107 q 148 194 148 164 q 148 234 148 213 q 149 279 148 255 q 159 330 149 307 q 183 369 168 353 q 220 396 199 385 q 264 410 241 407 z "},"~":{"ha":807,"x_min":72,"x_max":769,"o":"m 769 425 q 728 366 749 392 q 686 319 708 339 q 640 286 665 298 q 587 270 616 273 q 525 275 559 267 q 453 301 492 282 q 390 330 418 317 q 338 350 362 342 q 296 362 315 358 q 262 366 277 366 q 222 355 239 365 q 190 328 205 345 q 161 290 175 312 q 129 243 146 269 l 72 308 q 109 370 90 343 q 151 416 129 397 q 194 448 171 437 q 241 464 217 460 q 288 467 263 468 q 338 458 312 465 q 391 440 363 452 q 449 412 419 429 q 488 394 469 401 q 522 382 506 387 q 555 378 540 378 q 583 378 570 377 q 625 391 606 381 q 661 416 644 401 q 688 450 675 431 q 711 488 701 468 l 769 425 z "},"":{"ha":281,"x_min":125,"x_max":269,"o":"m 125 715 l 149 993 q 161 1015 153 1005 q 178 1029 168 1024 q 199 1037 187 1035 q 224 1035 212 1039 q 244 1025 235 1032 q 259 1008 254 1017 q 267 986 266 998 q 266 962 269 974 l 148 709 l 125 715 z "},"":{"ha":1306,"x_min":137,"x_max":1245,"o":"m 229 -12 q 193 -5 210 -12 q 164 14 176 1 q 144 44 151 27 q 137 80 137 61 q 144 116 137 99 q 164 145 152 133 q 193 165 176 159 q 229 172 210 172 q 265 165 248 172 q 294 145 282 157 q 315 116 308 133 q 323 80 323 99 q 315 44 323 61 q 294 14 308 27 q 265 -5 282 1 q 229 -12 248 -12 m 692 -12 q 656 -5 673 -12 q 625 14 639 1 q 606 44 613 27 q 598 80 598 61 q 606 116 598 99 q 625 145 613 133 q 656 165 639 159 q 692 172 673 172 q 728 165 711 172 q 757 145 745 157 q 777 116 770 133 q 784 80 784 99 q 777 44 784 61 q 757 14 769 27 q 728 -5 745 1 q 692 -12 711 -12 m 1152 -12 q 1116 -5 1133 -12 q 1086 14 1099 1 q 1066 44 1073 27 q 1059 80 1059 61 q 1067 116 1059 99 q 1086 145 1074 133 q 1116 165 1099 159 q 1152 172 1133 172 q 1187 165 1171 172 q 1218 145 1204 157 q 1238 116 1230 133 q 1245 80 1245 99 q 1238 44 1245 61 q 1218 14 1230 27 q 1187 -5 1204 1 q 1152 -12 1171 -12 z "},"":{"ha":677,"x_min":90,"x_max":646,"o":"m 351 -256 q 350 -145 351 -201 q 346 -35 349 -90 q 340 75 345 19 q 332 184 336 130 q 329 220 331 202 q 324 255 327 239 q 320 292 323 274 q 315 327 317 311 q 308 364 312 346 q 301 399 304 382 q 292 435 297 418 q 282 469 288 453 l 350 487 l 350 629 q 339 631 346 631 q 326 629 332 631 q 312 627 320 629 q 297 623 304 625 q 281 618 289 621 q 266 610 273 614 q 250 605 258 608 q 236 600 243 602 q 211 591 222 595 q 190 583 199 586 q 172 580 180 582 q 156 578 163 578 q 141 581 148 578 q 127 585 134 583 q 115 593 122 589 q 102 604 109 598 q 90 644 90 624 q 93 666 90 655 q 102 686 96 677 q 116 700 109 694 q 132 707 123 705 q 149 710 140 709 q 167 711 159 711 q 186 709 176 711 q 203 703 195 707 q 222 695 213 700 q 239 686 231 690 q 253 682 245 685 q 266 677 260 680 q 280 673 273 675 q 293 667 288 670 q 307 664 300 666 q 320 662 315 662 q 336 660 327 662 q 353 658 345 658 q 346 697 351 678 q 334 734 340 716 q 320 772 328 753 q 304 808 312 791 q 297 835 300 822 q 292 857 294 848 q 290 880 290 869 q 289 899 289 891 q 293 918 290 909 q 298 933 296 926 q 309 949 302 941 q 320 963 315 956 q 331 970 326 967 q 342 972 336 972 q 354 976 349 975 q 365 977 359 977 q 376 976 370 977 q 385 974 381 975 q 395 970 391 972 q 403 963 400 967 q 419 947 412 955 q 430 930 426 939 q 436 913 434 922 q 438 894 438 903 q 438 876 438 886 q 435 854 438 865 q 429 833 434 845 q 420 808 425 821 q 412 791 416 800 q 406 772 408 781 q 398 752 401 762 q 392 732 395 742 q 388 714 391 724 q 382 694 385 704 q 379 675 381 685 q 376 656 377 665 q 411 661 393 658 q 445 670 429 665 q 480 684 463 677 q 514 696 498 690 q 536 703 525 700 q 555 707 547 707 q 572 709 563 709 q 586 709 581 709 q 600 707 593 709 q 612 701 606 705 q 624 694 618 699 q 635 682 629 689 q 640 675 637 680 q 643 667 642 671 q 645 658 644 663 q 646 648 646 652 q 646 640 646 644 q 646 631 646 635 q 644 623 646 627 q 640 614 643 618 q 634 605 639 610 q 624 595 629 600 q 612 589 618 591 q 600 583 606 586 q 586 580 594 582 q 571 578 578 578 q 557 581 564 578 q 543 585 549 583 q 522 591 533 587 q 500 597 511 594 q 481 604 491 601 q 460 612 471 608 q 440 620 450 616 q 419 625 430 624 q 399 631 410 629 q 377 633 388 633 l 377 488 l 444 472 q 428 401 435 437 q 414 330 420 366 q 402 256 408 293 q 393 183 396 220 q 391 129 392 156 q 388 75 389 102 q 385 22 387 49 q 384 -31 384 -4 q 382 -85 384 -57 q 380 -141 380 -113 q 378 -197 380 -168 q 377 -256 377 -227 l 351 -256 z "},"":{"ha":642,"x_min":104,"x_max":612,"o":"m 296 -245 q 293 -239 294 -243 q 292 -231 292 -235 q 291 -222 292 -227 q 290 -213 290 -217 q 291 -203 290 -209 q 292 -194 292 -198 q 294 -183 293 -189 q 296 -174 296 -178 q 298 -164 297 -170 q 301 -155 300 -159 q 304 -146 302 -151 q 307 -138 305 -141 q 311 -130 309 -134 q 312 -125 312 -126 q 315 -119 313 -122 q 317 -114 316 -115 q 320 -105 317 -111 q 324 -92 323 -99 q 330 -77 327 -85 q 334 -62 332 -69 q 338 -46 336 -54 q 340 -33 339 -38 q 342 -20 342 -26 q 340 -11 342 -14 q 329 -12 335 -11 q 317 -12 323 -12 q 307 -14 312 -12 q 297 -15 301 -15 q 288 -18 293 -16 q 278 -20 282 -19 q 269 -24 274 -22 q 259 -28 263 -26 q 253 -32 258 -30 q 243 -37 248 -34 q 230 -42 237 -38 q 216 -47 222 -46 q 200 -52 209 -49 q 182 -56 191 -54 q 142 -56 163 -57 q 135 -52 138 -54 q 129 -49 132 -50 q 123 -43 126 -46 q 118 -37 121 -39 q 114 -28 117 -33 q 110 -20 111 -24 q 108 -12 109 -16 q 107 -3 107 -7 q 107 4 107 0 q 107 12 107 8 q 109 21 107 16 q 113 30 111 26 q 118 37 115 34 q 123 43 121 41 q 131 50 126 46 q 140 54 136 53 q 142 56 140 54 q 145 58 144 57 q 154 60 148 60 q 165 61 160 61 q 182 59 172 61 q 202 56 193 57 q 227 47 213 53 q 255 35 240 42 q 267 31 260 33 q 278 27 273 28 q 292 23 285 24 q 304 20 298 22 q 316 18 311 19 q 326 18 321 18 q 334 17 330 18 q 342 16 339 16 l 342 110 l 279 126 q 294 149 288 136 q 307 174 301 161 q 317 199 312 186 q 326 227 323 213 q 338 282 334 254 q 342 311 340 296 q 343 342 343 327 q 339 406 343 374 q 334 437 338 422 q 327 465 331 452 q 318 492 323 479 q 307 517 313 506 q 294 540 301 529 q 278 559 286 551 l 339 575 l 339 671 q 330 673 335 673 q 323 674 326 674 q 316 673 320 674 q 309 671 312 671 q 302 668 307 670 q 294 665 298 666 q 284 660 290 662 q 271 656 278 658 q 245 646 258 651 q 222 639 233 642 q 202 633 213 636 q 183 629 191 631 q 166 628 175 628 q 151 629 157 628 q 136 635 142 631 q 122 644 129 639 q 115 654 118 648 q 109 665 111 659 q 106 676 107 670 q 104 688 104 682 q 106 699 104 693 q 109 711 107 705 q 115 722 111 716 q 122 731 118 727 q 134 740 126 736 q 149 743 141 743 q 168 745 157 745 q 187 743 178 745 q 208 739 198 742 q 228 734 218 736 q 248 726 239 730 q 266 718 258 722 q 278 713 273 715 q 286 709 283 711 q 294 705 290 707 q 301 704 298 704 q 309 701 304 703 q 317 700 313 700 q 328 699 321 700 q 343 699 335 699 q 337 734 342 716 q 328 769 332 753 q 316 804 323 787 q 301 840 309 822 q 294 863 297 852 q 290 883 292 875 q 288 899 289 891 q 288 913 288 906 q 290 925 288 918 q 296 937 293 932 q 304 949 298 943 q 315 963 309 956 q 326 968 320 966 q 336 972 331 971 q 349 975 343 974 q 359 977 354 977 q 370 976 365 977 q 380 974 376 975 q 390 968 385 971 q 397 963 395 966 q 406 958 401 962 q 412 948 410 954 q 418 936 415 943 q 422 921 420 929 q 423 903 423 913 q 423 884 423 894 q 419 863 422 875 q 412 841 416 852 q 395 807 403 825 q 384 772 388 789 q 376 735 380 753 q 369 701 372 718 q 385 703 377 701 q 397 704 392 704 q 410 705 404 704 q 419 708 415 707 q 430 711 425 709 q 441 715 435 712 q 454 720 446 716 q 469 726 461 723 q 491 733 480 730 q 511 739 502 736 q 531 743 522 741 q 547 746 540 746 q 575 742 563 746 q 588 734 582 739 q 600 722 594 728 q 604 715 602 719 q 606 707 605 711 q 610 698 609 703 q 610 689 610 693 q 610 680 610 685 q 610 671 610 675 q 608 663 610 667 q 604 655 606 658 q 591 641 598 647 q 575 633 583 635 q 557 629 567 631 q 540 627 548 627 q 521 629 530 627 q 503 633 511 632 q 486 639 495 635 q 471 646 477 643 q 457 650 464 647 q 446 655 450 652 q 435 659 441 656 q 426 663 430 662 q 415 667 420 665 q 403 670 410 669 q 388 673 397 671 q 368 675 378 675 l 368 575 l 434 559 q 419 536 426 548 q 406 513 412 525 q 395 486 400 500 q 387 458 389 472 q 380 429 382 444 q 374 400 377 414 q 372 370 373 385 q 370 339 370 354 q 372 309 370 324 q 374 279 373 293 q 380 250 377 264 q 387 222 382 236 q 396 196 391 209 q 407 171 401 183 q 420 148 414 159 q 434 127 427 137 l 370 111 l 370 14 q 376 14 373 14 q 382 14 380 14 q 391 15 387 14 q 399 16 395 16 q 408 19 403 18 q 418 22 414 20 q 427 25 422 23 q 435 28 431 27 q 444 32 439 30 q 453 35 449 34 q 462 39 457 37 q 469 42 467 41 q 476 45 472 43 q 481 46 480 46 q 486 48 484 47 q 490 49 488 49 q 497 50 492 49 q 506 53 502 52 q 516 56 510 54 q 528 58 522 58 q 541 60 534 60 q 552 61 547 61 q 566 58 559 61 q 578 54 572 56 q 594 44 587 50 q 604 31 601 38 q 612 0 612 15 q 609 -14 612 -7 q 602 -28 606 -22 q 593 -41 598 -35 q 582 -49 589 -46 q 572 -54 578 -52 q 560 -57 567 -57 q 547 -57 555 -57 q 532 -56 538 -57 q 518 -52 525 -54 q 505 -49 511 -50 q 493 -44 499 -46 q 483 -41 487 -42 q 472 -37 477 -39 q 460 -33 467 -34 q 448 -27 454 -30 q 434 -23 441 -24 q 419 -18 427 -20 q 404 -15 411 -16 q 387 -12 396 -12 q 370 -12 378 -12 q 372 -28 370 -20 q 374 -42 373 -35 q 377 -54 376 -47 q 380 -68 378 -61 q 385 -80 382 -73 q 389 -94 388 -87 q 395 -107 392 -99 q 401 -122 399 -115 q 408 -136 404 -127 q 414 -152 412 -144 q 418 -168 416 -160 q 422 -184 420 -176 q 426 -216 426 -201 q 425 -231 426 -224 q 420 -244 423 -237 q 410 -260 416 -252 q 396 -273 403 -267 q 380 -281 389 -278 q 363 -285 372 -285 q 346 -284 355 -286 q 328 -278 336 -282 q 311 -265 320 -274 q 296 -245 302 -256 z "},"":{"ha":259,"x_min":64,"x_max":247,"o":"m 167 840 q 184 839 176 840 q 197 836 191 838 q 210 829 203 833 q 221 819 216 825 q 240 791 233 807 q 247 755 247 774 q 240 722 247 738 q 221 693 233 705 q 193 674 209 681 q 159 667 176 667 q 124 674 140 667 q 96 693 109 681 q 85 707 90 700 q 79 722 81 713 q 74 739 76 730 q 69 755 72 747 q 64 787 65 772 q 66 819 64 803 q 70 836 68 829 q 75 850 72 844 q 83 864 79 857 q 91 879 87 871 q 119 916 103 899 q 149 945 134 933 q 163 956 157 952 q 175 963 170 960 q 186 967 180 966 q 198 970 191 968 l 214 947 q 205 940 209 943 q 197 934 201 937 q 189 926 193 930 q 180 917 186 922 q 161 897 170 907 q 145 875 152 886 q 132 848 137 861 q 126 825 126 836 q 130 823 125 821 q 142 828 136 825 q 157 836 149 831 q 167 840 164 840 z "},"":{"ha":259,"x_min":64,"x_max":247,"o":"m 144 798 q 127 798 134 798 q 113 802 119 799 q 102 808 107 804 q 90 818 96 812 q 71 846 77 830 q 64 882 64 863 q 71 916 64 899 q 90 944 77 932 q 118 963 102 956 q 152 970 134 970 q 187 963 171 970 q 216 944 203 956 q 225 930 221 937 q 232 916 229 924 q 237 899 235 907 q 241 882 239 890 q 246 850 245 865 q 245 818 247 834 q 241 801 244 808 q 236 787 239 793 q 229 773 233 780 q 220 758 225 766 q 193 721 208 738 q 161 692 178 704 q 147 681 153 685 q 136 674 141 677 q 125 670 130 671 q 113 667 119 669 l 96 690 q 107 696 103 693 q 115 703 111 700 q 122 711 118 707 q 132 720 126 715 q 150 741 141 730 q 165 762 159 751 q 180 789 175 776 q 186 812 184 802 q 181 814 186 817 q 169 808 176 812 q 155 801 161 804 q 144 798 148 798 z "},"":{"ha":506,"x_min":65,"x_max":483,"o":"m 168 840 q 184 839 176 840 q 198 836 191 838 q 210 829 205 833 q 221 819 216 825 q 241 791 233 807 q 248 755 248 774 q 241 722 248 738 q 221 693 233 705 q 194 674 210 681 q 159 667 178 667 q 125 674 141 667 q 96 693 109 681 q 86 707 90 700 q 80 722 83 713 q 75 739 77 730 q 71 755 72 747 q 66 787 66 772 q 66 819 65 803 q 70 836 68 829 q 75 850 72 844 q 83 864 79 857 q 92 879 87 871 q 119 916 103 899 q 151 945 134 933 q 164 956 159 952 q 175 963 170 960 q 186 967 180 966 q 199 970 193 968 l 214 947 q 205 940 209 943 q 197 934 201 937 q 190 926 194 930 q 180 917 186 922 q 161 897 170 907 q 145 875 152 886 q 132 848 137 861 q 126 825 126 836 q 131 823 126 821 q 142 828 136 825 q 157 836 149 831 q 168 840 164 840 m 403 840 q 420 839 412 840 q 433 836 427 838 q 445 829 439 833 q 457 819 450 825 q 476 791 469 807 q 483 755 483 774 q 476 722 483 738 q 457 693 469 705 q 429 674 445 681 q 395 667 412 667 q 359 674 376 667 q 331 693 343 681 q 321 707 326 700 q 315 722 317 713 q 310 739 312 730 q 305 755 308 747 q 300 787 301 772 q 301 819 300 803 q 305 836 302 829 q 311 850 308 844 q 317 864 313 857 q 327 879 321 871 q 354 916 339 899 q 385 945 369 933 q 399 956 393 952 q 411 963 406 960 q 422 967 416 966 q 434 970 427 968 l 450 947 q 439 940 444 943 q 432 934 435 937 q 425 926 429 930 q 415 917 420 922 q 397 897 406 907 q 381 875 388 886 q 367 848 372 861 q 361 825 362 836 q 366 823 361 821 q 378 828 370 825 q 392 836 385 831 q 403 840 399 840 z "},"":{"ha":506,"x_min":64,"x_max":483,"o":"m 378 798 q 363 798 370 798 q 349 802 355 799 q 337 808 343 804 q 326 818 331 812 q 306 846 313 830 q 298 882 298 863 q 306 916 298 899 q 326 944 313 932 q 353 963 338 956 q 388 970 369 970 q 422 963 406 970 q 450 944 438 956 q 460 930 457 937 q 467 916 464 924 q 473 899 471 907 q 476 882 475 890 q 482 850 481 865 q 480 818 483 834 q 477 801 479 808 q 471 787 475 793 q 464 773 468 780 q 454 758 460 766 q 428 721 444 738 q 396 692 412 704 q 383 681 389 685 q 372 674 377 677 q 361 670 366 671 q 349 667 355 669 l 332 690 q 342 696 338 693 q 350 703 346 700 q 357 711 354 707 q 366 720 361 715 q 386 741 377 730 q 401 762 395 751 q 415 789 410 776 q 420 812 420 802 q 416 814 420 817 q 404 808 411 812 q 390 801 397 804 q 378 798 382 798 m 144 798 q 127 798 134 798 q 113 802 119 799 q 102 808 107 804 q 90 818 96 812 q 71 846 77 830 q 64 882 64 863 q 71 916 64 899 q 90 944 77 932 q 118 963 102 956 q 153 970 134 970 q 187 963 171 970 q 216 944 203 956 q 225 930 221 937 q 232 916 229 924 q 237 899 235 907 q 241 882 239 890 q 246 850 245 865 q 245 818 247 834 q 241 801 244 808 q 236 787 239 793 q 229 773 233 780 q 220 758 225 766 q 193 721 208 738 q 161 692 178 704 q 147 681 153 685 q 136 674 141 677 q 125 670 130 671 q 113 667 119 669 l 96 690 q 107 696 103 693 q 115 703 111 700 q 122 711 118 707 q 132 720 126 715 q 150 741 141 730 q 165 762 159 751 q 180 789 175 776 q 186 812 184 802 q 181 814 186 817 q 169 808 176 812 q 155 801 161 804 q 144 798 148 798 z "},"":{"ha":587,"x_min":83,"x_max":560,"o":"m 321 237 q 229 256 273 237 q 153 307 186 274 q 124 342 137 323 q 102 382 111 361 q 87 427 92 404 q 83 476 83 450 q 102 568 83 525 q 153 644 121 612 q 229 695 186 677 q 321 713 273 713 q 415 695 372 713 q 490 644 458 677 q 541 568 522 612 q 560 476 560 525 q 555 427 560 450 q 541 382 551 404 q 519 342 532 361 q 490 307 506 323 q 415 256 458 274 q 321 237 372 237 z "},"":{"ha":1006,"x_min":1,"x_max":959,"o":"m 1 408 l 959 408 l 959 313 l 1 313 l 1 408 z "},"":{"ha":1275,"x_min":1,"x_max":1215,"o":"m 1 408 l 1215 408 l 1215 313 l 1 313 l 1 408 z "},"":{"ha":1177,"x_min":43,"x_max":1122,"o":"m 472 845 l 509 727 l 484 719 q 469 745 477 732 q 449 768 460 757 q 427 789 439 780 q 400 806 414 798 q 372 814 387 811 q 342 818 358 818 q 317 814 326 819 q 309 793 309 808 l 309 425 l 382 406 l 382 385 l 175 385 l 175 406 l 243 423 l 243 792 q 235 812 243 806 q 218 818 228 818 q 191 817 205 819 q 164 808 176 814 q 129 791 145 802 q 99 766 113 780 q 68 718 79 743 l 43 724 l 83 845 l 472 845 m 1120 844 l 1120 826 l 1063 810 l 1063 423 l 1122 408 l 1122 388 l 940 388 l 940 408 l 997 423 l 997 799 l 830 388 l 800 388 l 646 804 l 646 426 l 713 408 l 713 388 l 545 388 l 545 408 l 609 425 l 609 807 l 545 823 l 545 842 l 704 842 l 833 503 l 972 844 l 1120 844 z "},"":{"ha":1057,"x_min":12,"x_max":1006,"o":"m 510 38 q 597 47 555 38 q 678 72 639 56 q 752 112 718 88 q 817 165 787 136 q 870 230 846 195 q 910 304 894 264 q 935 385 926 343 q 944 472 944 427 q 935 559 944 517 q 910 642 926 602 q 870 715 894 681 q 817 780 846 750 q 752 833 787 810 q 678 873 718 857 q 597 899 639 890 q 510 907 555 907 q 422 899 464 907 q 340 873 380 890 q 267 833 301 857 q 202 780 232 810 q 149 715 172 750 q 109 642 125 681 q 83 559 92 602 q 75 472 75 517 q 83 385 75 427 q 109 304 92 343 q 149 230 125 264 q 202 165 172 195 q 267 112 232 136 q 340 72 301 88 q 422 47 380 56 q 510 38 464 38 m 510 -23 q 410 -13 458 -23 q 316 16 361 -3 q 232 61 271 34 q 159 121 193 88 q 98 195 125 155 q 52 279 71 235 q 22 373 33 324 q 12 472 12 422 q 22 572 12 524 q 52 666 33 621 q 98 750 71 711 q 159 823 125 789 q 232 884 193 857 q 316 930 271 911 q 410 960 361 949 q 510 970 458 970 q 609 960 560 970 q 703 930 658 949 q 787 884 747 911 q 860 823 826 857 q 921 750 894 789 q 967 666 948 711 q 996 572 986 621 q 1006 472 1006 524 q 996 373 1006 422 q 967 279 986 324 q 921 195 948 235 q 860 121 894 155 q 787 61 826 88 q 703 16 747 34 q 609 -13 658 -3 q 510 -23 560 -23 m 525 178 q 445 191 486 178 q 369 227 404 203 q 316 270 340 245 q 274 326 292 294 q 248 388 258 354 q 239 460 239 422 q 245 528 239 495 q 264 590 252 560 q 305 660 281 628 q 359 715 330 692 q 431 753 392 739 q 513 766 469 766 q 562 762 536 766 q 613 747 589 757 q 652 728 635 739 q 675 704 669 718 l 697 743 l 722 743 l 761 548 l 731 548 q 713 585 722 564 q 692 628 705 606 q 661 667 681 647 q 613 704 640 686 q 578 719 600 715 q 534 723 556 723 q 490 720 511 723 q 456 711 469 716 q 416 686 434 703 q 382 650 397 670 q 358 603 368 628 q 346 553 349 578 q 341 488 342 521 q 345 422 340 454 q 363 344 350 381 q 404 277 377 307 q 443 245 420 258 q 490 227 465 233 q 542 220 515 221 q 593 225 568 220 q 640 243 617 229 q 684 274 663 256 q 715 309 701 290 q 739 345 730 327 l 780 324 q 735 264 762 290 q 677 220 708 239 q 601 189 640 199 q 525 178 562 178 z "},"":{"ha":1057,"x_min":12,"x_max":1006,"o":"m 510 38 q 597 47 555 38 q 678 72 639 56 q 752 112 718 88 q 817 165 787 136 q 870 230 846 195 q 910 304 894 264 q 935 385 926 343 q 944 472 944 427 q 935 559 944 517 q 910 642 926 602 q 870 715 894 681 q 817 780 846 750 q 752 833 787 810 q 678 873 718 857 q 597 899 639 890 q 510 907 555 907 q 422 899 464 907 q 340 873 380 890 q 267 833 301 857 q 202 780 232 810 q 149 715 172 750 q 109 642 125 681 q 83 559 92 602 q 75 472 75 517 q 83 385 75 427 q 109 304 92 343 q 149 230 125 264 q 202 165 172 195 q 267 112 232 136 q 340 72 301 88 q 422 47 380 56 q 510 38 464 38 m 510 -23 q 410 -13 458 -23 q 316 16 361 -3 q 232 61 271 34 q 159 121 193 88 q 98 195 125 155 q 52 279 71 235 q 22 373 33 324 q 12 472 12 422 q 22 572 12 524 q 52 666 33 621 q 98 750 71 711 q 159 823 125 789 q 232 884 193 857 q 316 930 271 911 q 410 960 361 949 q 510 970 458 970 q 609 960 560 970 q 703 930 658 949 q 787 884 747 911 q 860 823 826 857 q 921 750 894 789 q 967 666 948 711 q 996 572 986 621 q 1006 472 1006 524 q 996 373 1006 422 q 967 279 986 324 q 921 195 948 235 q 860 121 894 155 q 787 61 826 88 q 703 16 747 34 q 609 -13 658 -3 q 510 -23 560 -23 m 556 760 q 572 759 559 760 q 602 755 585 758 q 637 748 618 753 q 666 735 655 743 q 687 720 677 728 q 705 701 697 711 q 720 679 713 690 q 728 655 726 667 q 731 622 731 639 q 728 589 731 605 q 718 557 724 572 q 701 530 712 543 q 678 509 692 518 q 650 494 665 500 q 618 485 635 488 q 586 479 602 481 l 747 252 l 807 236 l 807 212 l 674 212 l 494 471 l 382 471 l 382 256 l 458 236 l 458 212 l 227 212 l 227 235 l 302 255 l 302 709 l 224 730 l 224 760 l 556 760 m 525 505 q 557 508 541 505 q 589 518 574 511 q 616 535 604 525 q 635 559 628 545 q 648 593 643 575 q 652 631 654 612 q 641 669 651 651 q 608 703 631 688 q 567 720 589 713 q 522 728 545 726 q 474 728 498 730 q 427 723 450 727 q 410 718 418 722 q 396 710 401 715 q 387 699 391 705 q 384 686 384 693 l 384 505 l 525 505 z "},"":{"ha":836,"x_min":14,"x_max":796,"o":"m 796 949 l 796 906 l 673 872 l 673 75 l 796 41 l 796 0 l 567 0 l 567 907 l 484 907 l 484 0 l 232 0 l 232 41 l 369 77 l 369 414 q 323 415 347 414 q 276 420 300 416 q 228 431 252 425 q 182 445 203 437 q 106 485 141 460 q 49 548 71 510 q 23 607 33 574 q 15 682 14 640 q 31 773 15 732 q 71 844 46 814 q 130 895 96 873 q 199 928 163 916 q 267 945 232 940 q 334 949 301 949 l 796 949 z "},"":{"ha":384,"x_min":129,"x_max":366,"o":"m 247 357 q 201 366 222 357 q 163 392 179 376 q 138 430 148 408 q 129 476 129 452 q 138 522 129 500 q 163 560 148 544 q 201 585 179 576 q 247 594 222 594 q 293 585 271 594 q 331 560 315 576 q 357 522 347 544 q 366 476 366 500 q 357 430 366 452 q 331 392 347 408 q 293 366 315 376 q 247 357 271 357 z "},"":{"ha":1248,"x_min":137,"x_max":1190,"o":"m 319 944 l 319 435 l 416 410 l 416 384 l 137 384 l 137 408 l 235 434 l 235 879 l 137 879 l 137 905 l 283 944 l 319 944 m 1073 579 l 1073 203 l 1190 203 l 1190 155 l 1073 155 l 1073 42 l 1158 19 l 1158 -4 l 911 -4 l 911 20 l 991 42 l 991 155 l 712 155 l 712 195 l 991 579 l 1073 579 m 991 500 l 770 205 l 991 205 l 991 500 m 974 944 l 336 -1 l 263 -1 l 901 944 l 974 944 z "},"":{"ha":1282,"x_min":137,"x_max":1221,"o":"m 319 944 l 319 435 l 416 410 l 416 384 l 137 384 l 137 408 l 235 434 l 235 879 l 137 879 l 137 905 l 283 944 l 319 944 m 974 944 l 336 -1 l 263 -1 l 901 944 l 974 944 m 1221 164 l 1179 0 l 766 0 l 766 62 q 802 85 784 73 q 837 109 819 96 q 898 153 868 130 q 940 189 920 171 q 979 227 960 208 q 1022 276 1002 251 q 1055 327 1042 301 q 1079 381 1070 354 q 1089 437 1088 408 q 1080 488 1090 465 q 1053 525 1070 510 q 1015 548 1036 540 q 972 556 993 556 q 949 553 962 555 q 924 547 937 551 q 899 536 911 543 q 876 522 886 530 q 859 505 865 514 q 850 484 852 495 q 852 459 848 472 q 868 431 856 446 q 873 415 873 423 q 871 399 873 407 q 861 383 867 391 q 850 370 856 376 q 837 363 844 365 q 823 363 830 362 q 809 367 817 363 q 796 376 802 370 q 784 388 789 381 q 775 402 779 395 q 770 417 772 410 q 770 433 769 425 q 775 460 773 446 q 783 486 777 473 q 797 515 788 502 q 818 543 806 529 q 848 565 830 555 q 888 583 865 575 q 930 594 907 590 q 981 601 952 598 q 1021 600 1000 602 q 1065 590 1043 597 q 1094 578 1080 585 q 1120 563 1108 571 q 1149 538 1137 552 q 1172 509 1162 525 q 1185 473 1181 492 q 1188 431 1190 453 q 1179 380 1185 404 q 1161 334 1173 357 q 1132 286 1147 308 q 1099 245 1116 264 q 1063 211 1081 227 q 1024 180 1044 195 q 981 150 1004 164 q 936 122 959 136 q 898 98 917 110 q 860 73 879 87 l 1143 73 l 1169 170 l 1221 164 z "},"":{"ha":1194,"x_min":16,"x_max":1138,"o":"m 974 944 l 336 -1 l 263 -1 l 901 944 l 974 944 m 305 709 q 373 691 342 705 q 427 656 404 677 q 461 608 449 635 q 471 553 473 582 q 464 511 469 530 q 449 475 458 491 q 420 437 437 453 q 382 408 403 420 q 345 390 365 397 q 305 378 326 382 q 264 371 285 373 q 225 369 244 369 q 191 371 209 369 q 155 378 174 373 q 119 390 137 382 q 85 406 100 397 q 56 426 69 415 q 34 449 43 437 q 20 477 24 463 q 16 507 16 491 q 21 526 16 517 q 31 544 26 536 q 46 556 38 551 q 64 563 54 562 q 81 561 72 564 q 98 552 90 557 q 109 538 104 547 q 113 518 114 529 q 111 507 113 513 q 106 496 109 502 q 104 485 104 491 q 104 473 103 479 q 125 445 111 457 q 159 425 140 433 q 198 413 178 416 q 236 410 218 410 q 259 412 247 410 q 283 417 271 414 q 306 427 294 420 q 328 442 317 434 q 348 463 339 452 q 363 489 357 475 q 372 521 369 503 q 373 559 374 538 q 362 612 370 589 q 336 654 354 636 q 290 679 319 670 q 216 688 260 688 l 183 688 l 183 720 l 216 720 q 271 728 248 720 q 309 750 294 736 q 338 791 330 768 q 347 840 347 815 q 337 885 349 865 q 309 918 326 905 q 273 939 293 932 q 235 945 252 945 q 203 942 220 945 q 170 932 186 939 q 143 912 155 924 q 126 884 132 901 q 127 871 125 878 q 133 859 129 864 q 142 827 142 841 q 125 799 141 814 q 111 789 119 792 q 95 787 103 787 q 72 794 81 788 q 57 808 62 800 q 50 828 52 818 q 47 848 47 838 q 52 879 46 864 q 66 907 57 894 q 89 930 76 920 q 117 951 102 941 q 149 966 132 959 q 182 977 165 972 q 216 983 199 981 q 248 983 233 985 q 345 966 308 981 q 403 928 382 951 q 431 876 423 905 q 438 817 438 848 q 425 778 438 796 q 392 746 412 760 q 349 722 373 732 q 305 709 326 712 m 1020 587 l 1020 209 l 1138 209 l 1138 161 l 1020 161 l 1020 47 l 1105 24 l 1105 0 l 859 0 l 859 26 l 939 47 l 939 161 l 658 161 l 658 202 l 939 587 l 1020 587 m 939 509 l 716 212 l 939 212 l 939 509 z "},"":{"ha":1040,"x_min":-49,"x_max":991,"o":"m 401 1010 l 427 1289 q 437 1310 430 1301 q 454 1325 445 1318 q 477 1332 465 1331 q 500 1331 488 1333 q 522 1320 513 1328 q 536 1303 530 1313 q 544 1281 543 1293 q 543 1257 545 1270 l 425 1004 l 401 1010 m 538 948 l 883 71 l 991 42 l 991 0 l 605 0 l 605 46 l 728 79 l 620 354 l 267 354 l 171 81 l 319 42 l 319 0 l -49 0 l -49 42 l 68 73 l 410 948 l 538 948 m 439 825 l 289 418 l 598 418 l 439 825 z "},"":{"ha":1040,"x_min":-49,"x_max":991,"o":"m 439 825 l 289 418 l 598 418 l 439 825 m 538 948 l 883 71 l 991 42 l 991 0 l 605 0 l 605 46 l 728 79 l 620 354 l 267 354 l 171 81 l 319 42 l 319 0 l -49 0 l -49 42 l 68 73 l 410 948 l 538 948 m 547 1010 l 524 1004 l 406 1257 q 404 1281 403 1270 q 412 1302 406 1293 q 427 1320 418 1313 q 448 1331 435 1328 q 471 1332 460 1333 q 494 1324 483 1331 q 511 1310 503 1318 q 521 1289 518 1301 l 547 1010 z "},"":{"ha":1040,"x_min":-49,"x_max":991,"o":"m 538 948 l 883 71 l 991 42 l 991 0 l 605 0 l 605 46 l 728 79 l 620 354 l 267 354 l 171 81 l 319 42 l 319 0 l -49 0 l -49 42 l 68 73 l 410 948 l 538 948 m 439 825 l 289 418 l 598 418 l 439 825 m 574 1065 l 469 1255 l 368 1065 l 316 1065 l 446 1314 l 494 1314 l 623 1065 l 574 1065 z "},"":{"ha":1019,"x_min":41,"x_max":971,"o":"m 834 948 l 925 696 l 883 684 q 838 735 863 711 q 787 780 814 760 q 730 819 760 802 q 669 849 700 836 q 592 876 632 865 q 511 890 552 886 q 447 890 479 892 q 384 883 415 888 q 351 869 366 879 q 327 848 336 860 q 312 819 317 834 q 307 788 307 803 l 307 538 l 534 538 l 576 713 l 628 713 l 628 298 l 581 298 l 533 473 l 307 473 l 307 172 q 313 140 307 156 q 330 109 320 123 q 355 84 340 95 q 387 71 370 73 q 451 62 419 65 q 515 61 483 60 q 597 73 556 64 q 677 100 637 83 q 751 143 713 118 q 825 203 788 168 q 876 255 850 227 q 925 317 901 283 l 971 298 l 846 0 l 46 0 l 46 42 l 164 73 l 164 871 l 41 905 l 41 948 l 834 948 m 401 1009 l 427 1287 q 437 1308 430 1298 q 454 1322 445 1317 q 477 1330 465 1328 q 500 1329 488 1332 q 522 1318 513 1326 q 536 1301 530 1310 q 544 1280 543 1291 q 543 1256 545 1268 l 425 1002 l 401 1009 z "},"":{"ha":1019,"x_min":41,"x_max":971,"o":"m 547 1009 l 524 1002 l 406 1256 q 404 1280 403 1268 q 412 1301 406 1291 q 427 1318 418 1310 q 448 1329 435 1326 q 471 1330 460 1332 q 494 1322 483 1328 q 511 1308 503 1317 q 521 1287 518 1298 l 547 1009 m 834 948 l 925 696 l 883 684 q 838 735 863 711 q 787 780 814 760 q 730 819 760 802 q 669 849 700 836 q 592 876 632 865 q 511 890 552 886 q 447 890 479 892 q 384 883 415 888 q 351 869 366 879 q 327 848 336 860 q 312 819 317 834 q 307 788 307 803 l 307 538 l 534 538 l 576 713 l 628 713 l 628 298 l 581 298 l 533 473 l 307 473 l 307 172 q 313 140 307 156 q 330 109 320 123 q 355 84 340 95 q 387 71 370 73 q 451 62 419 65 q 515 61 483 60 q 597 73 556 64 q 677 100 637 83 q 751 143 713 118 q 825 203 788 168 q 876 255 850 227 q 925 317 901 283 l 971 298 l 846 0 l 46 0 l 46 42 l 164 73 l 164 871 l 41 905 l 41 948 l 834 948 z "},"":{"ha":1019,"x_min":41,"x_max":971,"o":"m 574 1063 l 469 1253 l 368 1063 l 316 1063 l 446 1313 l 494 1313 l 623 1063 l 574 1063 m 834 948 l 925 696 l 883 684 q 838 735 863 711 q 787 780 814 760 q 730 819 760 802 q 669 849 700 837 q 592 876 632 865 q 511 890 552 886 q 447 890 479 892 q 384 883 415 888 q 351 870 366 880 q 327 848 336 860 q 312 819 317 834 q 307 788 307 803 l 307 538 l 534 538 l 576 713 l 628 713 l 628 298 l 581 298 l 533 473 l 307 473 l 307 172 q 313 140 307 157 q 330 109 320 123 q 355 84 340 95 q 387 71 370 73 q 451 63 419 65 q 515 62 483 61 q 597 73 556 64 q 677 100 637 83 q 751 143 713 118 q 825 203 788 168 q 876 255 850 227 q 925 317 901 283 l 971 298 l 846 0 l 46 0 l 46 42 l 164 75 l 164 872 l 41 905 l 41 948 l 834 948 z "},"":{"ha":437,"x_min":38,"x_max":416,"o":"m 416 949 l 416 910 l 296 878 l 296 75 l 414 42 l 414 0 l 42 0 l 42 45 l 155 75 l 155 879 l 38 910 l 38 949 l 416 949 m 165 1010 l 191 1289 q 202 1310 194 1301 q 220 1325 210 1320 q 241 1333 229 1331 q 264 1332 254 1335 q 286 1320 277 1328 q 301 1303 296 1313 q 309 1282 307 1294 q 307 1257 311 1270 l 189 1005 l 165 1010 z "},"":{"ha":437,"x_min":38,"x_max":416,"o":"m 416 949 l 416 910 l 296 878 l 296 75 l 414 42 l 414 0 l 42 0 l 42 45 l 155 75 l 155 879 l 38 910 l 38 949 l 416 949 m 312 1010 l 289 1005 l 170 1257 q 169 1282 167 1270 q 176 1303 171 1294 q 191 1320 182 1313 q 213 1332 201 1328 q 236 1333 224 1335 q 258 1325 248 1331 q 275 1310 267 1320 q 286 1289 282 1301 l 312 1010 z "},"":{"ha":437,"x_min":38,"x_max":416,"o":"m 328 1066 l 224 1255 l 122 1065 l 71 1065 l 199 1314 l 248 1314 l 377 1066 l 328 1066 m 416 949 l 416 910 l 296 876 l 296 75 l 414 42 l 414 0 l 42 0 l 42 45 l 155 75 l 155 879 l 38 910 l 38 949 l 416 949 z "},"":{"ha":1096,"x_min":53,"x_max":1044,"o":"m 560 -28 q 460 -18 509 -28 q 366 8 411 -8 q 279 54 320 27 q 203 114 239 81 q 142 188 170 148 q 94 273 114 228 q 64 366 75 317 q 53 467 53 415 q 62 568 53 518 q 90 662 72 617 q 134 749 107 708 q 193 823 160 789 q 264 886 225 859 q 347 933 304 913 q 441 963 392 952 q 544 974 491 974 q 647 964 597 974 q 742 935 697 954 q 827 890 787 917 q 901 830 868 863 q 961 757 935 796 q 1006 673 987 718 q 1035 581 1025 629 q 1044 479 1044 532 q 1035 378 1044 427 q 1008 283 1025 328 q 963 197 989 237 q 905 121 937 156 q 833 58 872 85 q 751 11 795 30 q 660 -18 708 -8 q 560 -28 612 -28 m 544 41 q 623 50 586 41 q 690 76 659 58 q 749 118 722 94 q 796 174 776 142 q 834 239 818 203 q 861 314 850 275 q 878 395 872 353 q 883 480 883 437 q 878 564 883 522 q 862 643 872 605 q 836 715 852 681 q 799 779 819 750 q 753 831 779 807 q 697 871 727 854 q 633 895 667 887 q 559 903 598 903 q 420 871 483 902 q 315 787 358 841 q 246 660 270 734 q 222 498 222 586 q 227 411 222 454 q 242 328 232 368 q 267 251 252 288 q 301 183 281 214 q 345 125 320 151 q 401 81 370 99 q 467 52 431 62 q 544 41 503 42 m 449 1009 l 473 1287 q 485 1309 477 1299 q 502 1324 492 1318 q 524 1331 511 1329 q 548 1329 536 1333 q 568 1319 559 1326 q 583 1302 578 1312 q 591 1280 589 1293 q 590 1256 593 1268 l 471 1004 l 449 1009 z "},"":{"ha":1096,"x_min":53,"x_max":1044,"o":"m 544 41 q 623 50 586 41 q 690 76 659 58 q 749 118 722 94 q 796 174 776 142 q 834 239 818 203 q 861 314 850 275 q 878 395 872 353 q 883 480 883 437 q 878 564 883 522 q 862 643 872 605 q 836 715 852 681 q 799 779 819 750 q 753 831 779 807 q 697 871 727 854 q 633 895 667 887 q 559 903 598 903 q 420 871 483 902 q 315 787 358 841 q 246 660 270 734 q 222 498 222 586 q 227 411 222 454 q 242 328 232 368 q 267 251 252 288 q 301 183 281 214 q 345 125 320 151 q 401 81 370 99 q 467 52 431 62 q 544 41 503 42 m 560 -28 q 460 -18 509 -28 q 366 8 411 -8 q 279 54 320 27 q 203 114 239 81 q 142 188 170 148 q 94 273 114 228 q 64 366 75 317 q 53 467 53 415 q 62 568 53 518 q 90 662 72 617 q 134 749 107 708 q 193 823 160 789 q 264 886 225 859 q 347 933 304 913 q 441 963 392 952 q 544 974 491 974 q 647 964 597 974 q 742 935 697 954 q 827 890 787 917 q 901 830 868 863 q 961 757 935 796 q 1006 673 987 718 q 1035 581 1025 629 q 1044 479 1044 532 q 1035 378 1044 427 q 1008 283 1025 328 q 963 197 989 237 q 905 121 937 156 q 833 58 872 85 q 751 11 795 30 q 660 -18 708 -8 q 560 -28 612 -28 m 594 1009 l 571 1004 l 453 1256 q 451 1280 449 1268 q 458 1302 453 1293 q 473 1319 464 1312 q 495 1329 483 1326 q 519 1331 507 1333 q 540 1324 530 1329 q 558 1309 551 1318 q 568 1287 566 1299 l 594 1009 z "},"":{"ha":1096,"x_min":53,"x_max":1044,"o":"m 643 1065 l 538 1253 l 435 1063 l 385 1063 l 514 1313 l 563 1313 l 692 1065 l 643 1065 m 560 -28 q 460 -18 509 -28 q 366 8 411 -8 q 279 54 320 27 q 203 114 239 81 q 142 188 170 148 q 94 273 114 228 q 64 366 75 317 q 53 467 53 415 q 62 568 53 518 q 90 662 72 617 q 134 749 107 708 q 193 823 160 789 q 264 886 225 859 q 347 933 304 913 q 441 963 392 952 q 544 974 491 974 q 647 964 597 974 q 742 935 697 954 q 827 890 787 917 q 901 830 868 863 q 961 757 935 796 q 1006 673 987 718 q 1035 581 1025 629 q 1044 479 1044 532 q 1035 378 1044 427 q 1008 283 1025 328 q 963 197 989 237 q 905 121 937 156 q 833 58 872 85 q 751 11 795 30 q 660 -18 708 -8 q 560 -28 612 -28 m 544 41 q 623 50 586 41 q 690 76 659 58 q 749 118 722 94 q 796 174 776 142 q 834 239 818 203 q 861 314 850 275 q 878 395 872 353 q 883 480 883 437 q 878 564 883 522 q 862 643 872 605 q 836 715 852 681 q 799 779 819 750 q 753 831 779 807 q 697 871 727 854 q 633 895 667 887 q 559 903 598 903 q 420 871 483 902 q 315 787 358 841 q 246 660 270 734 q 222 498 222 586 q 227 411 222 454 q 242 328 232 368 q 267 251 252 288 q 301 183 281 214 q 345 125 320 151 q 401 81 370 99 q 467 52 431 62 q 544 41 503 42 z "},"":{"ha":1093,"x_min":31,"x_max":1042,"o":"m 439 954 l 439 911 l 302 873 l 302 250 q 310 200 302 225 q 331 152 317 175 q 363 111 345 129 q 403 84 381 94 q 485 60 442 68 q 571 50 528 52 q 657 58 614 50 q 738 84 700 66 q 783 117 764 95 q 814 165 802 140 q 833 222 827 194 q 840 277 840 251 l 840 875 l 705 910 l 705 949 l 1042 949 l 1042 906 l 918 873 l 918 221 q 906 154 918 184 q 873 99 894 123 q 840 64 859 80 q 803 31 822 47 q 770 13 788 20 q 734 1 753 5 q 697 -7 716 -4 q 659 -12 678 -9 q 604 -18 632 -16 q 547 -19 575 -20 q 496 -17 521 -19 q 446 -12 471 -15 q 374 1 410 -8 q 307 28 338 11 q 271 52 288 39 q 239 79 254 65 q 212 107 224 92 q 190 138 199 122 q 171 186 178 161 q 164 240 164 212 l 164 875 l 31 910 l 31 954 l 439 954 m 496 1009 l 522 1287 q 532 1309 525 1299 q 549 1324 540 1318 q 572 1331 560 1329 q 595 1329 583 1333 q 616 1319 608 1326 q 631 1302 625 1312 q 639 1280 637 1293 q 637 1256 640 1268 l 519 1004 l 496 1009 z "},"":{"ha":1093,"x_min":31,"x_max":1042,"o":"m 439 954 l 439 911 l 302 873 l 302 250 q 310 200 302 225 q 331 152 317 175 q 363 111 345 129 q 403 84 381 94 q 485 60 442 68 q 571 50 528 52 q 657 58 614 50 q 738 84 700 66 q 783 117 764 95 q 814 165 802 140 q 833 222 827 194 q 840 277 840 251 l 840 875 l 705 910 l 705 949 l 1042 949 l 1042 906 l 918 873 l 918 221 q 906 154 918 184 q 873 99 894 123 q 840 64 859 80 q 803 31 822 47 q 770 13 788 20 q 734 1 753 5 q 697 -7 716 -4 q 659 -12 678 -9 q 604 -18 632 -16 q 547 -19 575 -20 q 496 -17 521 -19 q 446 -12 471 -15 q 374 1 410 -8 q 307 28 338 11 q 271 52 288 39 q 239 79 254 65 q 212 107 224 92 q 190 138 199 122 q 171 186 178 161 q 164 240 164 212 l 164 875 l 31 910 l 31 954 l 439 954 m 597 1009 l 574 1004 l 456 1256 q 454 1280 453 1268 q 461 1302 456 1293 q 477 1319 468 1312 q 498 1329 486 1326 q 522 1331 510 1333 q 543 1324 533 1329 q 561 1309 553 1318 q 571 1287 568 1299 l 597 1009 z "},"":{"ha":1093,"x_min":31,"x_max":1042,"o":"m 439 954 l 439 911 l 302 873 l 302 250 q 310 200 302 225 q 331 152 317 175 q 363 111 345 129 q 403 84 381 94 q 485 60 442 68 q 571 50 528 52 q 657 58 614 50 q 738 84 700 66 q 783 117 764 95 q 814 165 802 140 q 833 222 827 194 q 840 277 840 251 l 840 875 l 705 910 l 705 949 l 1042 949 l 1042 906 l 918 873 l 918 221 q 906 154 918 184 q 873 99 894 123 q 840 64 859 80 q 803 31 822 47 q 770 13 788 20 q 734 1 753 5 q 697 -7 716 -4 q 659 -12 678 -9 q 604 -18 632 -16 q 547 -19 575 -20 q 496 -17 521 -19 q 446 -12 471 -15 q 374 1 410 -8 q 307 28 338 11 q 271 52 288 39 q 239 79 254 65 q 212 107 224 92 q 190 138 199 122 q 171 186 178 161 q 164 240 164 212 l 164 875 l 31 910 l 31 954 l 439 954 m 647 1065 l 543 1253 l 441 1063 l 389 1063 l 519 1313 l 567 1313 l 696 1065 l 647 1065 z "},"":{"ha":827,"x_min":46,"x_max":788,"o":"m 517 343 q 479 340 499 342 q 438 336 458 339 q 396 330 418 334 q 354 321 374 327 q 315 309 334 316 q 279 293 297 302 q 247 273 262 283 q 220 247 232 262 q 203 220 210 235 q 193 192 195 206 q 190 163 190 178 q 194 134 190 148 q 206 107 198 119 q 226 85 214 95 q 253 69 237 76 q 288 61 269 62 q 355 62 323 57 q 422 84 388 68 q 467 111 444 95 q 517 148 491 127 l 517 343 m 518 392 l 518 521 q 504 566 518 545 q 467 600 490 586 q 416 622 445 614 q 359 629 388 629 q 334 627 349 629 q 304 622 319 625 q 275 614 289 618 q 248 604 260 610 q 220 582 231 594 q 213 555 210 570 q 212 519 214 537 q 203 486 210 502 q 182 461 195 471 q 145 453 168 452 q 136 454 141 453 q 125 456 132 454 q 113 461 119 458 q 100 468 106 464 q 90 478 95 472 q 83 492 85 484 q 80 510 80 500 q 83 532 80 519 q 97 568 87 551 q 122 600 107 585 q 162 633 140 618 q 208 654 184 647 q 283 672 244 665 q 362 681 323 680 q 441 680 401 684 q 517 663 480 675 q 566 642 541 655 q 609 609 590 628 q 640 564 628 590 q 652 506 652 538 l 652 79 l 788 42 l 788 0 l 598 0 l 518 87 q 458 47 486 64 q 407 20 431 31 q 363 4 384 9 q 321 -4 342 -1 q 277 -7 300 -7 q 229 -5 255 -8 q 174 4 203 -4 q 119 27 145 12 q 76 62 95 42 q 52 109 57 83 q 49 152 46 129 q 58 197 52 175 q 70 223 64 210 q 83 247 76 236 q 99 267 91 258 q 117 281 107 275 q 212 332 161 311 q 315 366 262 353 q 415 385 363 378 q 518 392 467 391 m 307 758 l 332 1036 q 344 1057 336 1048 q 361 1073 351 1066 q 382 1080 370 1078 q 406 1078 395 1081 q 427 1068 418 1076 q 442 1050 437 1061 q 450 1029 448 1040 q 448 1005 452 1017 l 330 751 l 307 758 z "},"":{"ha":827,"x_min":46,"x_max":788,"o":"m 518 392 l 518 521 q 504 566 518 545 q 467 600 490 586 q 416 622 445 614 q 359 629 388 629 q 334 627 349 629 q 304 622 319 625 q 275 614 289 618 q 248 604 260 610 q 220 582 231 594 q 213 555 210 570 q 212 519 214 537 q 203 486 210 502 q 182 461 195 471 q 145 453 168 452 q 136 454 141 453 q 125 456 132 454 q 113 461 119 458 q 100 468 106 464 q 90 478 95 472 q 83 492 85 484 q 80 510 80 500 q 83 532 80 519 q 97 568 87 551 q 122 600 107 585 q 162 633 140 618 q 208 654 184 647 q 283 672 244 665 q 362 681 323 680 q 441 680 401 684 q 517 663 480 675 q 566 642 541 655 q 609 609 590 628 q 640 564 628 590 q 652 506 652 538 l 652 79 l 788 42 l 788 0 l 598 0 l 518 87 q 458 47 486 64 q 407 20 431 31 q 363 4 384 9 q 321 -4 342 -1 q 277 -7 300 -7 q 229 -5 255 -8 q 174 4 203 -4 q 119 27 145 12 q 76 62 95 42 q 52 109 57 83 q 49 152 46 129 q 58 197 52 175 q 70 223 64 210 q 83 247 76 236 q 99 267 91 258 q 117 281 107 275 q 212 332 161 311 q 315 366 262 353 q 415 385 363 378 q 518 392 467 391 m 517 343 q 479 340 499 342 q 438 336 458 339 q 396 330 418 334 q 354 321 374 327 q 315 309 334 316 q 279 293 297 302 q 247 273 262 283 q 220 247 232 262 q 203 220 210 235 q 193 192 195 206 q 190 163 190 178 q 194 134 190 148 q 206 107 198 119 q 226 85 214 95 q 253 69 237 76 q 288 61 269 62 q 355 62 323 57 q 422 84 388 68 q 467 111 444 95 q 517 148 491 127 l 517 343 m 453 758 l 430 751 l 311 1005 q 310 1029 308 1017 q 317 1050 312 1040 q 332 1068 323 1061 q 354 1078 342 1076 q 377 1080 365 1081 q 399 1073 389 1078 q 416 1057 408 1066 q 427 1036 423 1048 l 453 758 z "},"":{"ha":827,"x_min":46,"x_max":788,"o":"m 517 343 q 479 340 499 342 q 438 336 458 339 q 396 330 418 334 q 354 321 374 327 q 315 309 334 316 q 279 293 297 302 q 247 273 262 283 q 220 247 232 262 q 203 220 210 235 q 193 192 195 206 q 190 163 190 178 q 194 134 190 148 q 206 107 198 119 q 226 85 214 95 q 253 69 237 76 q 288 61 269 62 q 355 62 323 57 q 422 84 388 68 q 467 111 444 95 q 517 148 491 127 l 517 343 m 518 392 l 518 521 q 504 566 518 545 q 467 600 490 586 q 416 622 445 614 q 359 629 388 629 q 334 627 349 629 q 304 622 319 625 q 275 614 289 618 q 248 604 260 610 q 220 582 231 594 q 213 555 210 570 q 212 519 214 537 q 203 486 210 502 q 182 461 195 471 q 145 453 168 452 q 136 454 141 453 q 125 456 132 454 q 113 461 119 458 q 100 468 106 464 q 90 478 95 472 q 83 492 85 484 q 80 510 80 500 q 83 532 80 519 q 97 568 87 551 q 122 600 107 585 q 162 633 140 618 q 208 654 184 647 q 283 672 244 665 q 362 681 323 680 q 441 680 401 684 q 517 663 480 675 q 566 642 541 655 q 609 609 590 628 q 640 564 628 590 q 652 506 652 538 l 652 79 l 788 42 l 788 0 l 598 0 l 518 87 q 458 47 486 64 q 407 20 431 31 q 363 4 384 9 q 321 -4 342 -1 q 277 -7 300 -7 q 229 -5 255 -8 q 174 4 203 -4 q 119 27 145 12 q 76 62 95 42 q 52 109 57 83 q 49 152 46 129 q 58 197 52 175 q 70 223 64 210 q 83 247 76 236 q 99 267 91 258 q 117 281 107 275 q 212 332 161 311 q 315 366 262 353 q 415 385 363 378 q 518 392 467 391 m 522 840 l 418 1028 l 315 838 l 264 838 l 393 1088 l 442 1088 l 571 840 l 522 840 z "},"":{"ha":716,"x_min":50,"x_max":682,"o":"m 205 458 l 532 458 q 529 498 533 477 q 517 540 525 519 q 496 577 509 560 q 467 604 483 594 q 422 625 445 617 q 376 632 400 632 q 328 625 353 632 q 281 602 304 617 q 250 573 264 590 q 224 537 235 556 q 208 498 213 518 q 205 458 202 477 m 198 401 q 195 365 195 385 q 195 321 194 345 q 197 287 195 305 q 203 251 199 269 q 215 210 208 229 q 232 174 222 190 q 256 141 243 157 q 282 110 269 125 q 315 83 297 95 q 354 64 332 72 q 402 51 376 54 q 460 50 429 47 q 488 56 473 52 q 518 68 503 61 q 547 84 533 75 q 574 103 560 94 q 612 141 595 121 q 632 178 628 161 l 677 156 q 661 119 673 137 q 632 84 650 100 q 579 43 609 61 q 514 12 549 24 q 440 -6 479 0 q 363 -9 401 -12 q 294 2 330 -8 q 228 30 259 12 q 174 66 199 45 q 127 114 148 88 q 100 153 113 132 q 80 198 88 174 q 64 248 71 222 q 54 297 58 273 q 52 367 50 332 q 61 434 54 401 q 85 504 69 471 q 122 566 100 537 q 159 607 138 589 q 205 639 180 625 q 256 663 229 654 q 311 678 283 673 q 368 684 339 684 q 425 682 397 685 q 483 671 454 680 q 536 650 511 663 q 578 623 559 639 q 614 586 598 606 q 645 541 632 564 q 666 492 658 518 q 678 448 674 471 q 681 401 682 425 l 198 401 m 307 758 l 332 1036 q 344 1057 336 1048 q 361 1073 351 1066 q 382 1080 370 1078 q 406 1078 395 1081 q 427 1068 418 1076 q 442 1050 437 1061 q 450 1029 448 1040 q 448 1005 452 1017 l 330 751 l 307 758 z "},"":{"ha":716,"x_min":50,"x_max":682,"o":"m 198 401 q 195 365 195 385 q 195 321 194 345 q 197 287 195 305 q 203 251 199 269 q 215 210 208 229 q 232 174 222 190 q 256 141 243 157 q 282 110 269 125 q 315 83 297 95 q 354 64 332 72 q 402 51 376 54 q 460 50 429 47 q 488 56 473 52 q 518 68 503 61 q 547 84 533 75 q 574 103 560 94 q 612 141 595 121 q 632 178 628 161 l 677 156 q 661 119 673 137 q 632 84 650 100 q 579 43 609 61 q 514 12 549 24 q 440 -6 479 0 q 363 -9 401 -12 q 294 2 330 -8 q 228 30 259 12 q 174 66 199 45 q 127 114 148 88 q 100 153 113 132 q 80 198 88 174 q 64 248 71 222 q 54 297 58 273 q 52 367 50 332 q 61 434 54 401 q 85 504 69 471 q 122 566 100 537 q 159 607 138 589 q 205 639 180 625 q 256 663 229 654 q 311 678 283 673 q 368 684 339 684 q 425 682 397 685 q 483 671 454 680 q 536 650 511 663 q 578 623 559 639 q 614 586 598 606 q 645 541 632 564 q 666 492 658 518 q 678 448 674 471 q 681 401 682 425 l 198 401 m 205 458 l 532 458 q 529 498 533 477 q 517 540 525 519 q 496 577 509 560 q 467 604 483 594 q 422 625 445 617 q 376 632 400 632 q 328 625 353 632 q 281 602 304 617 q 250 573 264 590 q 224 537 235 556 q 208 498 213 518 q 205 458 202 477 m 453 758 l 430 751 l 311 1005 q 310 1029 308 1017 q 317 1050 312 1040 q 332 1068 323 1061 q 354 1078 342 1076 q 377 1080 365 1081 q 399 1073 389 1078 q 416 1057 408 1066 q 427 1036 423 1048 l 453 758 z "},"":{"ha":716,"x_min":50,"x_max":682,"o":"m 484 840 l 380 1028 l 278 838 l 228 838 l 357 1088 l 404 1088 l 534 840 l 484 840 m 205 458 l 532 458 q 529 498 533 477 q 517 540 525 519 q 496 577 509 560 q 467 604 483 594 q 422 625 445 617 q 376 632 400 632 q 328 625 353 632 q 281 602 304 617 q 250 573 264 590 q 224 537 235 556 q 208 498 213 518 q 205 458 202 477 m 198 401 q 195 365 195 385 q 195 321 194 345 q 197 287 195 305 q 203 251 199 269 q 215 210 208 229 q 232 174 222 190 q 256 141 243 157 q 282 110 269 125 q 315 83 297 95 q 354 64 332 72 q 402 51 376 54 q 460 50 429 47 q 488 56 473 52 q 518 68 503 61 q 547 84 533 75 q 574 103 560 94 q 612 141 595 121 q 632 178 628 161 l 677 156 q 661 119 673 137 q 632 84 650 100 q 579 43 609 61 q 514 12 549 24 q 440 -6 479 0 q 363 -9 401 -12 q 294 2 330 -8 q 228 30 259 12 q 174 66 199 45 q 127 114 148 88 q 100 153 113 132 q 80 198 88 174 q 64 248 71 222 q 54 297 58 273 q 52 367 50 332 q 61 434 54 401 q 85 504 69 471 q 122 566 100 537 q 159 607 138 589 q 205 639 180 625 q 256 663 229 654 q 311 678 283 673 q 368 684 339 684 q 425 682 397 685 q 483 671 454 680 q 536 650 511 663 q 578 623 559 639 q 614 586 598 606 q 645 541 632 564 q 666 492 658 518 q 678 448 674 471 q 681 401 682 425 l 198 401 z "},"":{"ha":415,"x_min":31,"x_max":396,"o":"m 134 758 l 160 1036 q 170 1057 163 1048 q 189 1073 178 1066 q 210 1080 198 1078 q 233 1078 221 1081 q 254 1068 245 1076 q 270 1050 263 1061 q 277 1029 275 1040 q 275 1005 279 1017 l 157 751 l 134 758 m 281 673 l 281 71 l 396 41 l 396 0 l 31 0 l 31 39 l 149 72 l 149 591 l 33 591 l 33 647 l 281 673 z "},"":{"ha":415,"x_min":31,"x_max":396,"o":"m 281 673 l 281 71 l 396 41 l 396 0 l 31 0 l 31 39 l 149 72 l 149 591 l 33 591 l 33 647 l 281 673 m 243 758 l 221 751 l 102 1005 q 100 1029 99 1017 q 109 1050 102 1040 q 123 1068 114 1061 q 144 1078 133 1076 q 168 1080 156 1081 q 190 1073 180 1078 q 207 1057 199 1066 q 218 1036 214 1048 l 243 758 z "},"":{"ha":415,"x_min":30,"x_max":396,"o":"m 281 673 l 281 71 l 396 41 l 396 0 l 31 0 l 31 39 l 149 72 l 149 591 l 33 591 l 33 647 l 281 673 m 286 840 l 182 1028 l 80 838 l 30 838 l 159 1088 l 206 1088 l 336 840 l 286 840 z "},"":{"ha":765,"x_min":49,"x_max":730,"o":"m 388 -9 q 319 -5 353 -9 q 255 11 286 0 q 198 40 225 23 q 148 79 171 57 q 106 128 125 100 q 75 190 88 156 q 56 261 62 222 q 49 343 49 300 q 56 425 49 387 q 77 495 64 463 q 108 553 90 526 q 149 602 126 581 q 199 640 172 624 q 256 666 227 655 q 319 682 286 677 q 388 688 353 688 q 456 682 423 688 q 521 665 490 677 q 578 637 551 654 q 628 600 605 621 q 670 551 651 578 q 701 491 689 524 q 722 421 715 458 q 730 340 728 384 q 723 260 730 298 q 703 190 716 222 q 671 130 690 157 q 629 79 652 102 q 579 40 606 57 q 521 12 552 23 q 456 -5 490 0 q 388 -9 423 -9 m 388 39 q 424 43 406 39 q 460 56 442 47 q 494 77 477 64 q 524 107 510 90 q 549 148 537 125 q 568 199 560 171 q 581 262 576 228 q 585 338 585 297 q 565 477 582 420 q 521 568 548 533 q 460 619 495 604 q 391 635 426 635 q 355 631 373 635 q 319 621 336 628 q 287 603 302 614 q 258 575 271 591 q 231 536 243 559 q 212 486 220 514 q 198 422 203 457 q 193 345 193 388 q 195 267 191 302 q 208 201 199 231 q 227 148 216 171 q 252 107 239 125 q 283 77 267 90 q 317 56 300 64 q 352 43 334 47 q 388 39 370 39 m 339 758 l 363 1036 q 375 1057 368 1048 q 392 1073 382 1066 q 414 1080 401 1078 q 438 1078 426 1081 q 458 1068 449 1076 q 473 1050 468 1061 q 481 1029 479 1040 q 480 1005 483 1017 l 361 751 l 339 758 z "},"":{"ha":765,"x_min":49,"x_max":730,"o":"m 388 39 q 424 43 406 39 q 460 56 442 47 q 494 77 477 64 q 524 107 510 90 q 549 148 537 125 q 568 199 560 171 q 581 262 576 228 q 585 338 585 297 q 565 477 582 420 q 521 568 548 533 q 460 619 495 604 q 391 635 426 635 q 355 631 373 635 q 319 621 336 628 q 287 603 302 614 q 258 575 271 591 q 231 536 243 559 q 212 486 220 514 q 198 422 203 457 q 193 345 193 388 q 195 267 191 302 q 208 201 199 231 q 227 148 216 171 q 252 107 239 125 q 283 77 267 90 q 317 56 300 64 q 352 43 334 47 q 388 39 370 39 m 388 -9 q 319 -5 353 -9 q 255 11 286 0 q 198 40 225 23 q 148 79 171 57 q 106 128 125 100 q 75 190 88 156 q 56 261 62 222 q 49 343 49 300 q 56 425 49 387 q 77 495 64 463 q 108 553 90 526 q 149 602 126 581 q 199 640 172 624 q 256 666 227 655 q 319 682 286 677 q 388 688 353 688 q 456 682 423 688 q 521 665 490 677 q 578 637 551 654 q 628 600 605 621 q 670 551 651 578 q 701 491 689 524 q 722 421 715 458 q 730 340 728 384 q 723 260 730 298 q 703 190 716 222 q 671 130 690 157 q 629 79 652 102 q 579 40 606 57 q 521 12 552 23 q 456 -5 490 0 q 388 -9 423 -9 m 453 758 l 430 751 l 311 1005 q 310 1029 308 1017 q 317 1050 312 1040 q 332 1068 323 1061 q 354 1078 342 1076 q 377 1080 365 1081 q 399 1073 389 1078 q 416 1057 408 1066 q 427 1036 423 1048 l 453 758 z "},"":{"ha":765,"x_min":49,"x_max":730,"o":"m 484 840 l 380 1028 l 278 838 l 228 838 l 357 1088 l 404 1088 l 534 840 l 484 840 m 388 -9 q 319 -5 353 -9 q 255 11 286 0 q 198 40 225 23 q 148 79 171 57 q 106 128 125 100 q 75 190 88 156 q 56 261 62 222 q 49 343 49 300 q 56 425 49 387 q 77 495 64 463 q 108 553 90 526 q 149 602 126 581 q 199 640 172 624 q 256 666 227 655 q 319 682 286 677 q 388 688 353 688 q 456 682 423 688 q 521 665 490 677 q 578 637 551 654 q 628 600 605 621 q 670 551 651 578 q 701 491 689 524 q 722 421 715 458 q 730 340 728 384 q 723 260 730 298 q 703 190 716 222 q 671 130 690 157 q 629 79 652 102 q 579 40 606 57 q 521 12 552 23 q 456 -5 490 0 q 388 -9 423 -9 m 388 39 q 424 43 406 39 q 460 56 442 47 q 494 77 477 64 q 524 107 510 90 q 549 148 537 125 q 568 199 560 171 q 581 262 576 228 q 585 338 585 297 q 565 477 582 420 q 521 568 548 533 q 460 619 495 604 q 391 635 426 635 q 355 631 373 635 q 319 621 336 628 q 287 603 302 614 q 258 575 271 591 q 231 536 243 559 q 212 486 220 514 q 198 422 203 457 q 193 345 193 388 q 195 267 191 302 q 208 201 199 231 q 227 148 216 171 q 252 107 239 125 q 283 77 267 90 q 317 56 300 64 q 352 43 334 47 q 388 39 370 39 z "},"":{"ha":948,"x_min":27,"x_max":903,"o":"m 283 674 l 283 180 q 286 152 283 167 q 292 123 288 137 q 308 91 297 106 q 334 69 319 76 q 378 58 355 61 q 425 57 401 56 q 472 66 449 60 q 517 83 495 73 q 559 104 538 92 q 601 129 581 115 q 630 150 616 138 q 656 174 644 161 l 656 581 l 538 581 l 538 618 l 745 674 l 791 674 l 791 72 l 903 42 l 903 0 l 655 0 l 655 113 q 632 94 644 103 q 606 76 620 85 q 580 56 594 65 q 552 38 566 46 q 516 20 534 28 q 479 5 498 11 q 439 -3 460 0 q 399 -8 419 -5 q 353 -9 376 -9 q 308 -5 330 -8 q 270 3 289 -1 q 235 16 251 8 q 212 31 222 22 q 193 50 201 39 q 176 73 183 60 q 164 99 170 85 q 154 131 157 114 q 151 164 151 148 l 151 585 l 27 585 l 27 620 l 232 674 l 283 674 m 407 758 l 431 1036 q 443 1057 435 1048 q 460 1073 450 1066 q 481 1080 469 1078 q 506 1078 494 1081 q 526 1068 517 1076 q 541 1050 536 1061 q 549 1029 548 1040 q 548 1005 551 1017 l 429 751 l 407 758 z "},"":{"ha":948,"x_min":27,"x_max":903,"o":"m 283 674 l 283 180 q 286 152 283 167 q 292 123 288 137 q 308 91 297 106 q 334 69 319 76 q 378 58 355 61 q 425 57 401 56 q 472 66 449 60 q 517 83 495 73 q 559 104 538 92 q 601 129 581 115 q 630 150 616 138 q 656 174 644 161 l 656 581 l 538 581 l 538 618 l 745 674 l 791 674 l 791 72 l 903 42 l 903 0 l 655 0 l 655 113 q 632 94 644 103 q 606 76 620 85 q 580 56 594 65 q 552 38 566 46 q 516 20 534 28 q 479 5 498 11 q 439 -3 460 0 q 399 -8 419 -5 q 353 -9 376 -9 q 308 -5 330 -8 q 270 3 289 -1 q 235 16 251 8 q 212 31 222 22 q 193 50 201 39 q 176 73 183 60 q 164 99 170 85 q 154 131 157 114 q 151 164 151 148 l 151 585 l 27 585 l 27 620 l 232 674 l 283 674 m 530 758 l 509 751 l 389 1005 q 389 1029 387 1017 q 396 1050 391 1040 q 411 1068 401 1061 q 431 1078 420 1076 q 456 1080 444 1081 q 477 1073 468 1078 q 494 1057 487 1066 q 506 1036 502 1048 l 530 758 z "},"":{"ha":948,"x_min":27,"x_max":903,"o":"m 585 818 l 480 1008 l 377 818 l 327 818 l 456 1067 l 505 1067 l 633 818 l 585 818 m 283 674 l 283 180 q 286 152 283 167 q 292 123 288 137 q 308 91 297 106 q 334 69 319 76 q 378 58 355 61 q 425 57 401 56 q 472 66 449 60 q 517 83 495 73 q 559 104 538 92 q 601 129 581 115 q 630 150 616 138 q 656 174 644 161 l 656 581 l 538 581 l 538 618 l 745 674 l 791 674 l 791 72 l 903 42 l 903 0 l 655 0 l 655 113 q 632 94 644 103 q 606 76 620 85 q 580 56 594 65 q 552 38 566 46 q 516 20 534 28 q 479 5 498 11 q 439 -3 460 0 q 399 -8 419 -5 q 353 -9 376 -9 q 308 -5 330 -8 q 270 3 289 -1 q 235 16 251 8 q 212 31 222 22 q 193 50 201 39 q 176 73 183 60 q 164 99 170 85 q 154 131 157 114 q 151 164 151 148 l 151 585 l 27 585 l 27 620 l 232 674 l 283 674 z "},"":{"ha":864,"x_min":5,"x_max":823,"o":"m 38 71 l 38 251 q 37 251 38 251 q 35 251 35 251 q 25 254 30 251 q 16 258 20 258 q 11 267 14 260 q 7 279 8 273 q 9 291 7 286 q 20 296 12 296 q 30 297 24 296 q 39 298 35 298 q 91 300 68 298 q 134 300 114 301 q 174 292 155 298 q 216 269 194 285 q 218 267 217 269 q 221 263 220 264 q 241 236 233 250 q 252 208 248 222 q 256 178 255 194 q 258 145 258 163 q 257 142 258 145 q 255 134 256 138 q 252 123 254 129 q 249 110 251 117 q 245 97 247 103 q 243 85 244 91 q 241 77 241 80 q 240 75 240 75 q 233 64 237 69 q 222 56 228 60 q 219 54 221 56 q 216 52 217 53 q 190 33 205 39 q 159 24 175 27 q 125 22 142 22 q 90 22 107 22 q 71 21 81 22 q 52 21 61 20 q 33 24 42 22 q 16 30 23 26 q 12 33 14 31 q 9 38 11 35 q 7 52 5 45 q 14 64 8 58 q 24 69 18 68 q 38 71 31 71 m 84 71 l 133 71 q 140 71 136 71 q 146 71 144 71 q 159 73 152 71 q 174 78 167 75 q 188 86 182 81 q 197 96 194 91 q 207 112 203 103 q 211 130 210 121 q 212 149 212 140 q 212 168 212 159 q 212 173 212 170 q 212 179 212 176 q 201 222 212 208 q 175 244 191 237 q 138 252 159 251 q 98 252 118 252 q 91 252 95 252 q 84 251 87 251 l 84 71 m 536 109 l 536 46 q 524 40 530 43 q 513 35 518 37 q 500 30 506 33 q 488 26 494 27 q 467 20 477 22 q 446 19 456 19 q 425 20 435 19 q 403 20 414 20 q 384 24 393 20 q 366 34 374 28 q 351 43 358 39 q 336 47 343 47 q 334 48 335 47 q 332 49 332 49 q 330 52 331 50 q 327 56 328 53 q 322 59 324 57 q 319 64 320 61 q 309 87 313 76 q 300 111 304 99 q 295 134 297 122 q 293 160 293 146 q 294 166 293 163 q 294 172 294 170 q 294 174 294 172 q 294 176 294 175 q 295 179 294 178 q 296 182 296 180 q 298 193 296 187 q 305 206 301 199 q 313 220 309 213 q 319 231 316 227 q 322 237 320 233 q 327 243 324 240 q 330 249 328 245 q 335 255 332 252 q 347 268 340 260 q 361 283 354 275 q 378 295 369 290 q 395 300 387 300 q 403 302 399 301 q 411 304 407 304 q 419 304 415 304 q 426 305 423 305 q 434 304 426 305 q 452 301 442 302 q 471 298 463 300 q 479 297 479 297 q 481 296 480 297 q 483 296 483 296 q 486 295 484 296 q 487 294 487 294 q 490 293 488 294 q 491 292 491 292 q 494 290 492 292 q 495 289 495 289 q 505 298 500 294 q 514 301 510 301 q 522 300 518 301 q 528 296 525 298 q 530 292 529 294 q 532 289 532 290 q 536 272 536 281 q 536 255 537 263 q 534 238 536 247 q 533 221 533 229 q 530 216 532 218 q 528 213 529 214 q 522 204 528 205 q 511 207 517 203 q 498 216 505 210 q 491 225 492 221 q 490 229 491 227 q 490 235 490 232 q 486 239 488 236 q 483 243 484 241 q 458 256 472 254 q 429 259 444 259 q 405 257 416 259 q 385 251 393 255 q 378 246 382 250 q 370 239 374 243 q 359 227 365 233 q 350 212 354 220 q 344 197 346 205 q 342 180 342 189 q 342 175 342 178 q 342 171 342 172 q 341 165 342 168 q 340 161 340 163 q 342 138 340 151 q 349 113 345 125 q 361 90 354 100 q 376 75 368 80 q 384 71 380 72 q 391 68 388 69 q 399 66 395 68 q 407 65 404 65 q 424 62 415 62 q 441 64 433 62 q 457 67 449 65 q 473 72 465 69 q 482 75 477 73 q 490 76 487 76 l 490 109 l 442 109 q 435 109 439 109 q 430 110 431 110 q 424 113 427 111 q 419 115 420 114 q 411 132 411 123 q 418 148 411 140 q 429 153 423 151 q 442 155 435 155 l 525 155 q 531 154 528 155 q 537 153 534 153 q 542 152 538 153 q 547 149 545 151 q 556 144 553 149 q 558 134 559 140 q 555 121 557 127 q 548 114 552 115 q 542 111 545 113 q 536 109 538 110 m 677 251 l 677 71 l 777 71 l 777 114 q 778 121 777 118 q 779 127 779 125 q 781 133 780 130 q 784 137 783 136 q 800 145 792 145 q 804 144 802 145 q 808 144 806 144 q 812 141 810 142 q 815 138 814 140 q 823 114 823 130 l 823 24 l 605 24 q 598 25 602 24 q 593 26 594 26 q 587 28 590 27 q 582 31 583 30 q 574 47 574 39 q 574 51 574 49 q 575 56 575 53 q 578 60 576 57 q 582 64 579 62 q 586 66 583 65 q 591 68 589 68 q 598 70 594 69 q 605 71 602 71 l 631 71 l 631 251 l 605 251 q 598 252 602 251 q 593 252 594 252 q 587 255 590 254 q 582 258 583 256 q 576 268 578 262 q 574 280 574 274 q 579 291 575 286 q 591 296 583 296 q 598 298 594 297 q 605 298 602 298 l 705 298 q 713 298 709 298 q 719 297 716 297 q 728 290 723 294 q 734 279 732 285 q 736 268 736 274 q 728 259 735 262 q 718 253 724 255 q 705 251 712 251 l 677 251 z "},"":{"ha":716,"x_min":53,"x_max":682,"o":"m 290 722 q 270 726 279 722 q 254 736 260 730 q 243 753 247 743 q 239 774 239 764 q 243 795 239 785 q 254 811 247 804 q 270 822 260 818 q 290 826 279 826 q 311 822 301 826 q 328 811 320 818 q 339 795 335 804 q 343 774 343 785 q 339 753 343 764 q 328 736 335 743 q 311 726 320 730 q 290 722 301 722 m 456 722 q 435 726 445 722 q 419 736 426 730 q 408 753 412 743 q 403 774 403 764 q 408 795 403 785 q 419 811 412 804 q 435 822 426 818 q 456 826 445 826 q 476 822 467 826 q 492 811 486 818 q 505 795 500 804 q 509 774 509 785 q 505 753 509 764 q 492 736 500 743 q 476 726 486 730 q 456 722 467 722 m 199 399 q 197 382 198 391 q 197 362 197 373 q 197 342 197 353 q 197 319 197 331 q 197 302 197 311 q 198 285 198 293 q 200 267 198 277 q 205 248 202 256 q 209 228 206 239 q 216 208 212 217 q 224 189 220 198 q 233 171 229 179 q 243 155 237 163 q 256 138 250 146 q 269 123 262 130 q 283 107 277 115 q 299 94 290 100 q 316 81 308 87 q 334 71 324 76 q 355 61 345 65 q 378 54 365 57 q 403 49 391 50 q 430 47 415 47 q 461 47 445 47 q 474 50 467 47 q 490 53 481 52 q 504 59 496 56 q 519 65 511 62 q 534 73 526 69 q 548 81 541 77 q 561 91 553 85 q 575 100 568 96 q 595 119 585 109 q 613 138 605 129 q 633 175 629 159 l 678 153 q 671 135 675 145 q 663 117 667 125 q 649 99 656 109 q 633 81 642 90 q 608 60 621 71 q 581 41 594 49 q 549 24 566 33 q 515 9 532 16 q 479 0 498 4 q 442 -7 460 -4 q 402 -10 422 -9 q 365 -11 382 -11 q 331 -7 349 -11 q 296 0 313 -4 q 261 12 278 4 q 229 27 244 19 q 201 45 214 35 q 175 64 187 54 q 151 87 163 75 q 129 111 138 99 q 114 130 121 119 q 102 149 107 140 q 90 172 95 160 q 81 195 85 183 q 73 220 77 208 q 66 244 68 232 q 60 269 62 256 q 56 294 57 282 q 53 330 53 312 q 53 363 53 347 q 56 398 53 381 q 62 431 58 415 q 72 467 66 450 q 85 500 77 484 q 103 533 94 517 q 123 563 113 549 q 140 585 132 575 q 160 604 149 595 q 182 622 170 613 q 206 636 194 631 q 231 650 218 644 q 258 661 244 656 q 284 669 270 665 q 312 675 298 674 q 340 680 326 678 q 369 681 354 681 q 397 681 382 681 q 426 680 412 681 q 454 676 439 680 q 484 669 469 673 q 511 659 498 665 q 537 647 525 654 q 559 635 548 642 q 579 620 570 628 q 616 583 600 604 q 631 562 624 574 q 646 538 639 551 q 657 515 651 528 q 667 490 663 502 q 674 469 671 480 q 680 445 677 457 q 682 422 681 434 q 682 399 682 411 l 199 399 m 206 456 l 533 456 q 532 475 533 465 q 530 495 532 486 q 525 517 528 506 q 518 537 522 528 q 498 574 510 557 q 484 589 491 582 q 468 601 476 597 q 446 613 457 608 q 425 621 434 618 q 401 627 412 625 q 377 629 389 629 q 353 628 365 629 q 330 623 342 627 q 305 613 317 618 q 282 600 293 608 q 266 587 274 594 q 251 571 258 579 q 236 553 243 563 q 225 534 229 544 q 215 516 220 526 q 209 495 210 506 q 205 475 206 486 q 206 456 205 465 z "},"":{"ha":416,"x_min":33,"x_max":397,"o":"m 102 722 q 81 726 91 722 q 65 736 72 730 q 53 753 57 743 q 49 774 49 764 q 53 795 49 785 q 65 811 57 804 q 81 822 72 818 q 102 826 91 826 q 122 822 113 826 q 138 811 132 818 q 151 795 146 804 q 155 774 155 785 q 151 753 155 764 q 138 736 146 743 q 122 726 132 730 q 102 722 113 722 m 267 722 q 247 726 256 722 q 229 736 237 730 q 218 753 222 743 q 214 774 214 764 q 218 795 214 785 q 229 811 222 804 q 247 822 237 818 q 267 826 256 826 q 288 822 278 826 q 304 811 297 818 q 315 795 311 804 q 320 774 320 785 q 315 753 320 764 q 304 736 311 743 q 288 726 297 730 q 267 722 278 722 m 282 670 l 282 68 l 397 38 l 397 -1 l 33 -1 l 33 37 l 151 69 l 151 589 l 34 589 l 34 644 l 282 670 z "},"":{"ha":949,"x_min":28,"x_max":905,"o":"m 529 722 q 509 726 518 722 q 492 736 499 730 q 480 753 484 743 q 476 774 476 764 q 480 795 476 785 q 492 811 484 804 q 509 822 499 818 q 529 826 518 826 q 549 822 540 826 q 566 811 559 818 q 578 795 574 804 q 582 774 582 785 q 578 753 582 764 q 566 736 574 743 q 549 726 559 730 q 529 722 540 722 m 321 722 q 301 726 311 722 q 285 736 292 730 q 274 753 278 743 q 270 774 270 764 q 274 795 270 785 q 285 811 278 804 q 301 822 292 818 q 321 826 311 826 q 342 822 332 826 q 359 811 353 818 q 370 795 366 804 q 374 774 374 785 q 370 753 374 764 q 359 736 366 743 q 342 726 353 730 q 321 722 332 722 m 285 671 l 285 178 q 286 165 285 172 q 286 149 286 157 q 288 135 286 142 q 293 121 290 127 q 299 104 294 113 q 309 88 304 96 q 320 76 313 81 q 335 66 327 71 q 356 60 345 62 q 380 56 368 57 q 402 55 391 56 q 426 54 414 54 q 450 58 438 56 q 473 64 461 61 q 496 72 484 68 q 518 80 507 76 q 538 90 528 84 q 560 100 549 96 q 581 114 570 107 q 602 126 591 121 q 616 136 609 130 q 631 146 624 142 q 644 159 637 153 q 658 171 651 165 l 658 578 l 540 578 l 540 616 l 746 671 l 792 671 l 792 69 l 905 39 l 905 -1 l 656 -1 l 656 110 q 645 101 651 106 q 633 92 639 96 q 620 83 627 88 q 608 73 613 77 q 594 63 601 69 q 582 53 587 57 q 566 44 574 49 q 553 35 559 39 q 536 26 545 31 q 518 18 526 22 q 498 9 509 14 q 480 3 488 5 q 460 -1 471 1 q 441 -4 450 -3 q 420 -6 430 -4 q 400 -9 410 -8 q 376 -10 388 -9 q 354 -11 365 -11 q 330 -9 342 -11 q 309 -7 319 -7 q 290 -2 300 -4 q 271 0 279 0 q 253 6 262 3 q 236 14 244 9 q 223 20 229 16 q 213 27 217 23 q 203 37 208 31 q 194 47 198 43 q 185 58 190 52 q 178 69 180 64 q 170 83 174 76 q 165 96 167 91 q 159 112 161 104 q 156 127 157 119 q 153 144 153 136 q 152 161 152 153 l 152 582 l 28 582 l 28 617 l 233 671 l 285 671 z "},"":{"ha":1020,"x_min":42,"x_max":972,"o":"m 354 990 q 334 994 343 990 q 317 1005 324 998 q 307 1021 311 1012 q 302 1042 302 1031 q 307 1062 302 1053 q 317 1080 311 1072 q 334 1090 324 1086 q 354 1095 343 1095 q 374 1090 365 1095 q 392 1080 384 1086 q 403 1062 399 1072 q 407 1042 407 1053 q 403 1021 407 1031 q 392 1005 399 1012 q 374 994 384 998 q 354 990 365 990 m 618 990 q 598 994 608 990 q 582 1005 589 998 q 570 1021 575 1012 q 566 1042 566 1031 q 570 1062 566 1053 q 582 1080 575 1072 q 598 1090 589 1086 q 618 1095 608 1095 q 639 1090 629 1095 q 656 1080 648 1086 q 667 1062 663 1072 q 671 1042 671 1053 q 667 1021 671 1031 q 656 1005 663 1012 q 639 994 648 998 q 618 990 629 990 m 836 945 l 926 693 l 884 681 q 863 707 873 694 q 840 732 852 720 q 814 757 827 745 q 788 779 800 769 q 760 799 774 789 q 731 817 745 808 q 701 833 716 825 q 670 848 685 842 q 632 863 651 856 q 594 873 613 869 q 553 883 574 879 q 513 887 533 887 q 480 888 496 888 q 449 888 464 888 q 416 886 433 888 q 385 882 400 884 q 368 876 377 880 q 353 868 359 872 q 338 858 345 864 q 328 845 332 852 q 319 833 324 840 q 313 818 315 826 q 309 802 311 810 q 308 785 308 793 l 308 537 l 536 537 l 578 712 l 629 712 l 629 297 l 582 297 l 534 472 l 308 472 l 308 171 q 309 155 308 163 q 315 138 311 146 q 322 122 317 130 q 331 107 327 114 q 342 94 335 100 q 357 83 349 87 q 372 75 363 79 q 388 69 380 71 q 420 65 404 68 q 452 61 435 62 q 484 60 468 61 q 517 60 500 60 q 557 64 537 61 q 598 72 578 68 q 638 83 618 76 q 678 99 658 91 q 714 118 696 107 q 751 141 732 129 q 788 169 769 153 q 826 201 807 184 q 851 227 838 213 q 876 254 864 240 q 901 283 888 269 q 926 315 914 298 l 972 297 l 848 0 l 47 0 l 47 41 l 165 72 l 165 869 l 42 903 l 42 945 l 836 945 z "},"":{"ha":438,"x_min":39,"x_max":418,"o":"m 418 945 l 418 906 l 297 873 l 297 71 l 415 38 l 415 -1 l 43 -1 l 43 41 l 156 71 l 156 875 l 39 906 l 39 945 l 418 945 m 319 990 q 298 994 308 990 q 281 1005 289 998 q 270 1021 274 1012 q 266 1042 266 1031 q 270 1062 266 1053 q 281 1080 274 1072 q 298 1090 289 1086 q 319 1095 308 1095 q 339 1090 330 1095 q 355 1080 349 1086 q 366 1062 362 1072 q 370 1042 370 1053 q 366 1021 370 1031 q 355 1005 362 1012 q 339 994 349 998 q 319 990 330 990 m 142 990 q 122 994 132 990 q 106 1005 113 998 q 95 1021 99 1012 q 91 1042 91 1031 q 95 1062 91 1053 q 106 1080 99 1072 q 122 1090 113 1086 q 142 1095 132 1095 q 163 1090 153 1095 q 180 1080 172 1086 q 191 1062 187 1072 q 195 1042 195 1053 q 191 1021 195 1031 q 180 1005 187 1012 q 163 994 172 998 q 142 990 153 990 z "},"":{"ha":1095,"x_min":33,"x_max":1043,"o":"m 690 990 q 670 994 680 990 q 654 1005 661 998 q 643 1021 647 1012 q 639 1042 639 1031 q 643 1062 639 1053 q 654 1080 647 1072 q 670 1090 661 1086 q 690 1095 680 1095 q 711 1090 701 1095 q 728 1080 720 1086 q 739 1062 735 1072 q 743 1042 743 1053 q 739 1021 743 1031 q 728 1005 735 1012 q 711 994 720 998 q 690 990 701 990 m 426 990 q 406 994 415 990 q 389 1005 396 998 q 378 1021 382 1012 q 374 1042 374 1031 q 378 1062 374 1053 q 389 1080 382 1072 q 406 1090 396 1086 q 426 1095 415 1095 q 446 1090 437 1095 q 464 1080 456 1086 q 475 1062 471 1072 q 479 1042 479 1053 q 475 1021 479 1031 q 464 1005 471 1012 q 446 994 456 998 q 426 990 437 990 m 441 951 l 441 909 l 304 871 l 304 247 q 305 222 304 235 q 311 198 307 210 q 320 174 315 186 q 332 149 326 161 q 347 127 338 138 q 363 109 355 117 q 382 93 372 100 q 404 81 393 85 q 444 67 423 73 q 486 57 465 61 q 528 50 506 53 q 572 47 551 47 q 615 50 593 47 q 658 56 637 52 q 699 66 678 60 q 739 81 720 73 q 763 96 751 87 q 784 114 774 104 q 800 138 792 126 q 815 163 808 151 q 826 192 821 178 q 834 220 831 206 q 839 248 837 235 q 841 274 841 262 l 841 872 l 707 907 l 707 947 l 1043 947 l 1043 903 l 920 871 l 920 218 q 916 184 920 201 q 907 152 913 167 q 892 123 901 137 q 875 96 884 109 q 859 79 867 88 q 842 61 850 69 q 823 45 833 53 q 804 28 812 37 q 788 20 796 24 q 772 11 780 15 q 754 4 764 7 q 736 0 745 1 q 717 -4 727 -1 q 699 -8 707 -7 q 679 -10 689 -8 q 661 -14 669 -12 q 633 -17 647 -15 q 605 -19 618 -19 q 576 -20 590 -19 q 548 -20 562 -20 q 523 -20 536 -20 q 498 -19 510 -19 q 473 -16 486 -18 q 448 -14 460 -14 q 410 -7 429 -11 q 376 0 392 -4 q 340 10 357 3 q 308 26 323 18 q 290 37 298 31 q 273 49 281 43 q 256 63 264 56 q 240 76 247 71 q 225 90 232 83 q 213 104 218 98 q 201 120 206 113 q 191 136 195 127 q 180 159 184 148 q 172 183 175 171 q 167 210 168 195 q 165 237 165 224 l 165 872 l 33 907 l 33 951 l 441 951 z "},"":{"ha":723,"x_min":53,"x_max":689,"o":"m 689 142 q 683 130 686 137 q 675 117 680 123 q 665 104 671 111 q 655 91 659 98 q 642 79 648 85 q 629 68 635 73 q 614 56 621 62 q 600 45 606 50 q 582 33 591 39 q 564 23 572 27 q 545 14 555 19 q 526 5 534 9 q 507 -1 517 1 q 490 -5 498 -3 q 471 -9 480 -7 q 454 -11 463 -11 q 420 -12 438 -11 q 387 -12 403 -12 q 371 -12 378 -12 q 355 -9 363 -11 q 354 -14 355 -9 q 350 -27 353 -19 q 345 -44 347 -35 q 343 -61 343 -53 q 351 -60 346 -60 q 361 -59 355 -60 q 372 -58 366 -58 q 381 -57 377 -58 q 428 -62 407 -54 q 464 -84 449 -71 q 490 -121 481 -100 q 499 -159 499 -141 q 497 -177 499 -167 q 491 -198 495 -187 q 480 -220 487 -209 q 464 -240 473 -231 q 427 -267 449 -256 q 373 -277 404 -277 q 338 -275 357 -277 q 303 -268 320 -273 q 273 -257 286 -263 q 251 -241 259 -251 q 241 -225 245 -235 q 236 -205 237 -216 q 239 -184 235 -194 q 254 -168 243 -175 q 271 -164 263 -163 q 285 -170 278 -165 q 298 -183 292 -175 q 311 -199 305 -191 q 323 -215 317 -208 q 335 -228 328 -222 q 349 -237 342 -233 q 363 -239 355 -240 q 385 -236 374 -239 q 403 -226 395 -233 q 418 -204 411 -218 q 429 -165 425 -190 q 428 -144 430 -153 q 422 -129 426 -136 q 411 -117 418 -122 q 397 -108 404 -111 q 382 -102 389 -104 q 368 -98 374 -99 q 356 -96 361 -96 q 349 -96 351 -96 q 330 -97 340 -95 q 309 -102 319 -99 q 293 -106 300 -104 q 285 -109 286 -109 q 284 -104 283 -109 q 286 -94 285 -100 q 290 -79 288 -87 q 296 -61 293 -71 q 301 -43 298 -52 q 307 -26 304 -34 q 312 -12 309 -18 q 316 -4 315 -7 q 290 0 302 -1 q 264 5 277 1 q 239 16 252 9 q 217 28 227 23 q 191 47 203 37 q 165 66 178 57 q 142 90 153 77 q 121 114 130 102 q 101 140 110 126 q 87 168 92 155 q 73 199 79 183 q 65 228 68 214 q 58 258 61 243 q 56 289 56 274 q 54 321 54 305 q 53 354 53 338 q 54 378 53 366 q 57 403 56 391 q 61 428 58 415 q 66 452 64 441 q 74 477 69 464 q 83 500 79 490 q 92 524 87 513 q 104 545 98 536 q 130 583 115 566 q 160 612 144 600 q 195 635 176 624 q 232 654 213 646 q 273 668 252 662 q 315 678 294 674 q 357 684 335 682 q 401 685 380 685 q 435 683 418 685 q 468 678 452 681 q 500 670 484 675 q 533 656 517 665 q 561 644 547 651 q 587 628 575 636 q 611 611 600 620 q 633 591 623 602 q 648 574 642 583 q 659 553 655 564 q 666 531 663 543 q 669 507 669 519 q 667 490 669 499 q 663 473 665 481 q 656 458 661 465 q 647 445 651 452 q 633 435 640 439 q 620 427 627 430 q 604 426 612 426 q 590 426 597 426 q 576 430 583 427 q 564 435 570 433 q 553 444 557 439 q 545 452 548 448 q 538 465 541 458 q 534 477 534 472 q 530 500 530 490 q 532 513 530 507 q 533 522 533 518 q 535 532 533 528 q 537 541 537 537 q 536 550 537 545 q 534 560 536 555 q 528 571 532 566 q 521 581 525 576 q 512 591 517 586 q 503 600 507 595 q 493 608 498 604 q 484 614 488 613 q 469 622 476 618 q 453 627 461 625 q 436 630 445 629 q 419 631 427 631 q 403 631 411 631 q 388 631 395 631 q 372 629 380 631 q 358 627 363 628 q 332 622 345 627 q 309 609 319 617 q 289 593 298 602 q 271 574 279 585 q 255 550 263 563 q 241 522 247 537 q 230 494 235 509 q 222 463 225 479 q 215 428 218 446 q 212 392 212 410 q 208 357 209 374 q 208 324 208 340 q 209 290 208 307 q 213 256 210 273 q 219 227 214 241 q 228 199 224 212 q 242 161 233 179 q 262 127 251 142 q 284 101 271 114 q 311 77 297 88 q 338 61 323 69 q 370 49 354 53 q 404 41 387 45 q 437 38 420 38 q 456 39 446 38 q 475 39 467 39 q 492 45 483 42 q 510 50 502 47 q 526 58 518 54 q 541 65 533 61 q 557 75 549 69 q 571 85 564 80 q 583 97 576 91 q 597 107 590 103 q 608 119 602 113 q 618 129 614 125 q 627 140 623 134 q 636 149 632 145 q 644 158 640 153 q 650 167 647 163 l 689 142 z "},"":{"ha":1025,"x_min":58,"x_max":977,"o":"m 543 -26 q 522 -24 532 -26 q 500 -23 511 -23 q 499 -26 499 -23 q 498 -35 499 -28 q 497 -47 498 -41 q 492 -64 496 -54 q 498 -59 495 -60 q 505 -58 500 -58 q 515 -57 509 -57 q 532 -57 522 -57 q 542 -56 534 -56 q 559 -59 549 -57 q 578 -64 568 -61 q 599 -73 589 -68 q 618 -87 609 -79 q 634 -106 627 -95 q 646 -130 642 -117 q 650 -160 650 -144 q 646 -191 650 -176 q 634 -216 642 -205 q 617 -237 627 -228 q 596 -254 608 -247 q 573 -267 585 -262 q 550 -275 562 -273 q 528 -279 538 -278 q 510 -279 518 -281 q 472 -272 488 -275 q 444 -264 456 -269 q 422 -257 431 -260 q 408 -250 414 -254 q 398 -241 401 -245 q 392 -231 395 -236 q 388 -220 389 -225 q 384 -208 387 -214 q 385 -191 381 -199 q 394 -176 388 -183 q 408 -166 400 -170 q 425 -165 416 -163 q 431 -168 426 -165 q 441 -173 435 -170 q 451 -182 446 -176 q 460 -195 456 -187 q 473 -218 464 -209 q 490 -232 481 -227 q 506 -239 499 -237 q 515 -241 513 -241 q 539 -235 528 -243 q 559 -214 551 -227 q 574 -189 568 -202 q 579 -163 579 -175 q 576 -144 579 -156 q 564 -122 572 -133 q 541 -104 555 -111 q 505 -96 526 -96 q 473 -98 487 -96 q 451 -103 460 -100 q 437 -108 442 -106 q 433 -110 433 -110 q 433 -106 433 -110 q 436 -96 434 -102 q 441 -81 438 -90 q 446 -64 444 -72 q 452 -47 449 -56 q 456 -32 454 -38 q 459 -22 458 -26 q 458 -18 460 -18 q 433 -12 446 -15 q 408 -5 420 -8 q 375 6 392 0 q 342 19 358 12 q 309 37 326 27 q 278 54 292 46 q 189 127 229 87 q 150 172 168 148 q 118 221 132 197 q 92 273 103 245 q 73 328 81 300 q 62 388 65 357 q 58 450 58 419 q 61 509 58 480 q 69 566 64 538 q 83 621 75 594 q 102 673 91 648 q 132 734 114 705 q 170 789 149 764 q 213 840 190 817 q 262 883 236 864 q 319 920 289 903 q 382 948 350 937 q 450 966 415 960 q 522 971 486 971 q 541 970 530 971 q 563 970 552 970 q 584 968 572 970 q 606 963 595 966 q 627 959 616 962 q 650 954 639 956 q 671 947 661 951 q 693 939 682 943 q 710 932 701 936 q 727 924 719 928 q 743 916 735 920 q 758 907 751 911 q 770 898 764 903 q 783 888 777 892 q 791 878 787 884 q 800 867 796 872 l 836 932 l 878 932 l 944 600 l 892 600 q 885 614 888 606 q 879 629 882 621 q 871 646 875 637 q 864 663 867 655 q 856 681 860 671 q 848 699 852 690 q 838 718 844 708 q 827 736 831 728 q 803 769 817 753 q 773 802 789 785 q 736 834 757 818 q 694 865 716 850 q 680 873 688 869 q 666 879 673 878 q 650 886 658 883 q 633 890 642 888 q 615 894 625 892 q 597 895 605 895 q 577 897 587 897 q 559 898 567 898 q 539 897 549 898 q 521 897 529 897 q 503 895 511 897 q 486 892 494 894 q 469 890 477 892 q 453 886 460 888 q 438 882 445 884 q 426 878 431 880 q 390 861 407 872 q 358 837 373 850 q 328 807 342 823 q 301 773 313 791 q 279 735 289 755 q 260 693 269 715 q 246 650 252 673 q 239 608 240 628 q 233 554 235 582 q 231 498 231 526 q 231 441 231 469 q 236 385 232 414 q 241 352 237 369 q 248 319 244 335 q 257 286 252 302 q 269 254 262 270 q 282 224 274 239 q 298 194 290 209 q 317 165 307 180 q 338 138 327 151 q 367 111 350 123 q 403 87 384 98 q 443 69 422 77 q 484 56 464 61 q 527 48 505 52 q 572 45 549 45 q 616 46 594 45 q 658 52 637 47 q 677 56 667 53 q 699 62 688 58 q 719 72 708 66 q 739 81 730 77 q 759 94 749 87 q 777 106 769 100 q 795 121 785 114 q 814 136 806 129 q 842 164 827 149 q 868 193 856 179 q 890 224 880 209 q 907 254 899 240 l 977 221 q 942 167 962 193 q 901 119 922 141 q 852 79 878 98 q 800 43 826 60 q 770 27 785 35 q 738 12 754 19 q 705 1 722 7 q 673 -8 689 -4 q 640 -15 656 -12 q 608 -20 624 -18 q 575 -24 591 -22 q 543 -26 559 -26 z "},"":{"ha":765,"x_min":49,"x_max":730,"o":"m 388 39 q 406 40 396 39 q 423 43 415 41 q 442 48 433 45 q 460 56 452 52 q 477 65 468 60 q 494 76 486 71 q 509 90 502 81 q 524 107 517 99 q 536 126 529 115 q 548 148 543 137 q 559 172 553 159 q 568 199 564 184 q 575 229 572 213 q 581 262 578 245 q 583 298 582 279 q 585 338 585 317 q 578 414 583 378 q 566 476 574 449 q 546 528 557 505 q 521 568 534 551 q 493 599 509 586 q 461 618 477 612 q 426 631 444 627 q 391 635 408 635 q 373 634 382 635 q 355 632 363 633 q 337 627 346 629 q 320 621 328 624 q 303 614 312 618 q 288 604 294 609 q 271 591 279 598 q 258 575 263 583 q 244 557 251 567 q 232 537 237 547 q 221 513 227 526 q 212 486 216 499 q 203 455 208 471 q 198 423 199 439 q 194 386 195 406 q 193 345 193 366 q 193 304 193 324 q 195 267 193 285 q 200 233 197 250 q 208 201 203 216 q 216 172 212 186 q 227 148 221 159 q 239 126 232 137 q 252 107 245 115 q 267 91 259 99 q 283 77 275 83 q 300 66 292 72 q 316 56 308 60 q 334 48 324 52 q 351 43 343 45 q 370 40 361 41 q 388 39 380 39 m 388 -8 q 353 -7 370 -8 q 320 -4 336 -5 q 287 2 304 -1 q 255 11 270 5 q 226 24 240 16 q 198 39 212 31 q 172 58 184 47 q 148 79 159 68 q 126 102 137 90 q 107 127 115 114 q 89 157 98 141 q 75 190 80 174 q 63 224 68 206 q 56 260 58 241 q 51 300 53 279 q 49 343 49 321 q 51 385 49 365 q 56 425 53 406 q 66 460 60 442 q 77 495 72 479 q 91 525 83 510 q 107 553 99 540 q 127 579 117 567 q 149 602 138 591 q 173 622 160 612 q 199 639 186 632 q 227 654 213 647 q 256 666 241 661 q 286 675 270 671 q 319 682 302 680 q 353 686 335 684 q 388 688 370 688 q 422 686 406 688 q 456 682 439 684 q 489 675 472 680 q 521 665 506 670 q 549 652 534 659 q 578 637 564 646 q 604 620 591 629 q 628 600 617 610 q 650 576 639 589 q 670 551 661 564 q 688 522 680 537 q 701 491 696 507 q 713 457 707 475 q 722 422 719 439 q 727 382 724 403 q 730 340 730 362 q 728 299 730 320 q 723 260 726 278 q 714 224 720 241 q 703 190 708 206 q 689 159 697 174 q 671 130 681 144 q 651 102 662 115 q 629 79 640 90 q 606 58 618 68 q 579 41 593 49 q 551 25 566 33 q 521 12 536 18 q 490 3 506 7 q 457 -3 473 0 q 423 -6 441 -4 q 388 -8 406 -8 m 286 806 q 276 807 282 806 q 266 810 270 808 q 258 815 262 812 q 250 821 254 818 q 244 829 247 825 q 239 837 241 833 q 236 848 237 842 q 235 859 235 854 q 236 869 235 864 q 239 879 237 875 q 244 888 241 883 q 250 895 247 892 q 258 902 254 899 q 266 906 262 905 q 276 909 270 909 q 286 910 282 910 q 297 909 292 910 q 307 906 302 909 q 317 902 312 905 q 324 895 321 899 q 331 888 328 892 q 336 879 334 883 q 338 869 338 875 q 339 859 339 864 q 338 848 339 854 q 336 838 338 842 q 331 829 334 834 q 324 821 328 825 q 317 815 321 818 q 308 810 312 812 q 298 807 304 808 q 286 806 292 806 m 494 806 q 484 807 490 806 q 473 810 477 808 q 466 815 471 812 q 457 821 461 818 q 450 829 453 825 q 445 837 448 833 q 442 848 444 842 q 441 859 441 854 q 442 869 441 864 q 445 879 444 875 q 450 888 448 883 q 457 895 453 892 q 466 902 461 899 q 473 906 471 905 q 484 909 477 909 q 494 910 490 910 q 505 909 499 910 q 514 906 511 909 q 523 902 518 905 q 530 895 528 899 q 538 888 534 892 q 543 879 541 883 q 546 869 545 875 q 547 859 547 864 q 546 848 547 854 q 543 838 545 842 q 538 829 541 834 q 530 821 534 825 q 523 815 528 818 q 514 810 518 812 q 505 807 511 808 q 494 806 499 806 z "},"":{"ha":1096,"x_min":53,"x_max":1044,"o":"m 544 41 q 584 43 564 41 q 623 49 604 45 q 658 60 640 53 q 690 76 675 68 q 720 95 705 84 q 749 118 735 106 q 774 144 762 130 q 796 174 785 159 q 817 204 807 187 q 834 239 826 221 q 849 275 842 256 q 861 313 856 294 q 871 353 867 332 q 878 395 875 374 q 881 437 879 415 q 883 480 883 458 q 881 522 883 500 q 878 563 879 543 q 871 604 875 583 q 863 643 867 624 q 850 680 857 661 q 836 715 844 699 q 818 748 827 732 q 799 779 808 764 q 777 806 788 792 q 753 830 765 819 q 726 852 741 842 q 697 871 711 863 q 666 885 682 879 q 633 895 650 891 q 597 901 616 899 q 559 903 578 903 q 486 895 521 903 q 420 872 450 887 q 363 835 389 857 q 315 787 336 812 q 275 729 292 761 q 247 661 258 697 q 229 583 235 624 q 222 498 222 541 q 223 454 222 476 q 227 411 224 433 q 233 368 228 389 q 241 328 237 347 q 253 288 247 308 q 266 251 259 269 q 281 215 273 232 q 301 183 290 198 q 321 152 311 167 q 345 125 332 137 q 371 101 357 113 q 400 81 385 90 q 432 64 415 72 q 467 53 449 57 q 504 44 484 47 q 544 41 524 41 m 560 -27 q 509 -24 534 -27 q 460 -18 484 -22 q 412 -6 435 -12 q 366 8 388 0 q 321 29 343 18 q 279 54 300 41 q 240 83 259 68 q 203 114 221 98 q 172 149 187 130 q 142 187 156 168 q 115 229 127 208 q 94 273 103 251 q 77 318 84 294 q 64 366 69 342 q 56 416 58 391 q 53 467 53 441 q 56 517 53 492 q 62 567 58 543 q 74 615 66 591 q 90 662 81 639 q 109 706 98 684 q 133 749 121 728 q 161 788 146 769 q 193 823 176 807 q 227 857 209 841 q 264 886 245 872 q 304 911 283 899 q 347 933 326 922 q 393 950 369 943 q 441 963 416 958 q 492 971 465 968 q 544 974 518 974 q 596 971 570 974 q 647 964 623 968 q 695 951 671 959 q 742 935 719 944 q 785 915 764 926 q 827 890 807 903 q 866 861 848 876 q 901 830 884 846 q 932 795 917 814 q 960 757 948 776 q 985 716 974 738 q 1006 673 997 694 q 1023 628 1016 651 q 1035 581 1031 605 q 1042 531 1039 556 q 1044 479 1044 506 q 1042 428 1044 453 q 1035 378 1039 403 q 1023 330 1031 354 q 1008 283 1016 305 q 987 239 998 262 q 963 197 975 217 q 936 157 951 176 q 905 121 921 138 q 870 87 888 103 q 834 58 852 72 q 794 32 815 43 q 751 11 773 20 q 707 -5 730 1 q 661 -16 684 -12 q 611 -24 636 -22 q 560 -27 586 -27 m 684 1051 q 673 1053 678 1051 q 663 1055 667 1054 q 654 1061 659 1058 q 647 1066 650 1063 q 641 1074 644 1070 q 636 1082 637 1078 q 632 1093 633 1086 q 631 1103 631 1099 q 632 1114 631 1108 q 635 1123 633 1119 q 641 1132 637 1127 q 647 1141 644 1137 q 654 1147 650 1145 q 663 1152 659 1150 q 673 1155 667 1154 q 684 1156 678 1156 q 694 1155 689 1156 q 704 1152 700 1154 q 713 1147 708 1150 q 722 1141 718 1145 q 728 1132 724 1137 q 732 1123 731 1127 q 735 1114 734 1119 q 736 1103 736 1108 q 735 1093 736 1099 q 732 1082 734 1086 q 728 1074 731 1078 q 722 1066 724 1070 q 713 1061 718 1063 q 704 1055 708 1058 q 694 1053 700 1054 q 684 1051 689 1051 m 419 1051 q 408 1053 414 1051 q 399 1055 403 1054 q 390 1061 395 1058 q 382 1066 385 1063 q 376 1074 380 1070 q 372 1082 373 1078 q 368 1093 369 1086 q 368 1103 368 1099 q 368 1114 368 1108 q 372 1123 369 1119 q 376 1132 373 1127 q 382 1141 380 1137 q 390 1147 385 1145 q 399 1152 395 1150 q 408 1155 403 1154 q 419 1156 414 1156 q 430 1155 425 1156 q 439 1152 435 1154 q 448 1147 444 1150 q 457 1141 453 1145 q 463 1132 460 1137 q 468 1123 465 1127 q 471 1114 469 1119 q 472 1103 472 1108 q 471 1093 472 1099 q 468 1082 469 1086 q 463 1074 465 1078 q 457 1066 460 1070 q 448 1061 453 1063 q 439 1055 444 1058 q 430 1053 435 1054 q 419 1051 425 1051 z "}}}
